{"glyphs":{"0":{"ha":833,"x_min":null,"x_max":null,"o":"m 417 1008 b 758 538 661 1008 758 846 l 758 461 b 417 -10 758 153 661 -10 b 75 461 172 -10 75 153 l 75 538 b 417 1008 75 846 172 1008 m 417 914 b 176 528 235 914 176 792 l 176 471 b 417 85 176 207 235 85 b 657 471 599 85 657 207 l 657 528 b 417 914 657 792 599 914 "},"1":{"ha":833,"x_min":null,"x_max":null,"o":"m 504 999 b 558 954 536 999 558 986 l 558 42 b 507 0 558 13 535 0 b 457 42 481 0 457 13 l 457 876 l 221 726 b 158 746 196 713 172 724 b 171 808 146 767 147 793 l 433 972 b 504 999 461 989 485 999 "},"2":{"ha":833,"x_min":null,"x_max":null,"o":"m 417 1008 b 713 764 611 1008 713 901 l 713 751 b 581 474 713 649 672 574 l 235 93 l 718 93 b 756 50 744 93 756 74 b 718 6 756 25 744 6 l 178 6 b 101 60 122 6 101 24 b 139 126 101 78 110 93 l 493 515 b 611 749 588 619 611 672 l 611 757 b 419 917 611 854 544 917 b 199 789 317 917 251 869 b 136 778 185 768 158 763 b 121 842 114 793 107 818 b 417 1008 179 936 275 1008 "},"3":{"ha":833,"x_min":null,"x_max":null,"o":"m 401 1008 b 704 757 594 1008 704 901 l 704 750 b 528 521 704 664 658 564 b 744 292 657 501 744 418 l 744 278 b 410 -10 744 129 639 -10 b 117 79 299 -10 194 25 b 104 147 93 96 89 122 b 168 161 119 172 143 178 b 406 82 239 111 318 82 b 643 281 572 82 643 181 l 643 292 b 406 474 643 439 514 474 l 319 474 b 283 518 294 474 283 493 b 319 564 283 543 294 564 l 399 564 b 606 749 499 564 606 617 l 606 753 b 401 918 606 850 535 918 b 201 819 314 918 251 882 b 139 819 183 800 157 800 b 133 882 119 838 118 863 b 401 1008 186 953 278 1008 "},"4":{"ha":833,"x_min":null,"x_max":null,"o":"m 586 989 b 600 924 610 975 618 951 l 175 313 l 560 313 l 560 593 b 610 635 560 622 583 635 b 661 593 636 635 661 622 l 661 313 l 779 313 b 814 269 804 313 814 293 b 779 226 814 246 804 226 l 661 226 l 661 42 b 610 0 661 13 636 0 b 560 42 583 0 560 13 l 560 226 l 124 226 b 51 278 71 226 51 243 b 86 347 51 292 56 303 l 524 979 b 586 989 540 1003 565 1003 "},"5":{"ha":833,"x_min":null,"x_max":null,"o":"m 665 993 b 701 949 690 993 701 974 b 665 904 701 924 690 904 l 267 904 l 244 543 b 458 619 292 585 367 619 b 760 317 649 619 760 494 l 760 301 b 419 -10 760 154 669 -10 b 121 76 301 -10 196 25 b 107 144 96 93 92 121 b 171 160 122 169 146 175 b 419 83 240 114 322 83 b 658 303 592 83 658 193 l 658 313 b 435 532 658 463 576 532 b 246 461 354 532 293 503 b 190 436 226 443 214 436 b 144 476 164 436 143 450 l 169 900 b 263 993 174 972 192 993 l 665 993 "},"6":{"ha":833,"x_min":null,"x_max":null,"o":"m 468 1008 b 692 956 558 1008 640 985 b 710 893 715 942 721 918 b 650 874 699 869 675 861 b 467 915 597 900 540 915 b 192 503 283 915 208 760 b 451 640 236 590 342 640 b 761 331 640 640 761 521 l 761 308 b 432 -10 761 111 622 -10 b 93 407 233 -10 93 125 l 93 436 b 468 1008 93 860 242 1008 m 435 551 b 201 335 289 551 201 453 l 201 328 b 431 83 201 179 296 83 b 661 311 565 83 661 163 l 661 321 b 435 551 661 471 583 551 "},"7":{"ha":833,"x_min":null,"x_max":null,"o":"m 688 993 b 761 939 742 993 761 976 b 732 849 761 918 756 901 l 358 26 b 293 6 346 -1 317 -4 b 269 67 271 15 256 38 l 653 904 l 117 904 b 79 949 90 904 79 924 b 117 993 79 974 90 993 l 688 993 "},"8":{"ha":833,"x_min":null,"x_max":null,"o":"m 417 1008 b 714 754 597 1008 714 897 l 714 739 b 556 511 714 638 653 556 b 744 276 672 479 744 386 l 744 260 b 418 -10 744 100 615 -10 b 89 260 218 -10 89 100 l 89 276 b 276 511 89 386 163 481 b 119 739 181 554 119 638 l 119 754 b 417 1008 119 897 233 1008 m 417 918 b 218 744 292 918 218 846 l 218 735 b 418 556 218 629 300 556 b 615 735 536 556 615 629 l 615 744 b 417 918 615 846 539 918 m 418 465 b 190 272 290 465 190 396 l 190 263 b 418 81 190 161 275 81 b 643 263 561 81 643 161 l 643 272 b 418 465 643 392 547 465 "},"9":{"ha":833,"x_min":null,"x_max":null,"o":"m 408 1008 b 747 593 611 1008 747 876 l 747 563 b 372 -10 747 119 606 -10 b 149 44 282 -10 203 13 b 132 108 125 60 119 83 b 193 129 143 133 167 142 b 376 83 244 100 304 83 b 649 493 554 83 639 199 b 389 356 604 406 499 356 b 79 665 200 356 79 474 l 79 690 b 408 1008 79 888 218 1008 m 410 915 b 179 688 275 915 179 836 l 179 675 b 406 444 179 525 257 444 b 639 663 551 444 639 543 l 639 671 b 410 915 639 821 547 915 "},"\u0000":{"ha":347,"x_min":null,"x_max":null,"o":""},"\u0001":{"ha":347,"x_min":null,"x_max":null,"o":""},"\u0002":{"ha":347,"x_min":null,"x_max":null,"o":""},"\u0003":{"ha":347,"x_min":null,"x_max":null,"o":""},"\u0004":{"ha":347,"x_min":null,"x_max":null,"o":""},"\u0005":{"ha":347,"x_min":null,"x_max":null,"o":""},"\u0006":{"ha":347,"x_min":null,"x_max":null,"o":""},"\u0007":{"ha":347,"x_min":null,"x_max":null,"o":""},"\b":{"ha":347,"x_min":null,"x_max":null,"o":""},"\t":{"ha":347,"x_min":null,"x_max":null,"o":""},"\n":{"ha":347,"x_min":null,"x_max":null,"o":""},"\u000b":{"ha":347,"x_min":null,"x_max":null,"o":""},"\f":{"ha":347,"x_min":null,"x_max":null,"o":""},"\r":{"ha":347,"x_min":null,"x_max":null,"o":""},"\u000e":{"ha":347,"x_min":null,"x_max":null,"o":""},"\u000f":{"ha":347,"x_min":null,"x_max":null,"o":""},"\u0010":{"ha":347,"x_min":null,"x_max":null,"o":""},"\u0011":{"ha":347,"x_min":null,"x_max":null,"o":""},"\u0012":{"ha":347,"x_min":null,"x_max":null,"o":""},"\u0013":{"ha":347,"x_min":null,"x_max":null,"o":""},"\u0014":{"ha":347,"x_min":null,"x_max":null,"o":""},"\u0015":{"ha":347,"x_min":null,"x_max":null,"o":""},"\u0016":{"ha":347,"x_min":null,"x_max":null,"o":""},"\u0017":{"ha":347,"x_min":null,"x_max":null,"o":""},"\u0018":{"ha":347,"x_min":null,"x_max":null,"o":""},"\u0019":{"ha":347,"x_min":null,"x_max":null,"o":""},"\u001a":{"ha":347,"x_min":null,"x_max":null,"o":""},"\u001b":{"ha":347,"x_min":null,"x_max":null,"o":""},"\u001c":{"ha":347,"x_min":null,"x_max":null,"o":""},"\u001d":{"ha":347,"x_min":null,"x_max":null,"o":""},"\u001e":{"ha":347,"x_min":null,"x_max":null,"o":""},"\u001f":{"ha":347,"x_min":null,"x_max":null,"o":""}," ":{"ha":347,"x_min":null,"x_max":null,"o":""},"!":{"ha":396,"x_min":null,"x_max":null,"o":"m 199 1021 b 254 972 232 1021 254 1006 l 242 296 b 199 251 242 264 222 251 b 154 296 174 251 156 264 l 143 972 b 199 1021 142 1006 165 1021 m 199 118 b 276 40 242 118 276 83 b 199 -36 276 -3 242 -36 b 121 40 154 -36 121 -3 b 199 118 121 83 154 118 "},"\"":{"ha":522,"x_min":null,"x_max":null,"o":"m 161 1021 b 215 975 190 1021 217 1006 l 204 719 b 161 679 203 692 188 679 b 119 719 135 679 121 692 l 108 975 b 161 1021 107 1006 132 1021 m 361 1021 b 414 975 390 1021 417 1006 l 403 719 b 361 679 403 692 388 679 b 319 719 335 679 319 692 l 308 975 b 361 1021 306 1006 332 1021 "},"#":{"ha":828,"x_min":null,"x_max":null,"o":"m 336 999 b 372 957 361 997 376 983 l 339 719 l 544 719 l 581 964 b 628 999 583 989 601 1000 b 663 957 651 997 667 983 l 629 719 l 744 719 b 781 676 769 719 781 700 b 744 635 781 654 769 635 l 617 635 l 581 371 l 699 371 b 735 328 724 371 735 351 b 699 286 735 306 724 286 l 569 286 l 535 38 b 488 4 532 14 514 1 b 451 46 463 6 447 19 l 485 286 l 278 286 l 244 38 b 196 4 240 14 222 1 b 161 46 172 6 157 19 l 194 286 l 79 286 b 43 328 54 286 43 306 b 79 371 43 351 54 371 l 206 371 l 243 635 l 124 635 b 89 676 100 635 89 654 b 124 719 89 700 100 719 l 254 719 l 289 964 b 336 999 293 989 311 1000 m 497 371 l 535 635 l 326 635 l 290 371 "},"$":{"ha":835,"x_min":null,"x_max":null,"o":"m 419 1076 b 454 1047 438 1076 454 1068 l 454 982 b 689 917 543 978 626 954 b 703 856 711 903 714 878 b 647 840 690 835 669 828 b 454 896 589 874 522 893 l 454 547 b 756 289 700 485 756 419 l 756 268 b 454 18 756 118 638 28 l 454 -64 b 419 -93 454 -85 438 -93 b 385 -64 401 -93 385 -85 l 385 17 b 101 103 281 22 178 53 b 88 167 78 117 72 144 b 149 181 101 190 125 196 b 385 103 219 135 300 107 l 385 471 b 93 725 181 517 93 586 l 93 746 b 385 982 93 869 190 969 l 385 1047 b 419 1076 385 1068 401 1076 m 385 894 b 190 746 263 885 190 829 l 190 728 b 385 564 190 644 226 606 l 385 894 m 454 104 b 658 265 588 114 658 182 l 658 281 b 454 454 658 367 629 407 l 454 104 "},"%":{"ha":1226,"x_min":null,"x_max":null,"o":"m 314 1008 b 532 767 460 1008 532 917 l 532 735 b 314 493 532 585 460 493 b 96 735 168 493 96 585 l 96 767 b 314 1008 96 917 168 1008 m 917 993 b 932 940 936 982 944 963 l 367 19 b 313 7 354 -1 332 -3 b 297 60 293 17 283 38 l 861 981 b 917 993 874 1000 897 1003 m 314 933 b 179 761 222 933 179 881 l 179 739 b 314 568 179 621 222 568 b 449 739 404 568 449 621 l 449 761 b 314 933 449 881 404 933 m 913 507 b 1131 264 1058 507 1131 415 l 1131 233 b 913 -8 1131 83 1058 -8 b 694 233 767 -8 694 83 l 694 264 b 913 507 694 415 767 507 m 913 432 b 778 260 822 432 778 379 l 778 238 b 913 67 778 118 822 67 b 1047 238 1004 67 1047 118 l 1047 260 b 913 432 1047 379 1004 432 "},"&":{"ha":913,"x_min":null,"x_max":null,"o":"m 854 75 b 850 11 875 51 869 26 b 786 15 829 -6 803 -4 l 694 119 b 378 -10 618 42 513 -10 b 53 238 204 -10 53 82 l 53 257 b 310 556 53 386 118 454 l 279 590 b 175 797 225 651 175 718 l 175 813 b 418 1008 175 925 269 1008 b 658 811 572 1008 658 911 l 658 794 b 450 533 658 707 608 622 l 690 261 b 749 488 726 328 746 407 b 794 526 749 514 771 528 b 840 485 822 525 840 511 b 751 192 838 382 807 278 l 854 75 m 269 800 b 374 619 269 742 313 689 l 393 597 b 565 799 517 665 565 726 l 565 806 b 418 924 565 869 511 924 b 269 807 324 924 269 874 l 269 800 m 383 79 b 636 185 492 79 576 121 l 368 490 b 153 254 189 393 153 338 l 153 242 b 383 79 153 146 254 79 "},"'":{"ha":324,"x_min":null,"x_max":null,"o":"m 161 1021 b 215 975 190 1021 217 1006 l 204 719 b 161 679 203 692 188 679 b 119 719 135 679 121 692 l 108 975 b 161 1021 107 1006 132 1021 "},"(":{"ha":442,"x_min":null,"x_max":null,"o":"m 342 1106 b 354 1053 361 1094 367 1072 b 197 489 249 889 197 700 l 197 446 b 354 -119 197 235 249 44 b 342 -171 367 -139 361 -160 b 285 -158 322 -182 301 -178 b 93 453 157 0 93 218 l 93 482 b 285 1093 93 717 157 935 b 342 1106 301 1113 322 1115 "},")":{"ha":442,"x_min":null,"x_max":null,"o":"m 100 1106 b 157 1093 119 1115 140 1113 b 350 482 285 935 350 717 l 350 453 b 157 -158 350 218 285 0 b 100 -171 140 -178 119 -182 b 88 -119 82 -160 76 -139 b 244 446 194 44 244 235 l 244 489 b 88 1053 244 700 194 889 b 100 1106 76 1072 82 1094 "},"*":{"ha":642,"x_min":null,"x_max":null,"o":"m 319 1035 b 364 996 346 1035 367 1019 l 350 810 l 508 914 b 563 894 526 926 551 918 b 547 839 575 872 571 847 l 374 756 l 547 675 b 563 618 571 665 575 640 b 508 600 551 596 526 588 l 351 703 l 364 519 b 319 481 367 494 346 481 b 276 519 294 481 274 494 l 289 703 l 133 600 b 78 618 114 588 90 596 b 94 675 67 640 71 665 l 267 756 l 94 839 b 78 894 71 849 67 872 b 133 914 90 918 114 926 l 289 810 l 276 996 b 319 1035 274 1019 294 1035 "},"+":{"ha":826,"x_min":null,"x_max":null,"o":"m 414 849 b 460 811 438 849 460 838 l 460 542 l 725 542 b 760 499 749 542 760 524 b 725 457 760 476 749 457 l 460 457 l 460 167 b 414 129 460 140 438 129 b 367 167 390 129 367 140 l 367 457 l 103 457 b 68 499 79 457 68 476 b 103 542 68 524 79 542 l 367 542 l 367 811 b 414 849 367 838 390 849 "},",":{"ha":321,"x_min":null,"x_max":null,"o":"m 179 119 b 222 50 215 114 235 88 l 154 -176 b 101 -210 146 -204 125 -214 b 69 -162 75 -206 65 -189 l 107 72 b 179 119 113 111 144 125 "},"-":{"ha":579,"x_min":null,"x_max":null,"o":"m 476 543 b 513 499 501 543 513 524 b 476 454 513 474 501 454 l 103 454 b 68 499 79 454 68 474 b 103 543 68 524 79 543 l 476 543 "},".":{"ha":321,"x_min":null,"x_max":null,"o":"m 160 121 b 239 42 206 121 239 86 b 160 -36 239 -1 206 -36 b 81 42 115 -36 81 -1 b 160 121 81 86 115 121 "},"/":{"ha":560,"x_min":null,"x_max":null,"o":"m 494 1108 b 525 1056 518 1101 533 1082 l 125 -149 b 65 -174 115 -176 89 -182 b 36 -122 42 -167 26 -149 l 435 1083 b 494 1108 444 1111 471 1117 "},":":{"ha":407,"x_min":null,"x_max":null,"o":"m 203 808 b 282 729 249 808 282 774 b 203 651 282 686 249 651 b 124 729 158 651 124 686 b 203 808 124 774 158 808 m 203 278 b 282 199 249 278 282 243 b 203 121 282 156 249 121 b 124 199 158 121 124 156 b 203 278 124 243 158 278 "},";":{"ha":407,"x_min":null,"x_max":null,"o":"m 203 808 b 282 729 249 808 282 774 b 203 651 282 686 249 651 b 124 729 158 651 124 686 b 203 808 124 774 158 808 m 224 276 b 267 207 260 271 279 244 l 199 -19 b 144 -53 189 -47 169 -57 b 113 -6 119 -49 108 -32 l 150 229 b 224 276 157 268 189 282 "},"<":{"ha":867,"x_min":null,"x_max":null,"o":"m 694 860 b 754 842 721 874 743 865 b 739 781 765 818 764 793 l 203 501 l 203 499 l 739 218 b 754 157 764 206 765 181 b 694 139 743 133 719 125 l 140 435 b 92 500 99 457 92 472 b 140 564 92 526 99 542 l 694 860 "},"=":{"ha":840,"x_min":null,"x_max":null,"o":"m 704 689 b 740 644 729 689 740 669 b 704 601 740 621 729 601 l 136 601 b 101 644 113 601 101 621 b 136 689 101 669 113 689 l 704 689 m 704 396 b 740 353 729 396 740 376 b 704 308 740 328 729 308 l 136 308 b 101 353 113 308 101 328 b 136 396 101 376 113 396 l 704 396 "},">":{"ha":867,"x_min":null,"x_max":null,"o":"m 726 564 b 775 500 768 542 775 526 b 726 435 775 472 768 457 l 172 139 b 113 157 147 125 124 133 b 128 218 101 181 103 206 l 664 499 l 664 501 l 128 781 b 113 842 103 793 101 818 b 172 860 124 865 146 874 l 726 564 "},"?":{"ha":726,"x_min":null,"x_max":null,"o":"m 354 1008 b 650 758 538 1008 650 910 l 650 743 b 506 500 650 650 601 586 b 379 290 392 397 379 360 b 332 251 379 265 356 251 b 282 292 306 251 282 264 b 415 540 282 386 299 436 b 549 743 517 631 549 676 l 549 754 b 356 917 549 851 478 917 b 147 833 263 917 200 882 b 85 840 126 817 101 819 b 88 904 67 860 67 886 b 354 1008 146 960 242 1008 m 331 118 b 408 40 375 118 408 83 b 331 -36 408 -3 375 -36 b 253 40 288 -36 253 -3 b 331 118 253 83 288 118 "},"@":{"ha":1372,"x_min":null,"x_max":null,"o":"m 674 1050 b 1297 460 1081 1050 1297 808 l 1297 454 b 1050 103 1297 300 1247 103 b 879 222 976 103 906 138 l 878 222 b 663 106 840 133 728 106 b 401 394 483 106 401 224 l 401 454 b 658 742 401 639 501 742 b 851 649 753 742 822 703 l 851 697 b 899 736 851 725 874 736 b 946 697 922 736 946 725 l 946 297 b 1053 182 946 219 994 182 b 1213 451 1154 182 1213 269 l 1213 456 b 674 971 1213 769 1032 971 b 160 438 369 971 160 767 l 160 429 b 700 -124 160 86 356 -124 b 1069 -47 844 -124 969 -93 b 1122 -62 1092 -37 1113 -42 b 1107 -118 1133 -85 1129 -108 b 704 -203 1004 -168 867 -203 b 75 428 315 -203 75 38 l 75 439 b 674 1050 75 792 303 1050 m 672 654 b 499 447 561 654 499 586 l 499 401 b 672 194 499 269 546 194 b 849 371 781 194 849 267 l 849 507 b 672 654 849 586 779 654 "},"A":{"ha":917,"x_min":null,"x_max":null,"o":"m 460 999 b 521 954 488 999 508 988 l 865 65 b 836 4 876 36 863 13 b 769 31 808 -6 781 0 l 665 307 l 249 307 l 143 29 b 78 4 132 0 106 -6 b 51 64 53 13 40 35 l 397 954 b 460 999 410 988 432 999 m 458 878 b 386 671 439 811 417 749 l 281 393 l 635 393 l 532 671 b 458 878 503 746 478 815 "},"B":{"ha":889,"x_min":null,"x_max":null,"o":"m 467 993 b 776 749 678 993 776 914 l 776 726 b 614 525 776 638 733 554 b 822 297 743 507 822 438 l 822 269 b 513 6 822 104 728 6 l 221 6 b 128 97 151 6 128 28 l 128 901 b 221 993 128 971 151 993 l 467 993 m 453 565 b 674 728 599 565 674 611 l 674 746 b 446 906 674 853 611 906 l 228 906 l 228 565 m 485 93 b 718 276 642 93 718 143 l 718 300 b 456 479 718 417 651 479 l 228 479 l 228 93 "},"C":{"ha":896,"x_min":null,"x_max":null,"o":"m 488 1008 b 772 935 611 1008 703 979 b 783 868 796 918 799 892 b 722 854 769 847 746 839 b 485 914 657 894 592 914 b 192 526 288 914 192 783 l 192 472 b 488 86 192 218 285 86 b 749 167 599 86 681 114 b 813 156 769 182 796 178 b 803 85 831 132 828 103 b 486 -10 728 26 625 -10 b 89 461 222 -10 89 153 l 89 538 b 488 1008 89 847 224 1008 "},"D":{"ha":949,"x_min":null,"x_max":null,"o":"m 444 993 b 861 551 722 993 861 842 l 861 447 b 444 6 861 157 710 6 l 221 6 b 128 97 151 6 128 28 l 128 901 b 221 993 128 971 151 993 l 444 993 m 435 94 b 758 453 646 94 758 214 l 758 542 b 433 904 758 783 664 904 l 229 904 l 229 94 "},"E":{"ha":840,"x_min":null,"x_max":null,"o":"m 703 993 b 739 949 728 993 739 974 b 703 906 739 925 728 906 l 229 906 l 229 556 l 675 556 b 710 513 699 556 710 536 b 675 469 710 489 699 469 l 229 469 l 229 93 l 713 93 b 749 50 738 93 749 74 b 713 6 749 25 738 6 l 221 6 b 128 97 151 6 128 28 l 128 901 b 221 993 128 971 151 993 l 703 993 "},"F":{"ha":799,"x_min":null,"x_max":null,"o":"m 693 993 b 729 949 718 993 729 974 b 693 904 729 924 718 904 l 229 904 l 229 539 l 664 539 b 700 496 689 539 700 519 b 664 451 700 471 689 451 l 229 451 l 229 42 b 178 0 229 13 206 0 b 128 42 151 0 128 13 l 128 901 b 221 993 128 971 151 993 l 693 993 "},"G":{"ha":935,"x_min":null,"x_max":null,"o":"m 503 1008 b 790 935 631 1008 722 979 b 803 868 815 918 818 892 b 742 854 788 846 764 840 b 503 915 678 893 610 915 b 192 526 285 915 192 789 l 192 472 b 506 83 192 208 285 83 b 740 135 604 83 681 100 l 740 446 l 521 446 b 485 490 496 446 485 465 b 521 535 485 514 496 535 l 744 535 b 840 442 817 535 840 513 l 840 147 b 781 46 840 93 825 67 b 503 -10 718 14 624 -10 b 89 461 225 -10 89 147 l 89 538 b 503 1008 89 851 224 1008 "},"H":{"ha":972,"x_min":null,"x_max":null,"o":"m 178 999 b 229 957 206 999 229 986 l 229 567 l 743 567 l 743 957 b 793 999 743 986 767 999 b 844 957 821 999 844 986 l 844 42 b 793 0 844 13 821 0 b 743 42 767 0 743 13 l 743 479 l 229 479 l 229 42 b 178 0 229 13 206 0 b 128 42 151 0 128 13 l 128 957 b 178 999 128 986 151 999 "},"I":{"ha":357,"x_min":null,"x_max":null,"o":"m 178 999 b 229 957 206 999 229 986 l 229 42 b 178 0 229 13 206 0 b 128 42 151 0 128 13 l 128 957 b 178 999 128 986 151 999 "},"J":{"ha":651,"x_min":null,"x_max":null,"o":"m 474 999 b 525 957 501 999 525 986 l 525 267 b 257 -10 525 79 431 -10 b 54 47 179 -10 106 13 b 43 113 32 61 29 89 b 104 129 57 135 79 143 b 256 85 149 101 196 85 b 424 285 369 85 424 144 l 424 957 b 474 999 424 986 447 999 "},"K":{"ha":906,"x_min":null,"x_max":null,"o":"m 178 999 b 229 957 206 999 229 986 l 229 482 l 715 985 b 782 985 735 1006 765 1001 b 786 919 800 967 806 940 l 436 564 l 819 79 b 811 11 840 54 833 29 b 742 21 789 -6 761 -4 l 367 497 l 229 358 l 229 42 b 178 0 229 13 206 0 b 128 42 151 0 128 13 l 128 957 b 178 999 128 986 151 999 "},"L":{"ha":765,"x_min":null,"x_max":null,"o":"m 178 999 b 229 957 206 999 229 986 l 229 94 l 694 94 b 732 50 721 94 732 75 b 694 6 732 25 721 6 l 221 6 b 128 97 151 6 128 28 l 128 957 b 178 999 128 986 151 999 "},"M":{"ha":1179,"x_min":null,"x_max":null,"o":"m 207 994 b 290 925 247 994 264 983 l 593 286 l 889 924 b 972 994 913 982 932 994 l 983 994 b 1051 913 1033 994 1051 972 l 1051 40 b 1003 0 1051 13 1029 0 b 956 40 978 0 956 13 l 956 878 b 890 721 933 815 914 772 l 649 206 b 592 165 635 175 618 165 b 532 207 561 165 546 175 l 290 721 b 224 878 267 771 247 815 l 224 40 b 175 0 224 13 201 0 b 128 40 151 0 128 13 l 128 913 b 196 994 128 972 146 994 l 207 994 "},"N":{"ha":972,"x_min":null,"x_max":null,"o":"m 796 999 b 844 958 821 999 844 986 l 844 92 b 769 4 844 26 821 4 b 679 75 732 4 714 14 l 272 767 b 224 872 254 797 236 833 l 224 40 b 175 0 224 13 200 0 b 128 40 151 0 128 13 l 128 907 b 203 994 128 972 151 994 b 293 924 240 994 257 985 l 700 232 b 749 126 718 201 735 165 l 749 958 b 796 999 749 986 772 999 "},"O":{"ha":978,"x_min":null,"x_max":null,"o":"m 489 1008 b 889 538 754 1008 889 847 l 889 461 b 489 -10 889 151 754 -10 b 89 461 224 -10 89 151 l 89 538 b 489 1008 89 847 224 1008 m 489 915 b 192 526 285 915 192 789 l 192 472 b 489 83 192 210 285 83 b 786 472 693 83 786 210 l 786 526 b 489 915 786 789 693 915 "},"P":{"ha":847,"x_min":null,"x_max":null,"o":"m 461 993 b 790 708 682 993 790 886 l 790 686 b 458 396 790 507 676 396 l 229 396 l 229 42 b 178 0 229 13 206 0 b 128 42 151 0 128 13 l 128 901 b 221 993 128 971 151 993 l 461 993 m 446 485 b 689 689 618 485 689 557 l 689 707 b 458 904 689 833 618 904 l 229 904 l 229 485 "},"Q":{"ha":975,"x_min":null,"x_max":null,"o":"m 489 1008 b 889 538 754 1008 889 847 l 889 461 b 793 115 889 310 856 193 l 888 19 b 885 -40 906 1 901 -22 b 826 -43 868 -57 844 -61 l 728 56 b 489 -10 668 15 590 -10 b 89 461 224 -10 89 151 l 89 538 b 489 1008 89 847 224 1008 m 489 915 b 192 526 285 915 192 789 l 192 472 b 489 83 192 210 285 83 b 654 129 558 83 614 100 l 535 247 b 539 307 517 265 522 290 b 597 311 556 324 579 329 l 719 188 b 786 472 765 253 786 347 l 786 526 b 489 915 786 789 693 915 "},"R":{"ha":888,"x_min":null,"x_max":null,"o":"m 457 993 b 785 726 660 993 785 907 l 785 701 b 599 447 785 569 717 483 l 792 69 b 769 7 806 42 796 19 b 703 25 743 -7 717 -1 l 500 431 b 440 426 481 428 461 426 l 229 426 l 229 42 b 178 0 229 13 206 0 b 128 42 151 0 128 13 l 128 901 b 221 993 128 971 151 993 l 457 993 m 438 515 b 683 704 608 515 683 581 l 683 722 b 450 904 683 844 608 904 l 229 904 l 229 515 "},"S":{"ha":846,"x_min":null,"x_max":null,"o":"m 431 1008 b 697 946 539 1008 632 985 b 714 882 721 932 728 906 b 654 864 700 858 678 853 b 432 917 594 897 518 917 b 204 753 297 917 204 847 l 204 735 b 435 558 204 639 260 596 b 767 282 692 503 767 433 l 767 257 b 424 -10 767 97 636 -10 b 111 78 301 -10 190 26 b 97 146 86 94 83 121 b 160 161 113 169 136 176 b 428 82 236 113 322 82 b 665 251 574 82 665 156 l 665 272 b 406 465 665 381 613 419 b 103 729 203 508 103 569 l 103 753 b 431 1008 103 904 233 1008 "},"T":{"ha":813,"x_min":null,"x_max":null,"o":"m 749 993 b 785 949 774 993 785 974 b 749 904 785 924 774 904 l 457 904 l 457 42 b 406 0 457 13 433 0 b 356 42 379 0 356 13 l 356 904 l 64 904 b 28 949 39 904 28 924 b 64 993 28 974 39 993 l 749 993 "},"U":{"ha":956,"x_min":null,"x_max":null,"o":"m 165 999 b 218 957 193 999 218 986 l 218 403 b 478 85 218 183 294 85 b 738 403 661 85 738 183 l 738 957 b 790 999 738 986 763 999 b 840 957 815 999 840 986 l 840 404 b 478 -10 840 108 721 -10 b 115 404 235 -10 115 108 l 115 957 b 165 999 115 986 140 999 "},"V":{"ha":913,"x_min":null,"x_max":null,"o":"m 828 994 b 857 935 853 986 868 965 l 519 44 b 456 0 506 11 483 0 b 392 44 428 0 404 11 l 56 933 b 86 994 44 965 60 985 b 153 969 114 1004 142 999 l 457 132 l 763 968 b 828 994 774 997 799 1004 "},"W":{"ha":1356,"x_min":null,"x_max":null,"o":"m 679 999 b 744 947 708 999 735 983 l 971 149 l 1194 963 b 1254 997 1201 992 1226 1003 b 1288 940 1282 990 1296 971 l 1036 51 b 971 0 1026 15 999 0 b 904 51 942 0 915 15 l 679 863 l 451 51 b 385 0 440 15 413 0 b 318 51 356 0 329 15 l 69 936 b 106 996 60 969 75 989 b 167 964 133 1003 158 997 l 388 147 l 614 947 b 679 999 625 983 649 999 "},"X":{"ha":885,"x_min":null,"x_max":null,"o":"m 775 990 b 790 925 799 976 808 951 l 511 514 l 806 76 b 793 8 824 49 817 24 b 721 24 768 -6 739 -3 l 444 446 l 160 25 b 92 8 143 -1 115 -7 b 78 74 69 22 60 47 l 383 515 l 97 922 b 114 990 79 950 89 976 b 188 974 140 1006 169 1000 l 451 583 l 708 974 b 775 990 725 1000 751 1006 "},"Y":{"ha":857,"x_min":null,"x_max":null,"o":"m 768 993 b 789 931 793 981 806 958 l 482 408 l 482 42 b 431 0 482 13 458 0 b 381 42 404 0 381 13 l 381 408 l 71 928 b 88 992 54 954 63 976 b 156 974 111 1004 140 1001 l 433 501 l 703 974 b 768 993 718 1000 743 1004 "},"Z":{"ha":858,"x_min":null,"x_max":null,"o":"m 699 993 b 774 939 754 993 774 976 b 735 864 774 921 769 910 l 174 94 l 767 94 b 803 50 792 94 803 75 b 767 6 803 25 792 6 l 125 6 b 47 61 68 6 47 22 b 93 147 47 81 51 93 l 644 904 l 115 904 b 78 949 89 904 78 924 b 115 993 78 974 89 993 l 699 993 "},"[":{"ha":501,"x_min":null,"x_max":null,"o":"m 414 1106 b 450 1061 439 1106 450 1086 b 414 1018 450 1038 439 1018 l 218 1018 l 218 -83 l 414 -83 b 450 -128 439 -83 450 -103 b 414 -171 450 -151 439 -171 l 213 -171 b 118 -81 142 -171 118 -149 l 118 1014 b 213 1106 118 1083 142 1106 l 414 1106 "},"\\":{"ha":1318,"x_min":null,"x_max":null,"o":"m 668 999 b 726 947 696 999 718 983 l 819 576 l 1029 576 l 1124 963 b 1179 997 1131 993 1154 1003 b 1213 940 1206 990 1221 972 l 1119 576 l 1251 576 b 1279 542 1271 576 1279 561 b 1251 508 1279 524 1271 508 l 1104 508 l 988 51 b 928 0 979 15 953 0 b 869 51 903 0 878 15 l 756 508 l 578 508 l 463 51 b 403 0 454 15 429 0 b 343 51 378 0 351 15 l 228 508 l 82 508 b 54 542 63 508 54 524 b 82 576 54 561 63 576 l 210 576 l 118 940 b 153 997 111 972 126 990 b 208 963 178 1003 201 994 l 301 576 l 514 576 l 610 947 b 668 999 618 983 640 999 m 739 576 l 668 863 l 594 576 m 497 508 l 318 508 l 406 149 m 1014 508 l 836 508 l 926 150 "},"]":{"ha":501,"x_min":null,"x_max":null,"o":"m 290 1106 b 383 1014 360 1106 383 1083 l 383 -81 b 290 -171 383 -149 360 -171 l 88 -171 b 51 -126 63 -171 51 -151 b 88 -83 51 -103 63 -83 l 285 -83 l 285 1018 l 88 1018 b 51 1063 63 1018 51 1038 b 88 1106 51 1086 63 1106 l 290 1106 "},"^":{"ha":735,"x_min":null,"x_max":null,"o":"m 368 1025 b 438 975 400 1025 417 1013 l 635 626 b 617 571 649 601 638 581 b 558 586 593 561 571 563 l 368 933 l 176 586 b 118 571 165 563 142 561 b 101 626 97 581 88 601 l 299 975 b 368 1025 319 1013 338 1025 "},"_":{"ha":674,"x_min":null,"x_max":null,"o":"m 638 -57 b 671 -97 660 -57 671 -74 b 638 -135 671 -119 660 -135 l 35 -135 b 4 -97 14 -135 4 -119 b 35 -57 4 -74 14 -57 l 638 -57 "},"`":{"ha":458,"x_min":null,"x_max":null,"o":"m 156 1056 b 226 1049 178 1074 208 1075 l 333 899 b 326 849 346 881 342 863 b 272 853 308 836 289 836 l 147 989 b 156 1056 128 1010 133 1038 "},"a":{"ha":767,"x_min":null,"x_max":null,"o":"m 382 742 b 656 503 551 742 656 650 l 656 39 b 608 0 656 11 632 0 b 561 39 585 0 561 11 l 561 107 l 560 107 b 481 29 546 78 517 49 b 329 -6 442 8 392 -6 b 81 208 176 -6 81 74 l 81 222 b 346 431 81 340 157 431 l 556 431 l 556 482 b 379 654 556 599 501 654 b 185 594 308 654 243 632 b 126 610 163 581 139 589 b 138 669 114 629 115 654 b 382 742 196 710 286 742 m 349 350 b 179 219 225 350 179 294 l 179 211 b 336 81 179 131 235 81 b 471 108 390 81 433 89 b 557 246 522 136 557 182 l 557 350 l 349 350 "},"b":{"ha":822,"x_min":null,"x_max":null,"o":"m 171 1033 b 221 992 197 1033 221 1021 l 221 622 b 449 742 261 696 353 742 b 739 397 640 742 739 624 l 739 339 b 440 -6 739 108 622 -6 b 219 100 344 -6 258 35 l 217 100 l 217 40 b 169 0 217 13 193 0 b 121 40 144 0 121 13 l 121 992 b 171 1033 121 1021 146 1033 m 433 654 b 219 444 324 654 219 574 l 219 253 b 435 82 219 164 307 82 b 640 346 561 82 640 163 l 640 392 b 433 654 640 569 575 654 "},"c":{"ha":719,"x_min":null,"x_max":null,"o":"m 399 742 b 624 683 496 742 571 717 b 635 621 646 669 649 642 b 576 607 622 600 600 593 b 399 653 529 636 469 653 b 183 393 267 653 183 574 l 183 344 b 401 83 183 165 268 83 b 597 138 482 83 544 103 b 656 124 621 151 643 144 b 644 60 671 101 668 76 b 400 -6 586 21 506 -6 b 83 339 206 -6 83 108 l 83 397 b 399 742 83 628 206 742 "},"d":{"ha":822,"x_min":null,"x_max":null,"o":"m 651 1033 b 701 992 678 1033 701 1021 l 701 40 b 653 0 701 13 678 0 b 606 40 629 0 606 13 l 606 118 l 603 118 b 372 -6 565 43 478 -6 b 83 339 183 -6 83 113 l 83 397 b 382 742 83 629 200 742 b 601 643 485 742 567 700 l 601 992 b 651 1033 601 1021 626 1033 m 390 654 b 182 392 261 654 182 574 l 182 344 b 388 82 182 165 249 82 b 603 294 497 82 603 164 l 603 486 b 390 654 603 572 521 654 "},"e":{"ha":788,"x_min":null,"x_max":null,"o":"m 397 742 b 706 414 588 742 706 622 l 706 411 b 625 335 706 357 683 335 l 182 335 l 182 328 b 408 81 182 163 265 81 b 617 133 494 81 558 99 b 674 117 640 146 663 139 b 658 57 685 94 681 71 b 403 -6 596 19 511 -6 b 83 339 206 -6 83 110 l 83 397 b 397 742 83 625 207 742 m 397 657 b 182 421 264 657 182 571 l 182 414 l 608 414 l 608 425 b 397 657 608 572 532 657 "},"f":{"ha":517,"x_min":null,"x_max":null,"o":"m 375 1036 b 464 1022 407 1036 438 1032 b 492 974 488 1014 497 997 b 447 942 486 950 471 938 b 382 950 424 949 407 950 b 265 815 300 950 265 906 l 265 726 l 440 726 b 475 686 464 726 475 708 b 440 644 475 663 464 644 l 265 644 l 265 42 b 215 0 265 13 242 0 b 165 42 190 0 165 13 l 165 644 l 68 644 b 33 686 44 644 33 663 b 68 726 33 708 44 726 l 165 726 l 165 818 b 375 1036 165 963 238 1036 "},"g":{"ha":822,"x_min":null,"x_max":null,"o":"m 382 742 b 603 642 485 742 568 700 l 604 642 l 604 692 b 653 732 604 719 628 732 b 701 692 678 732 701 719 l 701 28 b 396 -279 701 -186 585 -279 b 172 -219 303 -279 229 -256 b 160 -156 149 -206 146 -176 b 218 -139 174 -133 194 -126 b 394 -192 267 -171 326 -192 b 603 28 525 -192 603 -126 l 603 138 l 600 138 b 372 14 563 61 478 14 b 83 353 183 14 83 132 l 83 403 b 382 742 83 629 200 742 m 390 654 b 182 397 261 654 182 574 l 182 358 b 388 101 182 185 249 101 b 603 314 497 101 603 183 l 603 485 b 390 654 603 572 522 654 "},"h":{"ha":829,"x_min":null,"x_max":null,"o":"m 169 1033 b 218 993 194 1033 218 1021 l 218 621 l 219 621 b 456 742 247 678 332 742 b 717 483 624 742 717 642 l 717 42 b 665 0 717 13 692 0 b 617 42 640 0 617 13 l 617 460 b 431 653 617 593 557 653 b 221 463 300 653 221 554 l 221 42 b 171 0 221 13 197 0 b 121 42 146 0 121 13 l 121 993 b 169 1033 121 1021 144 1033 "},"i":{"ha":349,"x_min":null,"x_max":null,"o":"m 174 996 b 247 924 215 996 247 964 b 174 853 247 885 215 853 b 100 924 132 853 100 885 b 174 996 100 964 132 996 m 174 732 b 224 690 200 732 224 719 l 224 42 b 174 0 224 13 200 0 b 124 42 149 0 124 13 l 124 690 b 174 732 124 719 149 732 "},"j":{"ha":357,"x_min":null,"x_max":null,"o":"m 182 996 b 256 924 224 996 256 964 b 182 853 256 885 224 853 b 108 924 140 853 108 885 b 182 996 108 964 140 996 m 182 732 b 232 690 208 732 232 719 l 232 -47 b 33 -271 232 -219 160 -271 b -72 -251 -7 -271 -46 -264 b -94 -196 -94 -240 -103 -219 b -44 -171 -85 -171 -65 -164 b 28 -185 -22 -181 1 -185 b 132 -49 104 -185 132 -153 l 132 690 b 182 732 132 719 157 732 "},"k":{"ha":760,"x_min":null,"x_max":null,"o":"m 171 1033 b 221 992 197 1033 221 1021 l 221 378 l 582 718 b 650 717 603 738 633 736 b 647 651 667 699 671 671 l 413 438 l 692 78 b 683 13 711 56 703 29 b 615 18 663 -4 635 -6 l 342 374 l 221 264 l 221 42 b 171 0 221 13 197 0 b 121 42 146 0 121 13 l 121 992 b 171 1033 121 1021 146 1033 "},"l":{"ha":342,"x_min":null,"x_max":null,"o":"m 171 1033 b 221 992 197 1033 221 1021 l 221 42 b 171 0 221 13 197 0 b 121 42 144 0 121 13 l 121 992 b 171 1033 121 1021 144 1033 "},"m":{"ha":1251,"x_min":null,"x_max":null,"o":"m 436 742 b 651 608 554 742 625 686 b 892 742 694 685 771 742 b 1139 482 1058 742 1139 631 l 1139 42 b 1088 0 1139 13 1114 0 b 1039 42 1063 0 1039 13 l 1039 458 b 869 653 1039 589 988 653 b 679 468 744 653 679 556 l 679 42 b 629 0 679 13 656 0 b 579 42 604 0 579 13 l 579 458 b 408 653 579 588 531 653 b 221 469 281 653 221 551 l 221 42 b 171 0 221 13 197 0 b 121 42 146 0 121 13 l 121 692 b 168 732 121 719 144 732 b 217 692 193 732 217 719 l 217 617 b 436 742 250 681 319 742 "},"n":{"ha":829,"x_min":null,"x_max":null,"o":"m 456 742 b 717 483 624 742 717 642 l 717 42 b 665 0 717 13 692 0 b 617 42 640 0 617 13 l 617 460 b 431 653 617 593 557 653 b 221 463 300 653 221 554 l 221 42 b 171 0 221 13 197 0 b 121 42 146 0 121 13 l 121 692 b 169 732 121 719 144 732 b 217 692 193 732 217 719 l 217 621 l 219 621 b 456 742 246 676 332 742 "},"o":{"ha":818,"x_min":null,"x_max":null,"o":"m 410 742 b 735 397 610 742 735 624 l 735 339 b 410 -6 735 113 610 -6 b 83 339 208 -6 83 113 l 83 397 b 410 742 83 624 208 742 m 410 653 b 183 392 267 653 183 572 l 183 344 b 410 83 183 164 267 83 b 635 344 551 83 635 164 l 635 392 b 410 653 635 572 551 653 "},"p":{"ha":822,"x_min":null,"x_max":null,"o":"m 449 742 b 739 397 640 742 739 624 l 739 339 b 440 -6 739 108 622 -6 b 221 96 347 -6 261 32 l 221 -228 b 171 -269 221 -257 197 -269 b 121 -228 146 -269 121 -257 l 121 692 b 169 732 121 719 144 732 b 218 692 194 732 218 719 l 218 617 b 449 742 260 694 349 742 m 433 654 b 219 444 324 654 219 574 l 219 253 b 435 82 219 164 307 82 b 640 346 561 82 640 163 l 640 392 b 433 654 640 569 575 654 "},"q":{"ha":822,"x_min":null,"x_max":null,"o":"m 382 742 b 603 643 483 742 567 700 l 604 643 l 604 692 b 653 732 604 719 628 732 b 701 692 678 732 701 719 l 701 -229 b 653 -269 701 -257 676 -269 b 603 -229 626 -269 603 -257 l 603 118 l 600 118 b 372 -6 563 42 478 -6 b 83 339 183 -6 83 113 l 83 397 b 382 742 83 629 200 742 m 390 654 b 182 392 261 654 182 574 l 182 344 b 388 82 182 165 249 82 b 603 294 497 82 603 164 l 603 486 b 390 654 603 572 521 654 "},"r":{"ha":563,"x_min":null,"x_max":null,"o":"m 429 742 b 510 729 461 742 488 738 b 532 675 532 719 539 700 b 481 636 525 646 506 631 b 410 646 460 640 435 646 b 221 407 290 646 221 544 l 221 42 b 171 0 221 13 197 0 b 121 42 146 0 121 13 l 121 692 b 169 732 121 719 144 732 b 218 692 194 732 218 719 l 218 594 l 219 594 b 429 742 246 665 318 742 "},"s":{"ha":707,"x_min":null,"x_max":null,"o":"m 361 742 b 585 689 454 742 531 721 b 601 628 608 675 614 651 b 547 611 590 607 571 599 b 364 657 497 639 436 657 b 189 549 242 657 189 610 l 189 544 b 374 424 189 481 226 451 b 639 206 579 385 639 335 l 639 197 b 358 -6 639 82 532 -6 b 97 64 251 -6 156 26 b 82 125 74 79 71 104 b 143 142 96 149 118 157 b 358 81 197 108 276 81 b 540 199 479 81 540 131 l 540 203 b 336 336 540 278 514 303 b 90 540 167 368 90 424 l 90 550 b 361 742 90 653 176 742 "},"t":{"ha":542,"x_min":null,"x_max":null,"o":"m 214 925 b 265 883 240 925 265 913 l 265 726 l 442 726 b 475 686 464 726 475 708 b 442 644 475 663 464 644 l 265 644 l 265 219 b 367 81 265 113 290 81 b 439 94 393 81 417 85 b 489 69 460 101 479 94 b 467 14 497 46 489 25 b 361 -6 440 1 401 -6 b 165 211 228 -6 165 51 l 165 644 l 68 644 b 33 686 44 644 33 663 b 68 726 33 708 44 726 l 165 726 l 165 883 b 214 925 165 913 189 925 "},"u":{"ha":826,"x_min":null,"x_max":null,"o":"m 164 732 b 213 690 189 732 213 719 l 213 276 b 390 83 213 143 272 83 b 606 268 525 83 606 185 l 606 690 b 656 732 606 719 629 732 b 706 690 681 732 706 719 l 706 40 b 657 0 706 13 682 0 b 608 40 632 0 608 13 l 608 114 l 607 114 b 375 -6 579 57 486 -6 b 113 253 203 -6 113 92 l 113 690 b 164 732 113 719 138 732 "},"v":{"ha":711,"x_min":null,"x_max":null,"o":"m 71 728 b 135 704 96 736 125 733 l 358 117 l 360 117 l 579 704 b 642 728 590 733 618 736 b 669 668 664 718 682 699 l 425 49 b 357 0 411 14 386 0 b 289 47 328 0 303 13 l 42 668 b 71 728 29 699 49 718 "},"w":{"ha":1068,"x_min":null,"x_max":null,"o":"m 536 732 b 596 685 565 732 588 717 l 771 113 l 774 113 l 925 696 b 985 731 933 729 957 736 b 1018 672 1013 724 1026 703 l 843 53 b 775 0 833 17 811 0 b 707 53 739 0 717 17 l 538 601 l 533 601 l 365 51 b 297 0 356 17 332 0 b 228 51 260 0 238 17 l 50 671 b 85 731 42 701 56 724 b 147 694 114 736 140 729 l 300 113 l 303 113 l 475 683 b 536 732 483 717 507 732 "},"x":{"ha":708,"x_min":null,"x_max":null,"o":"m 93 722 b 164 710 114 738 144 736 l 358 440 l 550 710 b 619 721 569 736 597 738 b 629 657 640 706 647 682 l 419 375 l 644 78 b 635 10 664 53 658 28 b 564 22 614 -6 583 -4 l 354 308 l 142 22 b 74 11 122 -4 96 -6 b 64 75 53 26 44 50 l 293 372 l 83 654 b 93 722 64 679 71 704 "},"y":{"ha":718,"x_min":null,"x_max":null,"o":"m 640 728 b 671 671 665 721 681 699 l 310 -249 b 247 -269 300 -274 272 -279 b 219 -214 224 -260 210 -240 l 311 10 l 47 668 b 78 728 36 697 54 718 b 142 704 103 736 132 733 l 361 125 l 363 125 l 579 703 b 640 728 589 732 617 736 "},"z":{"ha":699,"x_min":null,"x_max":null,"o":"m 553 726 b 622 676 604 726 622 711 b 585 606 622 657 618 646 l 178 90 l 611 90 b 646 49 635 90 646 71 b 611 6 646 24 635 6 l 119 6 b 51 50 69 6 51 21 b 90 122 51 68 56 79 l 500 642 l 110 642 b 75 685 86 642 75 660 b 110 726 75 707 86 726 l 553 726 "},"{":{"ha":590,"x_min":null,"x_max":null,"o":"m 503 1106 b 538 1061 526 1106 538 1086 b 503 1018 538 1038 526 1018 l 414 1018 b 303 901 328 1018 303 983 l 303 647 b 178 482 303 576 275 504 b 303 317 275 460 303 388 l 303 29 b 414 -83 303 -53 329 -83 l 503 -83 b 538 -126 526 -83 538 -103 b 503 -171 538 -151 526 -171 l 404 -171 b 204 11 274 -171 204 -115 l 204 322 b 83 435 204 396 158 428 b 43 482 54 438 43 456 b 83 531 43 510 54 528 b 204 643 158 536 204 569 l 204 919 b 404 1106 204 1046 274 1106 l 503 1106 "},"|":{"ha":397,"x_min":null,"x_max":null,"o":"m 199 1111 b 247 1069 225 1111 247 1099 l 247 -135 b 199 -176 247 -164 225 -176 b 150 -135 174 -176 150 -164 l 150 1069 b 199 1111 150 1099 174 1111 "},"}":{"ha":590,"x_min":null,"x_max":null,"o":"m 186 1106 b 386 919 315 1106 386 1046 l 386 643 b 507 531 386 569 432 536 b 546 482 536 528 546 510 b 507 435 546 456 536 438 b 386 322 432 428 386 396 l 386 11 b 186 -171 386 -115 315 -171 l 88 -171 b 51 -126 63 -171 51 -151 b 88 -83 51 -103 63 -83 l 176 -83 b 286 29 261 -83 286 -53 l 286 317 b 411 482 286 388 314 460 b 286 647 314 504 286 576 l 286 901 b 176 1018 286 983 263 1018 l 88 1018 b 51 1061 63 1018 51 1038 b 88 1106 51 1086 63 1106 l 186 1106 "},"~":{"ha":840,"x_min":null,"x_max":null,"o":"m 714 621 b 749 572 739 617 753 600 b 553 382 731 468 665 382 b 288 526 422 382 385 526 b 181 406 228 526 194 474 b 128 376 175 379 153 371 b 94 425 106 381 89 397 b 286 615 114 528 181 615 b 553 471 422 615 461 471 b 661 590 618 471 650 524 b 714 621 667 617 689 626 "}," ":{"ha":347,"x_min":null,"x_max":null,"o":""},"¡":{"ha":396,"x_min":null,"x_max":null,"o":"m 199 808 b 276 731 242 808 276 774 b 199 654 276 688 242 654 b 121 731 154 654 121 688 b 199 808 121 774 154 808 m 199 517 b 242 474 222 517 242 506 l 253 -187 b 199 -236 254 -221 231 -236 b 143 -187 165 -236 143 -221 l 154 474 b 199 517 156 506 174 517 "},"¢":{"ha":694,"x_min":null,"x_max":null,"o":"m 407 879 b 443 849 426 879 443 869 l 443 740 b 624 683 518 735 578 711 b 635 621 646 669 649 642 b 576 607 622 600 600 593 b 443 650 540 629 494 646 l 443 86 b 597 138 507 92 554 108 b 656 124 621 151 643 144 b 644 60 671 101 668 76 b 443 -4 594 26 528 1 l 443 -112 b 407 -143 443 -133 426 -143 b 371 -112 389 -143 371 -133 l 371 -6 b 83 339 193 6 83 119 l 83 397 b 371 740 83 617 194 731 l 371 849 b 407 879 371 869 389 879 m 371 651 b 183 393 256 642 183 560 l 183 344 b 371 85 183 179 256 96 l 371 651 "},"£":{"ha":786,"x_min":null,"x_max":null,"o":"m 493 1008 b 667 974 563 1008 625 994 b 685 915 690 963 696 940 b 629 893 674 890 654 883 b 501 915 592 907 550 915 b 314 708 382 915 314 851 l 314 560 l 560 560 b 596 517 585 560 596 540 b 560 472 596 492 585 472 l 314 472 l 314 324 b 239 96 314 193 289 132 l 239 94 l 703 94 b 740 50 729 94 740 75 b 703 6 740 25 729 6 l 138 6 b 100 49 111 6 100 25 b 135 104 100 68 111 85 b 213 326 194 150 213 210 l 213 472 l 113 472 b 76 517 88 472 76 492 b 113 560 76 540 88 560 l 213 560 l 213 713 b 493 1008 213 911 317 1008 "},"¤":{"ha":833,"x_min":null,"x_max":null,"o":"m 672 811 b 731 807 689 829 713 825 b 735 749 749 789 753 765 l 633 650 b 683 496 664 608 683 553 b 633 342 683 438 665 385 l 735 243 b 731 185 753 226 749 203 b 672 181 713 167 689 163 l 574 281 b 417 231 531 250 475 231 b 260 281 357 231 304 249 l 161 181 b 103 185 144 163 121 167 b 99 243 85 203 81 226 l 199 342 b 150 496 168 385 150 438 b 199 650 150 553 168 606 l 99 749 b 103 807 81 765 85 789 b 161 811 121 825 144 829 l 260 711 b 417 761 303 742 357 761 b 574 710 475 761 532 742 l 672 811 m 417 681 b 236 496 315 681 236 599 b 417 311 236 393 315 311 b 597 496 518 311 597 393 b 417 681 597 599 518 681 "},"¥":{"ha":818,"x_min":null,"x_max":null,"o":"m 733 993 b 754 931 758 981 771 958 l 499 481 l 676 481 b 706 444 696 481 706 467 b 676 411 706 425 696 411 l 461 411 l 461 292 l 676 292 b 706 257 696 292 706 278 b 676 224 706 238 696 224 l 461 224 l 461 42 b 410 0 461 13 438 0 b 360 42 385 0 360 13 l 360 224 l 150 224 b 122 257 131 224 122 238 b 150 292 122 278 131 292 l 360 292 l 360 411 l 150 411 b 122 444 131 411 122 425 b 150 481 122 467 131 481 l 321 481 l 64 928 b 82 992 49 954 57 976 b 149 974 106 1004 133 1001 l 413 500 l 668 974 b 733 993 682 1000 708 1004 "},"§":{"ha":740,"x_min":null,"x_max":null,"o":"m 392 1008 b 607 956 479 1008 556 986 b 625 893 632 940 638 917 b 569 875 614 872 593 864 b 392 921 524 901 463 921 b 221 782 279 921 221 864 l 221 772 b 451 597 221 692 260 644 b 697 364 626 553 697 478 l 697 346 b 546 150 697 254 635 182 b 638 -26 613 107 638 50 l 638 -46 b 365 -271 638 -172 544 -271 b 136 -210 274 -271 188 -244 b 118 -147 111 -193 106 -171 b 176 -129 131 -126 153 -117 b 367 -182 224 -158 288 -182 b 538 -44 478 -182 538 -126 l 538 -35 b 306 140 538 46 497 93 b 60 374 131 185 60 260 l 60 392 b 211 588 60 482 122 556 b 119 764 146 631 119 688 l 119 783 b 392 1008 119 910 213 1008 m 300 544 b 161 397 221 524 161 468 l 161 388 b 349 226 161 315 204 264 b 456 193 390 215 424 206 b 596 340 536 215 596 268 l 596 350 b 408 511 596 422 553 474 b 300 544 368 521 332 533 "},"¨":{"ha":521,"x_min":null,"x_max":null,"o":"m 144 988 b 211 921 183 988 211 958 b 144 854 211 883 183 854 b 78 921 106 854 78 883 b 144 988 78 958 106 988 m 376 988 b 443 921 415 988 443 958 b 376 854 443 883 415 854 b 308 921 338 854 308 883 b 376 988 308 958 338 988 "},"©":{"ha":1181,"x_min":null,"x_max":null,"o":"m 589 1003 b 1094 499 897 1003 1094 781 b 589 -6 1094 218 897 -6 b 86 499 285 -6 86 218 b 589 1003 86 781 285 1003 m 589 925 b 168 499 340 925 168 743 b 589 72 168 256 340 72 b 1013 499 842 72 1013 256 b 589 925 1013 743 840 925 m 599 763 b 757 721 665 763 721 744 b 765 671 774 710 778 689 b 718 658 756 654 736 647 b 599 690 686 679 644 690 b 456 517 510 690 456 638 l 456 483 b 600 308 456 364 510 308 b 732 344 654 308 697 321 b 779 333 750 357 768 351 b 771 282 792 315 789 296 b 600 236 728 253 669 236 b 378 481 463 236 378 318 l 378 519 b 599 763 378 682 464 763 "},"ª":{"ha":618,"x_min":null,"x_max":null,"o":"m 317 1039 b 543 843 454 1039 543 968 l 543 453 b 500 419 543 429 519 419 b 456 453 478 419 457 429 l 456 501 l 454 501 b 386 438 443 476 419 454 b 267 414 354 422 310 414 b 72 592 150 414 72 479 l 72 611 b 289 782 72 714 142 782 l 451 782 l 451 825 b 314 956 451 913 407 956 b 158 907 257 956 208 938 b 107 922 138 894 119 903 b 117 978 96 940 97 963 b 317 1039 171 1014 240 1039 m 293 707 b 164 604 197 707 164 667 l 164 594 b 282 493 164 524 222 493 b 390 521 324 493 363 506 b 451 617 429 543 451 576 l 451 707 l 293 707 "},"«":{"ha":1264,"x_min":null,"x_max":null,"o":"m 229 492 l 842 89 l 797 19 l 131 461 l 131 524 l 788 979 l 836 911 m 521 493 l 1133 93 l 1092 25 l 422 461 l 422 524 l 1081 972 l 1129 907 "},"¬":{"ha":1264,"x_min":null,"x_max":null,"o":"m 1226 106 l 1154 106 l 1154 467 l 38 467 l 38 535 l 1226 535 "},"­":{"ha":572,"x_min":null,"x_max":null,"o":"m 538 540 b 572 497 561 540 572 524 b 538 457 572 475 561 457 l 35 457 b 0 497 11 457 0 475 b 35 540 0 524 11 540 l 538 540 "},"°":{"ha":419,"x_min":null,"x_max":null,"o":"m 210 1017 b 371 856 307 1017 371 944 b 210 694 371 767 307 694 b 49 856 113 694 49 767 b 210 1017 49 944 113 1017 m 210 950 b 118 856 153 950 118 908 b 210 760 118 803 153 760 b 301 856 267 760 301 803 b 210 950 301 908 267 950 "},"±":{"ha":871,"x_min":null,"x_max":null,"o":"m 436 964 b 482 925 460 964 482 953 l 482 683 l 746 683 b 781 640 769 683 781 664 b 746 597 781 617 769 597 l 482 597 l 482 339 b 436 301 482 313 460 301 b 389 339 411 301 389 313 l 389 597 l 124 597 b 89 640 100 597 89 617 b 124 683 89 664 100 683 l 389 683 l 389 925 b 436 964 389 953 411 964 m 742 208 b 778 164 767 208 778 189 b 742 121 778 140 767 121 l 131 121 b 94 164 106 121 94 140 b 131 208 94 189 106 208 l 742 208 "},"²":{"ha":556,"x_min":null,"x_max":null,"o":"m 279 1147 b 463 992 400 1147 463 1081 l 463 983 b 378 811 463 921 439 876 l 193 608 l 457 608 b 488 572 478 608 488 593 b 457 536 488 554 478 536 l 139 536 b 85 579 99 536 85 551 b 110 624 85 592 92 604 l 317 854 b 383 985 369 913 383 940 l 383 988 b 281 1074 383 1040 349 1074 b 158 1003 225 1074 189 1047 b 108 994 147 986 126 983 b 97 1044 92 1006 86 1025 b 279 1147 133 1104 196 1147 "},"³":{"ha":556,"x_min":null,"x_max":null,"o":"m 272 1147 b 461 990 389 1147 461 1086 l 461 986 b 360 853 461 924 419 871 b 485 717 422 844 485 799 l 485 708 b 276 532 485 604 407 532 b 100 585 210 532 146 551 b 92 636 81 597 79 618 b 142 647 106 656 122 660 b 276 603 179 621 224 603 b 406 710 356 603 406 646 l 406 715 b 275 815 406 786 350 815 l 225 815 b 193 851 203 815 193 832 b 225 885 193 869 203 885 l 271 885 b 383 986 326 885 383 914 l 383 989 b 272 1076 382 1040 344 1076 b 163 1022 222 1076 188 1053 b 113 1021 147 1006 128 1008 b 108 1069 97 1035 97 1054 b 272 1147 140 1115 197 1147 "},"´":{"ha":458,"x_min":null,"x_max":null,"o":"m 317 1056 b 325 989 339 1038 344 1010 l 200 853 b 146 849 183 836 163 835 b 139 899 129 861 126 881 l 246 1049 b 317 1056 264 1075 294 1074 "},"¶":{"ha":838,"x_min":null,"x_max":null,"o":"m 615 993 b 710 901 686 993 710 971 l 710 -150 b 665 -185 710 -174 690 -185 b 625 -150 646 -185 625 -174 l 625 906 l 507 906 l 507 -150 b 463 -185 507 -174 486 -185 b 421 -150 442 -185 421 -174 l 421 482 l 347 482 b 69 736 201 482 69 565 b 374 993 69 878 146 993 l 615 993 "},"·":{"ha":632,"x_min":null,"x_max":null,"o":"m 315 576 b 394 499 361 576 394 543 b 315 421 394 454 361 421 b 236 499 271 421 236 454 b 315 576 236 543 271 576 "},"¸":{"ha":458,"x_min":null,"x_max":null,"o":"m 221 -35 b 356 -128 300 -39 356 -64 b 146 -262 356 -211 286 -254 b 114 -232 126 -264 115 -250 b 140 -200 114 -212 121 -201 b 274 -136 225 -193 274 -174 b 151 -90 274 -97 233 -90 l 151 33 l 221 33 "},"¹":{"ha":556,"x_min":null,"x_max":null,"o":"m 315 1142 b 357 1106 339 1142 357 1132 l 357 569 b 318 535 357 544 338 535 b 278 569 297 535 278 544 l 278 1043 l 154 964 b 104 978 135 951 114 961 b 115 1029 93 994 97 1018 l 269 1126 b 315 1142 289 1138 303 1142 "},"º":{"ha":647,"x_min":null,"x_max":null,"o":"m 324 1038 b 589 753 490 1038 589 936 l 589 699 b 324 415 589 518 490 415 b 60 699 157 415 60 518 l 60 753 b 324 1038 60 936 157 1038 m 324 954 b 153 750 211 954 153 888 l 153 703 b 324 497 153 564 221 497 b 494 703 426 497 494 564 l 494 750 b 324 954 494 888 438 954 "},"»":{"ha":1264,"x_min":null,"x_max":null,"o":"m 1133 461 l 467 19 l 421 89 l 1035 492 l 428 911 l 475 979 l 1133 524 m 842 461 l 172 25 l 132 93 l 744 494 l 135 907 l 183 972 l 842 524 "},"¼":{"ha":1264,"x_min":null,"x_max":null,"o":"m 892 1003 b 910 953 911 993 921 975 l 433 13 b 378 -4 422 -11 397 -15 b 360 46 358 6 349 24 l 836 986 b 892 1003 847 1010 871 1014 m 301 1003 b 343 967 325 1003 343 993 l 343 431 b 304 396 343 406 324 396 b 264 431 283 396 264 406 l 264 904 l 140 825 b 90 839 121 813 100 822 b 101 890 79 856 83 879 l 256 988 b 301 1003 275 999 289 1003 m 1074 593 b 1085 542 1092 581 1099 563 l 843 196 l 1044 196 l 1044 353 b 1082 386 1044 376 1063 386 b 1122 353 1103 386 1122 376 l 1122 196 l 1182 196 b 1213 163 1204 196 1213 181 b 1182 128 1213 143 1204 128 l 1122 128 l 1122 28 b 1082 -6 1122 4 1103 -6 b 1044 28 1063 -6 1044 4 l 1044 128 l 796 128 b 744 167 757 128 744 140 b 765 213 744 178 747 189 l 1022 585 b 1074 593 1035 603 1054 606 "},"½":{"ha":1264,"x_min":null,"x_max":null,"o":"m 847 1003 b 865 953 867 993 876 975 l 389 13 b 333 -4 378 -11 354 -15 b 317 46 314 6 306 24 l 793 986 b 847 1003 804 1010 828 1014 m 301 1003 b 343 967 325 1003 343 993 l 343 431 b 304 396 343 406 324 396 b 264 431 283 396 264 406 l 264 904 l 140 825 b 90 839 121 813 100 822 b 101 890 79 856 83 879 l 256 988 b 301 1003 275 999 289 1003 m 981 606 b 1163 450 1101 606 1163 539 l 1163 443 b 1079 271 1163 381 1139 336 l 894 68 l 1157 68 b 1188 32 1178 68 1188 51 b 1157 -4 1188 13 1178 -4 l 839 -4 b 785 38 800 -4 785 10 b 810 83 785 50 792 63 l 1018 313 b 1085 443 1069 371 1085 400 l 1085 446 b 982 532 1083 499 1049 532 b 860 461 925 532 890 506 b 808 454 847 444 826 442 b 799 503 792 465 786 483 b 981 606 833 563 897 606 "},"¾":{"ha":1264,"x_min":null,"x_max":null,"o":"m 926 1003 b 944 953 946 993 956 975 l 468 13 b 413 -4 457 -11 432 -15 b 394 46 393 6 383 24 l 871 986 b 926 1003 882 1010 906 1014 m 265 1008 b 453 851 382 1008 453 947 l 453 847 b 351 714 453 785 413 732 b 478 578 415 706 478 660 l 478 569 b 269 393 478 465 399 393 b 93 446 201 393 139 413 b 83 497 74 458 72 479 b 133 508 97 517 115 521 b 268 464 171 482 215 464 b 397 571 349 464 397 507 l 397 576 b 268 676 397 647 343 676 l 217 676 b 186 713 196 676 186 693 b 217 746 186 731 196 746 l 263 746 b 376 847 319 746 376 775 l 376 850 b 265 938 375 901 338 938 b 156 883 214 938 181 914 b 106 882 140 867 121 869 b 101 931 90 896 90 915 b 265 1008 133 976 190 1008 m 1074 593 b 1085 542 1092 581 1099 563 l 843 196 l 1044 196 l 1044 353 b 1082 386 1044 376 1063 386 b 1122 353 1103 386 1122 376 l 1122 196 l 1182 196 b 1213 163 1204 196 1213 181 b 1182 128 1213 143 1204 128 l 1122 128 l 1122 28 b 1082 -6 1122 4 1103 -6 b 1044 28 1063 -6 1044 4 l 1044 128 l 796 128 b 744 167 757 128 744 140 b 765 213 744 178 747 189 l 1022 585 b 1074 593 1035 603 1054 606 "},"¿":{"ha":726,"x_min":null,"x_max":null,"o":"m 396 808 b 474 731 439 808 474 774 b 396 654 474 688 439 654 b 318 731 351 654 318 688 b 396 808 318 774 351 808 m 394 525 b 444 485 421 525 444 513 b 311 232 444 390 428 336 b 178 33 213 144 178 100 l 178 17 b 371 -146 178 -79 249 -146 b 579 -61 464 -146 526 -110 b 642 -68 600 -44 625 -49 b 639 -132 660 -87 660 -114 b 372 -236 581 -187 485 -236 b 76 14 189 -236 76 -137 l 76 32 b 221 272 76 126 126 188 b 347 486 335 375 347 417 b 394 525 347 511 371 525 "},"Æ":{"ha":1361,"x_min":null,"x_max":null,"o":"m 1222 993 b 1258 949 1247 993 1258 974 b 1222 906 1258 925 1247 906 l 757 906 l 757 556 l 1194 556 b 1229 513 1218 556 1229 536 b 1194 469 1229 489 1218 469 l 757 469 l 757 93 l 1232 93 b 1268 50 1257 93 1268 74 b 1232 6 1268 25 1257 6 l 750 6 b 656 97 679 6 656 28 l 656 307 l 296 307 l 113 21 b 44 8 97 -6 68 -7 b 31 74 22 22 14 49 l 590 932 b 708 993 621 979 640 993 l 1222 993 m 656 892 b 532 675 621 819 585 756 l 351 393 l 656 393 l 656 892 "},"Ð":{"ha":968,"x_min":null,"x_max":null,"o":"m 465 993 b 882 551 743 993 882 842 l 882 447 b 465 6 882 157 731 6 l 242 6 b 147 97 171 6 147 28 l 147 481 l 53 481 b 22 518 32 481 22 497 b 53 557 22 540 32 557 l 147 557 l 147 901 b 242 993 147 971 171 993 l 465 993 m 511 557 b 542 518 532 557 542 540 b 511 481 542 497 532 481 l 249 481 l 249 94 l 454 94 b 779 453 667 94 779 214 l 779 542 b 454 904 779 783 685 904 l 249 904 l 249 557 "},"×":{"ha":838,"x_min":null,"x_max":null,"o":"m 649 803 b 704 800 665 819 688 817 b 710 743 721 782 726 761 l 476 497 l 708 254 b 701 199 725 238 719 215 b 647 196 685 182 664 178 l 418 436 l 190 196 b 135 199 174 178 151 182 b 129 254 118 215 113 238 l 360 497 l 126 743 b 133 800 111 761 115 782 b 189 803 150 817 172 819 l 418 560 l 649 803 "},"Ø":{"ha":988,"x_min":null,"x_max":null,"o":"m 493 1008 b 776 906 615 1008 710 974 l 843 989 b 896 993 858 1007 879 1007 b 903 942 914 979 918 960 l 824 844 b 893 538 869 768 893 664 l 893 461 b 493 -10 893 151 758 -10 b 211 90 371 -10 276 24 l 144 8 b 92 4 128 -10 108 -8 b 85 57 74 18 69 38 l 163 153 b 93 461 117 229 93 333 l 93 538 b 493 1008 93 847 229 1008 m 493 915 b 196 526 289 915 196 789 l 196 472 b 235 240 196 378 208 300 l 711 828 b 493 915 663 886 590 915 m 275 169 b 493 83 324 111 396 83 b 792 472 697 83 792 210 l 792 526 b 751 757 792 621 778 697 l 275 169 "},"Þ":{"ha":850,"x_min":null,"x_max":null,"o":"m 178 999 b 229 957 206 999 229 986 l 229 811 l 467 811 b 788 525 686 811 788 693 l 788 496 b 467 206 788 326 668 206 l 229 206 l 229 42 b 178 0 229 13 206 0 b 128 42 151 0 128 13 l 128 957 b 178 999 128 986 151 999 m 443 293 b 686 499 621 293 686 379 l 686 524 b 458 724 686 635 632 724 l 229 724 l 229 293 "},"ß":{"ha":836,"x_min":null,"x_max":null,"o":"m 414 1050 b 674 871 603 1050 674 964 l 674 854 b 468 547 674 683 468 653 l 468 539 b 588 415 468 490 490 464 b 756 219 682 371 756 326 l 756 200 b 526 -6 756 81 674 -6 b 331 53 449 -6 381 18 b 321 114 308 67 308 93 b 379 129 336 138 356 143 b 525 79 421 100 474 79 b 657 201 618 79 657 124 l 657 215 b 546 340 657 274 622 304 b 369 536 431 394 369 442 l 369 549 b 572 849 369 692 572 726 l 572 864 b 414 964 572 924 533 964 b 221 760 300 964 221 904 l 221 42 b 171 0 221 13 197 0 b 121 42 144 0 121 13 l 121 768 b 414 1050 121 968 253 1050 "},"æ":{"ha":1249,"x_min":null,"x_max":null,"o":"m 378 742 b 614 618 490 742 575 699 b 861 742 665 697 749 742 b 1167 415 1054 742 1167 615 l 1167 411 b 1086 335 1167 357 1144 335 l 647 335 l 647 311 b 869 81 647 154 736 81 b 1078 133 956 81 1021 99 b 1136 117 1101 146 1125 139 b 1121 57 1147 94 1143 71 b 868 -6 1058 19 972 -6 b 594 142 735 -6 640 47 b 476 26 578 97 531 53 b 328 -6 438 8 385 -6 b 81 208 174 -6 81 74 l 81 222 b 343 431 81 340 154 431 l 547 431 l 547 488 b 375 654 547 599 493 654 b 185 594 304 654 243 629 b 126 610 163 581 139 589 b 138 669 114 629 115 654 b 378 742 196 710 283 742 m 860 657 b 647 438 735 657 647 578 l 647 414 l 1069 414 l 1069 425 b 860 657 1069 576 994 657 m 346 350 b 181 219 219 350 181 293 l 181 211 b 335 81 181 131 232 81 b 463 108 390 81 428 90 b 547 240 515 136 547 185 l 547 350 l 346 350 "},"ð":{"ha":825,"x_min":null,"x_max":null,"o":"m 300 1042 b 464 943 358 1011 417 979 l 601 1001 b 643 982 619 1008 635 1000 b 629 936 651 963 647 943 l 529 893 b 735 381 656 779 735 651 l 735 328 b 410 -6 735 108 610 -6 b 83 328 208 -6 83 108 l 83 381 b 410 714 83 601 208 714 b 594 644 489 714 558 690 b 449 860 572 732 517 804 l 276 788 b 235 807 258 781 242 789 b 249 851 226 825 231 844 l 382 907 b 263 975 346 932 304 954 b 250 1025 244 983 239 1006 b 300 1042 258 1044 279 1053 m 410 626 b 183 375 267 626 183 549 l 183 333 b 410 83 183 160 267 83 b 635 333 551 83 635 160 l 635 375 b 410 626 635 549 551 626 "},"÷":{"ha":826,"x_min":null,"x_max":null,"o":"m 417 836 b 493 760 460 836 493 803 b 417 685 493 718 460 685 b 340 760 374 685 340 718 b 417 836 340 803 374 836 m 729 543 b 765 500 754 543 765 524 b 729 454 765 474 754 454 l 106 454 b 71 500 82 454 71 474 b 106 543 71 524 82 543 l 729 543 m 417 314 b 493 238 460 314 493 281 b 417 163 493 196 460 163 b 340 238 374 163 340 196 b 417 314 340 281 374 314 "},"ø":{"ha":829,"x_min":null,"x_max":null,"o":"m 414 742 b 633 672 503 742 578 718 l 690 736 b 735 735 703 751 721 747 b 742 692 747 724 754 706 l 679 621 b 740 397 718 565 740 490 l 740 339 b 414 -6 740 113 615 -6 b 190 68 322 -6 246 18 l 138 8 b 92 10 125 -7 106 -3 b 86 54 79 21 74 39 l 144 119 b 88 339 108 174 88 249 l 88 397 b 414 742 88 624 213 742 m 414 653 b 189 392 271 653 189 572 l 189 344 b 217 197 189 285 199 236 l 569 600 b 414 653 531 636 478 653 m 254 139 b 414 83 293 101 347 83 b 639 344 557 83 639 164 l 639 392 b 608 544 639 454 628 506 l 254 139 "},"þ":{"ha":822,"x_min":null,"x_max":null,"o":"m 171 1033 b 221 992 197 1033 221 1021 l 221 622 b 449 742 261 696 353 742 b 739 397 640 742 739 624 l 739 339 b 440 -6 739 108 622 -6 b 221 96 347 -6 261 32 l 221 -228 b 171 -269 221 -257 197 -269 b 121 -228 146 -269 121 -257 l 121 992 b 171 1033 121 1021 146 1033 m 433 654 b 219 444 324 654 219 574 l 219 253 b 435 82 219 164 307 82 b 640 346 561 82 640 163 l 640 392 b 433 654 640 569 575 654 "},"đ":{"ha":832,"x_min":null,"x_max":null,"o":"m 651 1033 b 701 992 678 1033 701 1021 l 701 919 l 775 919 b 803 885 794 919 803 904 b 775 850 803 865 794 850 l 701 850 l 701 40 b 653 0 701 13 678 0 b 606 40 629 0 606 13 l 606 118 l 603 118 b 372 -6 565 43 478 -6 b 83 339 183 -6 83 113 l 83 397 b 382 742 83 629 200 742 b 601 643 485 742 567 700 l 601 850 l 407 850 b 379 885 389 850 379 865 b 407 919 379 904 389 919 l 601 919 l 601 992 b 651 1033 601 1021 626 1033 m 390 654 b 182 392 261 654 182 574 l 182 344 b 388 82 182 165 249 82 b 603 294 497 82 603 164 l 603 486 b 390 654 603 572 521 654 "},"Ħ":{"ha":972,"x_min":null,"x_max":null,"o":"m 179 999 b 232 957 207 999 232 986 l 232 790 l 744 790 l 744 957 b 794 999 744 986 769 999 b 847 957 822 999 847 986 l 847 790 l 921 790 b 950 753 940 790 950 774 b 921 715 950 733 940 715 l 847 715 l 847 42 b 794 0 847 13 822 0 b 744 42 769 0 744 13 l 744 449 l 232 449 l 232 42 b 179 0 232 13 207 0 b 129 42 154 0 129 13 l 129 715 l 53 715 b 22 753 32 715 22 733 b 53 790 22 774 32 790 l 129 790 l 129 957 b 179 999 129 986 154 999 m 744 535 l 744 715 l 232 715 l 232 535 "},"ħ":{"ha":843,"x_min":null,"x_max":null,"o":"m 183 1033 b 232 993 208 1033 232 1021 l 232 919 l 422 919 b 450 885 442 919 450 904 b 422 850 450 865 442 850 l 232 850 l 232 621 l 233 621 b 469 742 261 678 346 742 b 731 483 638 742 731 642 l 731 42 b 679 0 731 13 706 0 b 631 42 654 0 631 13 l 631 460 b 444 653 631 593 571 653 b 235 463 314 653 235 554 l 235 42 b 185 0 235 13 211 0 b 135 42 160 0 135 13 l 135 850 l 54 850 b 26 885 35 850 26 865 b 54 919 26 904 35 919 l 135 919 l 135 993 b 183 1033 135 1021 158 1033 "},"ı":{"ha":342,"x_min":null,"x_max":null,"o":"m 171 732 b 221 690 197 732 221 719 l 221 42 b 171 0 221 13 197 0 b 121 42 146 0 121 13 l 121 690 b 171 732 121 719 146 732 "},"Ĳ":{"ha":986,"x_min":null,"x_max":null,"o":"m 178 999 b 229 957 206 999 229 986 l 229 42 b 178 0 229 13 206 0 b 128 42 151 0 128 13 l 128 957 b 178 999 128 986 151 999 m 808 999 b 860 957 836 999 860 986 l 860 267 b 592 -10 860 81 765 -10 b 389 47 513 -10 440 14 b 378 113 367 63 364 89 b 439 129 392 136 414 143 b 590 85 482 101 529 85 b 758 286 703 85 758 146 l 758 957 b 808 999 758 986 782 999 "},"ĳ":{"ha":660,"x_min":null,"x_max":null,"o":"m 174 996 b 247 924 215 996 247 964 b 174 853 247 885 215 853 b 100 924 132 853 100 885 b 174 996 100 964 132 996 m 486 996 b 560 924 528 996 560 964 b 486 853 560 885 528 853 b 413 924 444 853 413 885 b 486 996 413 964 444 996 m 174 732 b 224 690 200 732 224 719 l 224 42 b 174 0 224 13 200 0 b 124 42 149 0 124 13 l 124 690 b 174 732 124 719 149 732 m 486 732 b 536 690 513 732 536 719 l 536 -47 b 338 -271 536 -219 464 -271 b 232 -251 296 -271 258 -264 b 210 -196 208 -240 201 -219 b 260 -171 219 -171 239 -164 b 331 -185 282 -181 306 -185 b 436 -49 407 -185 436 -153 l 436 690 b 486 732 436 719 461 732 "},"ĸ":{"ha":760,"x_min":null,"x_max":null,"o":"m 171 732 b 221 690 197 732 221 719 l 221 376 l 582 718 b 650 717 603 738 633 736 b 647 651 667 699 671 671 l 413 438 l 692 78 b 683 13 711 56 703 29 b 615 18 663 -4 635 -6 l 342 374 l 221 263 l 221 42 b 171 0 221 13 197 0 b 121 42 146 0 121 13 l 121 690 b 171 732 121 719 146 732 "},"Ŀ":{"ha":765,"x_min":null,"x_max":null,"o":"m 178 999 b 229 957 206 999 229 986 l 229 94 l 694 94 b 732 50 721 94 732 75 b 694 6 732 25 721 6 l 221 6 b 128 97 151 6 128 28 l 128 957 b 178 999 128 986 151 999 m 579 619 b 658 542 625 619 658 585 b 579 463 658 497 625 463 b 500 542 535 463 500 497 b 579 619 500 585 535 619 "},"ŀ":{"ha":590,"x_min":null,"x_max":null,"o":"m 171 1033 b 221 992 197 1033 221 1021 l 221 42 b 171 0 221 13 197 0 b 121 42 144 0 121 13 l 121 992 b 171 1033 121 1021 144 1033 m 435 604 b 514 526 479 604 514 569 b 435 447 514 482 479 447 b 356 526 389 447 356 482 b 435 604 356 569 389 604 "},"Ł":{"ha":817,"x_min":null,"x_max":null,"o":"m 229 999 b 281 957 257 999 281 986 l 281 528 l 525 669 b 571 651 543 679 561 671 b 563 603 581 636 579 613 l 281 443 l 281 94 l 746 94 b 783 50 772 94 783 75 b 746 6 783 25 772 6 l 272 6 b 179 97 203 6 179 28 l 179 385 l 74 324 b 28 340 56 314 39 321 b 36 389 17 357 19 379 l 179 469 l 179 957 b 229 999 179 986 203 999 "},"ł":{"ha":467,"x_min":null,"x_max":null,"o":"m 235 1033 b 285 992 261 1033 285 1021 l 285 604 l 382 658 b 426 643 400 668 415 660 b 417 597 435 625 433 606 l 285 522 l 285 42 b 235 0 285 13 261 0 b 185 42 208 0 185 13 l 185 465 l 83 408 b 40 424 67 399 51 406 b 50 469 32 439 32 460 l 185 546 l 185 992 b 235 1033 185 1021 208 1033 "},"ŉ":{"ha":942,"x_min":null,"x_max":null,"o":"m 158 1015 b 197 956 189 1010 207 988 l 124 722 b 76 696 117 699 99 692 b 47 735 54 699 43 714 l 93 978 b 158 1015 99 1010 129 1019 m 568 742 b 829 483 736 742 829 642 l 829 42 b 779 0 829 13 806 0 b 729 42 754 0 729 13 l 729 460 b 543 653 729 593 669 653 b 333 463 414 653 333 554 l 333 42 b 283 0 333 13 310 0 b 233 42 258 0 233 13 l 233 692 b 282 732 233 719 257 732 b 331 692 307 732 331 719 l 331 621 l 332 621 b 568 742 360 676 444 742 "},"Ŋ":{"ha":953,"x_min":null,"x_max":null,"o":"m 796 999 b 844 958 821 999 844 986 l 844 -47 b 646 -271 844 -219 772 -271 b 540 -251 604 -271 567 -264 b 518 -196 517 -240 510 -219 b 568 -171 528 -171 547 -164 b 639 -185 590 -181 614 -185 b 749 -56 715 -185 749 -156 l 749 -28 l 272 767 b 224 872 254 796 236 833 l 224 40 b 175 0 224 13 200 0 b 128 40 151 0 128 13 l 128 907 b 203 994 128 972 151 994 b 293 924 240 994 257 985 l 700 240 b 749 135 718 210 735 174 l 749 958 b 796 999 749 986 772 999 "},"ŋ":{"ha":811,"x_min":null,"x_max":null,"o":"m 456 742 b 717 483 624 742 717 642 l 717 -47 b 517 -271 717 -219 644 -271 b 411 -251 476 -271 439 -264 b 390 -196 389 -240 381 -219 b 440 -171 399 -171 419 -164 b 511 -185 461 -181 485 -185 b 617 -49 588 -185 617 -153 l 617 460 b 431 653 617 593 557 653 b 221 463 300 653 221 554 l 221 42 b 171 0 221 13 197 0 b 121 42 146 0 121 13 l 121 692 b 169 732 121 719 144 732 b 217 692 193 732 217 719 l 217 621 l 219 621 b 456 742 246 676 332 742 "},"Œ":{"ha":1374,"x_min":null,"x_max":null,"o":"m 1235 993 b 1271 949 1260 993 1271 974 b 1235 906 1271 925 1260 906 l 768 906 l 768 556 l 1207 556 b 1242 513 1231 556 1242 536 b 1207 469 1242 489 1231 469 l 768 469 l 768 93 l 1244 93 b 1281 50 1269 93 1281 74 b 1244 6 1281 25 1269 6 l 489 6 b 89 461 224 6 89 158 l 89 538 b 489 993 89 840 224 993 l 1235 993 m 489 900 b 192 526 285 900 192 782 l 192 472 b 489 99 192 217 285 99 l 667 99 l 667 900 l 489 900 "},"œ":{"ha":1307,"x_min":null,"x_max":null,"o":"m 397 742 b 664 593 526 742 618 686 b 924 742 708 688 800 742 b 1226 414 1110 742 1225 625 l 1226 411 b 1146 335 1226 357 1204 335 l 714 335 l 714 326 b 933 81 714 163 793 81 b 1136 133 1018 81 1079 99 b 1194 117 1160 146 1183 139 b 1179 57 1206 94 1201 71 b 928 -6 1117 19 1035 -6 b 664 144 796 -6 703 54 b 397 -6 622 54 529 -6 b 83 339 203 -6 83 113 l 83 397 b 397 742 83 624 203 742 m 922 657 b 714 421 792 657 714 571 l 714 414 l 1128 414 l 1128 425 b 922 657 1128 572 1056 657 m 397 653 b 183 392 261 653 183 572 l 183 344 b 397 83 183 164 261 83 b 611 344 533 83 611 164 l 611 392 b 397 653 611 572 533 653 "},"Ŧ":{"ha":790,"x_min":null,"x_max":null,"o":"m 749 993 b 785 949 774 993 785 974 b 749 904 785 924 774 904 l 457 904 l 457 546 l 642 546 b 672 508 663 546 672 529 b 642 471 672 488 663 471 l 457 471 l 457 42 b 406 0 457 13 433 0 b 356 42 379 0 356 13 l 356 471 l 175 471 b 143 508 153 471 143 488 b 175 546 143 529 153 546 l 356 546 l 356 904 l 64 904 b 28 949 39 904 28 924 b 64 993 28 974 39 993 l 749 993 "},"ŧ":{"ha":542,"x_min":null,"x_max":null,"o":"m 214 925 b 265 883 240 925 265 913 l 265 726 l 442 726 b 475 686 464 726 475 708 b 442 644 475 663 464 644 l 265 644 l 265 483 l 433 483 b 461 450 451 483 461 469 b 433 418 461 432 451 418 l 265 418 l 265 219 b 367 81 265 113 290 81 b 439 94 393 81 417 85 b 489 69 460 101 479 94 b 467 14 497 46 489 25 b 361 -6 440 1 401 -6 b 165 211 228 -6 165 51 l 165 418 l 68 418 b 40 450 50 418 40 432 b 68 483 40 469 50 483 l 165 483 l 165 644 l 68 644 b 33 686 44 644 33 663 b 68 726 33 708 44 726 l 165 726 l 165 883 b 214 925 165 913 189 925 "},"ˇ":{"ha":833,"x_min":null,"x_max":null,"o":"m 271 1040 b 315 1036 286 1051 303 1050 l 418 921 l 517 1036 b 563 1040 528 1049 547 1051 b 571 997 576 1029 582 1011 l 482 879 b 417 843 463 856 444 843 b 351 879 389 843 371 856 l 263 997 b 271 1040 251 1011 257 1029 "},"ː":{"ha":1264,"x_min":null,"x_max":null,"o":"m 632 701 l 497 833 l 767 833 m 497 165 l 632 297 l 767 165 "},"˘":{"ha":833,"x_min":null,"x_max":null,"o":"m 565 1035 b 592 994 586 1029 596 1015 b 417 857 579 924 517 857 b 242 994 317 857 254 924 b 268 1035 238 1015 247 1029 b 310 1013 289 1039 304 1031 b 417 931 321 964 360 931 b 524 1013 474 931 513 964 b 565 1035 529 1031 544 1039 "},"˙":{"ha":458,"x_min":null,"x_max":null,"o":"m 231 1033 b 310 954 275 1033 310 999 b 231 876 310 911 275 876 b 151 954 185 876 151 911 b 231 1033 151 999 185 1033 "},"˚":{"ha":458,"x_min":null,"x_max":null,"o":"m 229 1078 b 358 953 307 1078 358 1024 b 229 828 358 883 307 828 b 100 953 151 828 100 883 b 229 1078 100 1024 151 1078 m 229 1022 b 163 953 190 1022 163 990 b 229 886 163 915 190 886 b 297 953 269 886 297 915 b 229 1022 297 990 269 1022 "},"˛":{"ha":458,"x_min":null,"x_max":null,"o":"m 319 7 b 206 -140 253 -42 206 -85 b 278 -199 206 -179 235 -199 b 319 -193 290 -199 306 -197 b 349 -215 335 -190 344 -199 b 331 -253 353 -232 347 -247 b 265 -262 314 -260 288 -262 b 121 -150 176 -261 121 -219 b 242 7 121 -76 188 -22 l 319 7 "},"˜":{"ha":833,"x_min":null,"x_max":null,"o":"m 589 1019 b 610 978 610 1015 615 999 b 496 881 596 925 553 881 b 338 935 431 881 383 935 b 288 896 313 935 296 919 b 246 878 281 879 267 872 b 224 919 224 882 218 897 b 338 1015 239 971 281 1015 b 496 961 403 1015 450 961 b 547 1000 522 961 539 978 b 589 1019 553 1017 568 1024 "},"˝":{"ha":833,"x_min":null,"x_max":null,"o":"m 361 1054 b 392 999 390 1046 406 1024 l 328 876 b 274 856 317 854 293 849 b 251 900 253 863 244 879 l 301 1031 b 361 1054 310 1054 336 1063 m 550 1054 b 579 999 578 1046 592 1025 l 517 876 b 463 856 506 854 482 849 b 439 900 440 863 431 879 l 490 1031 b 550 1054 499 1054 525 1063 "},"Α":{"ha":917,"x_min":null,"x_max":null,"o":"m 460 999 b 521 954 488 999 508 988 l 865 65 b 836 4 876 36 863 13 b 769 31 808 -6 781 0 l 665 307 l 249 307 l 143 29 b 78 4 132 0 106 -6 b 51 64 53 13 40 35 l 397 954 b 460 999 410 988 432 999 m 458 878 b 386 671 439 811 417 749 l 281 393 l 635 393 l 532 671 b 458 878 503 746 478 815 "},"Β":{"ha":889,"x_min":null,"x_max":null,"o":"m 467 993 b 776 749 678 993 776 914 l 776 726 b 614 525 776 638 733 554 b 822 297 743 507 822 438 l 822 269 b 513 6 822 104 728 6 l 221 6 b 128 97 151 6 128 28 l 128 901 b 221 993 128 971 151 993 l 467 993 m 453 565 b 674 728 599 565 674 611 l 674 746 b 446 906 674 853 611 906 l 228 906 l 228 565 m 485 93 b 718 276 642 93 718 143 l 718 300 b 456 479 718 417 651 479 l 228 479 l 228 93 "},"Γ":{"ha":760,"x_min":null,"x_max":null,"o":"m 696 993 b 732 949 721 993 732 974 b 696 904 732 924 721 904 l 229 904 l 229 42 b 178 0 229 13 206 0 b 128 42 151 0 128 13 l 128 901 b 221 993 128 971 151 993 l 696 993 "},"Δ":{"ha":904,"x_min":null,"x_max":null,"o":"m 454 1001 b 517 957 482 1001 504 990 l 843 89 b 832 18 854 58 853 35 b 738 6 813 3 768 6 l 167 6 b 72 18 135 6 92 3 b 61 89 50 35 50 58 l 390 957 b 454 1001 404 990 426 1001 m 733 94 l 453 879 l 169 94 "},"Ε":{"ha":840,"x_min":null,"x_max":null,"o":"m 703 993 b 739 949 728 993 739 974 b 703 906 739 925 728 906 l 229 906 l 229 556 l 675 556 b 710 513 699 556 710 536 b 675 469 710 489 699 469 l 229 469 l 229 93 l 713 93 b 749 50 738 93 749 74 b 713 6 749 25 738 6 l 221 6 b 128 97 151 6 128 28 l 128 901 b 221 993 128 971 151 993 l 703 993 "},"Ζ":{"ha":858,"x_min":null,"x_max":null,"o":"m 699 993 b 774 939 754 993 774 976 b 735 864 774 921 769 910 l 174 94 l 767 94 b 803 50 792 94 803 75 b 767 6 803 25 792 6 l 125 6 b 47 61 68 6 47 22 b 93 147 47 81 51 93 l 644 904 l 115 904 b 78 949 89 904 78 924 b 115 993 78 974 89 993 l 699 993 "},"Η":{"ha":972,"x_min":null,"x_max":null,"o":"m 178 999 b 229 957 206 999 229 986 l 229 567 l 743 567 l 743 957 b 793 999 743 986 767 999 b 844 957 821 999 844 986 l 844 42 b 793 0 844 13 821 0 b 743 42 767 0 743 13 l 743 479 l 229 479 l 229 42 b 178 0 229 13 206 0 b 128 42 151 0 128 13 l 128 957 b 178 999 128 986 151 999 "},"Θ":{"ha":978,"x_min":null,"x_max":null,"o":"m 489 1008 b 889 538 754 1008 889 847 l 889 461 b 489 -10 889 151 754 -10 b 89 461 224 -10 89 151 l 89 538 b 489 1008 89 847 224 1008 m 489 915 b 192 526 285 915 192 789 l 192 472 b 489 83 192 210 285 83 b 786 472 693 83 786 210 l 786 526 b 489 915 786 789 693 915 m 697 546 b 731 503 721 546 731 526 b 697 463 731 482 721 463 l 289 463 b 256 503 267 463 256 482 b 289 546 256 526 267 546 l 697 546 "},"Ι":{"ha":357,"x_min":null,"x_max":null,"o":"m 178 999 b 229 957 206 999 229 986 l 229 42 b 178 0 229 13 206 0 b 128 42 151 0 128 13 l 128 957 b 178 999 128 986 151 999 "},"Κ":{"ha":906,"x_min":null,"x_max":null,"o":"m 178 999 b 229 957 206 999 229 986 l 229 482 l 715 985 b 782 985 735 1006 765 1001 b 786 919 800 967 806 940 l 436 564 l 819 79 b 811 11 840 54 833 29 b 742 21 789 -6 761 -4 l 367 497 l 229 358 l 229 42 b 178 0 229 13 206 0 b 128 42 151 0 128 13 l 128 957 b 178 999 128 986 151 999 "},"Λ":{"ha":897,"x_min":null,"x_max":null,"o":"m 450 999 b 514 954 478 999 500 988 l 846 65 b 817 4 858 35 843 13 b 750 31 789 -6 761 0 l 519 671 b 450 878 490 750 469 813 b 379 671 429 811 408 749 l 144 29 b 81 4 133 -1 108 -6 b 51 64 54 13 40 33 l 388 954 b 450 999 400 988 422 999 "},"Μ":{"ha":1179,"x_min":null,"x_max":null,"o":"m 207 994 b 290 925 247 994 264 983 l 593 286 l 889 924 b 972 994 913 982 932 994 l 983 994 b 1051 913 1033 994 1051 972 l 1051 40 b 1003 0 1051 13 1029 0 b 956 40 978 0 956 13 l 956 878 b 890 721 933 815 914 772 l 649 206 b 592 165 635 175 618 165 b 532 207 561 165 546 175 l 290 721 b 224 878 267 771 247 815 l 224 40 b 175 0 224 13 201 0 b 128 40 151 0 128 13 l 128 913 b 196 994 128 972 146 994 l 207 994 "},"Ν":{"ha":972,"x_min":null,"x_max":null,"o":"m 796 999 b 844 958 821 999 844 986 l 844 92 b 769 4 844 26 821 4 b 679 75 732 4 714 14 l 271 765 b 225 868 254 794 236 832 l 225 40 b 175 0 225 13 201 0 b 128 40 151 0 128 13 l 128 907 b 203 994 128 972 151 994 b 293 924 240 994 257 985 l 700 233 b 747 129 715 207 735 169 l 747 958 b 796 999 747 986 771 999 "},"Ξ":{"ha":829,"x_min":null,"x_max":null,"o":"m 693 993 b 729 949 718 993 729 974 b 693 904 729 925 718 904 l 132 904 b 96 949 107 904 96 925 b 132 993 96 974 107 993 l 693 993 m 656 557 b 692 513 681 557 692 538 b 656 468 692 489 681 468 l 171 468 b 135 513 146 468 135 489 b 171 557 135 538 146 557 l 656 557 m 700 94 b 736 50 725 94 736 75 b 700 6 736 26 725 6 l 129 6 b 93 50 104 6 93 26 b 129 94 93 75 104 94 l 700 94 "},"Ο":{"ha":978,"x_min":null,"x_max":null,"o":"m 489 1008 b 889 538 754 1008 889 847 l 889 461 b 489 -10 889 151 754 -10 b 89 461 224 -10 89 151 l 89 538 b 489 1008 89 847 224 1008 m 489 915 b 192 526 285 915 192 789 l 192 472 b 489 83 192 210 285 83 b 786 472 693 83 786 210 l 786 526 b 489 915 786 789 693 915 "},"Π":{"ha":944,"x_min":null,"x_max":null,"o":"m 722 993 b 817 901 793 993 817 971 l 817 42 b 767 0 817 13 793 0 b 715 42 739 0 715 13 l 715 906 l 229 906 l 229 42 b 178 0 229 13 206 0 b 128 42 151 0 128 13 l 128 901 b 221 993 128 971 151 993 l 722 993 "},"Ρ":{"ha":847,"x_min":null,"x_max":null,"o":"m 461 993 b 790 708 682 993 790 886 l 790 686 b 458 396 790 507 676 396 l 229 396 l 229 42 b 178 0 229 13 206 0 b 128 42 151 0 128 13 l 128 901 b 221 993 128 971 151 993 l 461 993 m 446 485 b 689 689 618 485 689 557 l 689 707 b 458 904 689 833 618 904 l 229 904 l 229 485 "},"Σ":{"ha":813,"x_min":null,"x_max":null,"o":"m 700 993 b 736 949 725 993 736 974 b 700 904 736 924 725 904 l 218 904 l 474 597 b 535 500 519 542 535 521 b 474 401 535 478 519 457 l 218 94 l 703 94 b 740 50 729 94 740 74 b 703 6 740 25 729 6 l 167 6 b 93 60 113 6 93 22 b 131 135 93 79 97 94 l 431 500 l 131 864 b 93 939 97 904 93 919 b 167 993 93 976 113 993 l 700 993 "},"Τ":{"ha":813,"x_min":null,"x_max":null,"o":"m 749 993 b 785 949 774 993 785 974 b 749 904 785 924 774 904 l 457 904 l 457 42 b 406 0 457 13 433 0 b 356 42 379 0 356 13 l 356 904 l 64 904 b 28 949 39 904 28 924 b 64 993 28 974 39 993 l 749 993 "},"Υ":{"ha":857,"x_min":null,"x_max":null,"o":"m 768 993 b 789 931 793 981 806 958 l 482 408 l 482 42 b 431 0 482 13 458 0 b 381 42 404 0 381 13 l 381 408 l 71 928 b 88 992 54 954 63 976 b 156 974 111 1004 140 1001 l 433 501 l 703 974 b 768 993 718 1000 743 1004 "},"Φ":{"ha":1044,"x_min":null,"x_max":null,"o":"m 521 1031 b 568 989 546 1031 568 1018 l 568 900 b 956 544 810 888 956 767 l 956 482 b 568 126 956 261 808 140 l 568 42 b 521 0 568 11 546 0 b 474 42 496 0 474 11 l 474 126 b 88 482 232 140 88 261 l 88 544 b 474 900 88 765 232 888 l 474 989 b 521 1031 474 1018 496 1031 m 474 810 b 189 539 292 799 189 710 l 189 489 b 474 217 189 317 292 229 l 474 810 m 568 217 b 854 489 750 229 854 315 l 854 539 b 568 810 854 711 750 799 l 568 217 "},"Χ":{"ha":885,"x_min":null,"x_max":null,"o":"m 775 990 b 790 925 799 976 808 951 l 511 514 l 806 76 b 793 8 824 49 817 24 b 721 24 768 -6 739 -3 l 444 446 l 160 25 b 92 8 143 -1 115 -7 b 78 74 69 22 60 47 l 383 515 l 97 922 b 114 990 79 950 89 976 b 188 974 140 1006 169 1000 l 451 582 l 708 974 b 775 990 725 1000 751 1006 "},"Ψ":{"ha":983,"x_min":null,"x_max":null,"o":"m 139 971 b 189 929 168 971 189 958 l 189 700 b 442 351 189 474 268 368 l 442 929 b 490 971 442 958 464 971 b 540 929 518 971 540 958 l 540 351 b 794 700 714 368 794 474 l 794 929 b 844 971 794 958 815 971 b 894 929 871 971 894 958 l 894 703 b 540 258 894 414 775 275 l 540 42 b 490 0 540 13 518 0 b 442 42 464 0 442 13 l 442 258 b 89 703 208 275 89 414 l 89 929 b 139 971 89 958 113 971 "},"Ω":{"ha":1021,"x_min":null,"x_max":null,"o":"m 511 1008 b 896 538 768 1008 896 844 l 896 472 b 732 92 896 268 835 147 l 954 92 b 990 50 978 92 990 72 b 954 6 990 25 978 6 l 656 6 b 604 53 618 6 604 28 b 638 111 604 81 615 97 b 793 481 750 176 793 299 l 793 526 b 511 915 793 786 707 915 b 228 526 314 915 228 786 l 228 481 b 383 111 228 299 271 176 b 417 53 407 97 417 81 b 365 6 417 28 403 6 l 67 6 b 32 50 43 6 32 25 b 67 92 32 72 43 92 l 289 92 b 125 472 186 147 125 268 l 125 538 b 511 1008 125 844 253 1008 "},"α":{"ha":822,"x_min":null,"x_max":null,"o":"m 382 742 b 600 640 485 742 567 697 l 603 640 l 603 690 b 651 732 603 719 626 732 b 701 690 678 732 701 719 l 701 40 b 653 0 701 13 678 0 b 604 40 628 0 604 13 l 604 118 l 603 118 b 372 -6 565 43 478 -6 b 83 339 183 -6 83 113 l 83 397 b 382 742 83 629 200 742 m 390 654 b 182 392 261 654 182 574 l 182 344 b 388 82 182 165 249 82 b 603 294 497 82 603 164 l 603 486 b 390 654 603 572 521 654 "},"β":{"ha":824,"x_min":null,"x_max":null,"o":"m 399 1050 b 668 810 585 1050 668 936 l 668 781 b 511 543 668 644 610 575 b 740 303 644 531 740 457 l 740 254 b 461 -19 740 85 619 -19 b 219 89 339 -19 257 32 l 219 -228 b 169 -269 219 -257 196 -269 b 121 -228 143 -269 121 -257 l 121 772 b 399 1050 121 968 250 1050 m 400 964 b 219 756 289 964 219 893 l 219 242 b 450 69 219 161 293 69 b 640 257 593 69 640 176 l 640 299 b 397 494 640 450 549 494 b 363 538 372 494 363 514 b 397 581 363 561 372 581 b 568 775 533 581 568 669 l 568 799 b 400 964 568 894 508 964 "},"γ":{"ha":703,"x_min":null,"x_max":null,"o":"m 72 733 b 132 707 100 742 122 735 l 354 117 l 572 707 b 632 733 582 733 606 742 b 661 676 657 726 674 706 l 403 15 l 403 -228 b 351 -269 403 -257 379 -269 b 301 -228 325 -269 301 -257 l 301 13 l 42 676 b 72 733 31 707 47 726 "},"δ":{"ha":804,"x_min":null,"x_max":null,"o":"m 424 1050 b 611 1013 493 1050 556 1039 b 633 958 633 1004 643 982 b 581 936 622 935 603 925 b 435 967 536 957 485 967 b 300 889 336 967 300 935 b 544 685 300 825 389 779 b 721 372 672 606 721 511 l 721 332 b 403 -6 721 110 599 -6 b 83 332 206 -6 83 110 l 83 372 b 374 703 83 579 194 703 b 203 889 260 764 203 822 l 203 904 b 424 1050 203 981 271 1050 m 403 622 b 183 367 264 622 183 543 l 183 338 b 403 83 183 163 264 83 b 622 338 542 83 622 163 l 622 367 b 403 622 622 543 542 622 "},"ε":{"ha":681,"x_min":null,"x_max":null,"o":"m 371 753 b 572 719 447 753 511 743 b 590 667 593 711 600 690 b 539 644 581 644 561 638 b 374 671 488 664 426 671 b 201 572 263 671 201 633 l 201 560 b 378 436 201 467 274 436 l 440 436 b 475 394 465 436 475 418 b 440 353 475 371 465 353 l 368 353 b 185 222 260 353 185 321 l 185 208 b 364 79 185 129 251 79 b 576 132 440 79 506 94 b 632 115 599 143 619 138 b 618 58 644 94 639 69 b 364 -6 543 18 454 -6 b 81 206 188 -6 81 67 l 81 222 b 258 396 81 328 147 382 b 99 561 151 419 99 478 l 99 575 b 371 753 99 694 207 753 "},"ζ":{"ha":624,"x_min":null,"x_max":null,"o":"m 521 1042 b 575 1006 557 1042 572 1029 b 542 946 576 988 572 967 b 174 374 342 796 174 611 l 174 367 b 433 114 174 208 283 161 b 617 -36 583 67 617 36 b 518 -183 617 -103 572 -147 b 456 -174 494 -200 471 -194 b 464 -115 442 -156 440 -131 b 519 -42 506 -87 519 -65 b 386 32 519 -1 450 14 b 74 354 206 81 74 161 l 74 365 b 424 954 74 593 219 801 l 185 954 b 149 999 160 954 149 975 b 185 1042 149 1022 160 1042 l 521 1042 "},"η":{"ha":829,"x_min":null,"x_max":null,"o":"m 456 742 b 717 483 624 742 717 642 l 717 -228 b 665 -269 717 -257 692 -269 b 617 -228 640 -269 617 -257 l 617 460 b 431 653 617 593 557 653 b 221 463 300 653 221 554 l 221 42 b 171 0 221 13 197 0 b 121 42 146 0 121 13 l 121 692 b 169 732 121 719 144 732 b 217 692 193 732 217 719 l 217 621 l 219 621 b 456 742 246 676 332 742 "},"θ":{"ha":778,"x_min":null,"x_max":null,"o":"m 389 1050 b 694 576 600 1050 694 896 l 694 464 b 389 -10 694 146 600 -10 b 83 464 178 -10 83 146 l 83 576 b 389 1050 83 896 178 1050 m 389 958 b 183 588 242 958 186 843 l 183 572 l 594 572 l 594 588 b 389 958 592 843 536 958 m 183 460 b 389 82 183 213 236 82 b 594 460 542 82 594 213 l 594 488 l 183 488 l 183 460 "},"ι":{"ha":360,"x_min":null,"x_max":null,"o":"m 163 732 b 213 690 189 732 213 719 l 213 154 b 271 79 213 100 225 79 b 310 85 283 79 299 82 b 351 51 331 89 346 75 b 329 1 356 29 349 10 b 253 -10 314 -6 282 -11 b 113 135 165 -8 113 33 l 113 690 b 163 732 113 719 138 732 "},"κ":{"ha":728,"x_min":null,"x_max":null,"o":"m 171 732 b 222 690 197 732 222 719 l 222 369 l 560 718 b 625 718 578 739 608 735 b 628 654 643 700 647 675 l 392 417 l 657 81 b 650 13 678 56 672 29 b 583 18 628 -6 600 -4 l 324 350 l 222 249 l 222 42 b 171 0 222 13 197 0 b 121 42 144 0 121 13 l 121 690 b 171 732 121 719 144 732 "},"λ":{"ha":699,"x_min":null,"x_max":null,"o":"m 192 1050 b 313 963 258 1050 289 1025 l 657 60 b 625 3 667 32 651 11 b 567 31 599 -4 576 4 l 351 606 l 350 606 l 132 29 b 72 3 122 3 99 -4 b 42 60 47 11 31 32 l 303 728 l 235 918 b 186 967 222 953 210 967 b 161 963 179 967 169 965 b 111 985 139 954 121 964 b 128 1036 103 1004 106 1026 b 192 1050 146 1043 169 1050 "},"μ":{"ha":833,"x_min":null,"x_max":null,"o":"m 171 732 b 221 690 196 732 221 719 l 221 276 b 399 83 221 143 279 83 b 613 268 533 83 613 185 l 613 690 b 664 732 613 719 638 732 b 713 690 689 732 713 719 l 713 40 b 665 0 713 13 689 0 b 617 40 640 0 617 13 l 617 114 l 615 114 b 390 -6 586 57 506 -6 b 221 68 313 -6 250 21 l 221 -228 b 171 -269 221 -257 199 -269 b 121 -228 144 -269 121 -257 l 121 690 b 171 732 121 719 144 732 "},"ν":{"ha":711,"x_min":null,"x_max":null,"o":"m 71 728 b 135 704 96 736 125 733 l 358 117 l 360 117 l 579 704 b 642 728 590 733 618 736 b 669 668 664 718 682 699 l 425 49 b 357 0 411 14 386 0 b 289 47 328 0 303 13 l 42 668 b 71 728 29 699 49 718 "},"ξ":{"ha":619,"x_min":null,"x_max":null,"o":"m 386 1050 b 594 1008 457 1050 525 1044 b 610 951 614 999 621 975 b 556 933 597 928 576 924 b 389 967 507 961 443 967 b 210 819 293 967 210 924 l 210 806 b 429 626 210 697 292 626 l 489 626 b 524 583 514 626 524 607 b 489 540 524 560 514 540 l 425 540 b 176 351 267 540 176 476 l 176 336 b 440 114 176 200 288 163 b 619 -35 583 69 619 44 b 524 -182 619 -101 576 -144 b 460 -172 500 -197 476 -193 b 469 -114 446 -154 446 -129 b 526 -42 513 -86 526 -65 b 403 32 526 -6 469 14 b 76 333 221 79 76 142 l 76 356 b 301 586 76 508 181 569 b 113 803 206 604 113 667 l 113 819 b 386 1050 113 951 206 1050 "},"ο":{"ha":818,"x_min":null,"x_max":null,"o":"m 410 742 b 735 397 610 742 735 624 l 735 339 b 410 -6 735 113 610 -6 b 83 339 208 -6 83 113 l 83 397 b 410 742 83 624 208 742 m 410 653 b 183 392 267 653 183 572 l 183 344 b 410 83 183 164 267 83 b 635 344 551 83 635 164 l 635 392 b 410 653 635 572 551 653 "},"π":{"ha":804,"x_min":null,"x_max":null,"o":"m 742 743 b 778 699 767 743 778 724 b 742 654 778 674 767 654 l 607 654 l 607 157 b 667 81 607 103 621 81 b 706 86 679 81 693 83 b 746 54 726 92 742 78 b 725 3 750 31 744 11 b 649 -8 708 -3 676 -8 b 508 136 560 -7 508 35 l 508 654 l 294 654 l 294 42 b 244 0 294 13 272 0 b 196 42 218 0 196 13 l 196 654 l 63 654 b 25 699 36 654 25 674 b 63 743 25 724 36 743 l 742 743 "},"ρ":{"ha":838,"x_min":null,"x_max":null,"o":"m 433 742 b 754 397 632 742 754 624 l 754 339 b 433 -6 754 113 632 -6 b 215 99 342 -6 251 35 l 213 99 l 213 -228 b 163 -269 213 -257 190 -269 b 113 -228 138 -269 113 -257 l 113 397 b 433 742 113 624 235 742 m 433 653 b 214 392 293 653 214 572 l 214 344 b 433 83 214 164 293 83 b 653 344 574 83 653 164 l 653 392 b 433 653 653 572 574 653 "},"σ":{"ha":814,"x_min":null,"x_max":null,"o":"m 751 742 b 786 699 775 742 786 724 b 751 657 786 676 775 657 l 624 657 b 735 397 696 610 735 514 l 735 339 b 410 -6 735 113 610 -6 b 83 339 208 -6 83 113 l 83 397 b 410 742 83 624 208 742 l 751 742 m 410 653 b 183 392 267 653 183 572 l 183 344 b 410 83 183 164 267 83 b 635 344 551 83 635 164 l 635 392 b 410 653 635 572 551 653 "},"τ":{"ha":785,"x_min":null,"x_max":null,"o":"m 721 743 b 758 699 747 743 758 724 b 721 654 758 674 747 654 l 424 654 l 424 157 b 485 81 424 103 439 81 b 525 86 499 81 514 83 b 567 54 546 92 561 78 b 544 3 571 31 564 11 b 464 -8 529 -3 493 -8 b 324 136 376 -7 324 35 l 324 654 l 64 654 b 28 699 39 654 28 674 b 64 743 28 724 39 743 l 721 743 "},"υ":{"ha":824,"x_min":null,"x_max":null,"o":"m 164 732 b 213 690 189 732 213 719 l 213 278 b 413 83 213 144 299 83 b 611 278 524 83 611 144 l 611 690 b 660 732 611 719 635 732 b 711 690 686 732 711 719 l 711 254 b 413 -6 711 93 583 -6 b 113 254 240 -6 113 93 l 113 690 b 164 732 113 719 138 732 "},"φ":{"ha":953,"x_min":null,"x_max":null,"o":"m 476 742 b 869 397 710 742 869 624 l 869 339 b 522 -4 869 126 731 10 l 522 -229 b 475 -269 522 -258 500 -269 b 428 -229 450 -269 428 -258 l 428 -4 b 83 339 221 11 83 126 l 83 397 b 476 742 83 624 243 742 m 428 650 b 183 392 281 638 183 556 l 183 344 b 428 85 183 181 281 97 l 428 650 m 522 83 b 769 344 671 97 769 179 l 769 392 b 522 650 769 557 671 638 l 522 83 "},"χ":{"ha":792,"x_min":null,"x_max":null,"o":"m 151 742 b 257 658 200 742 231 724 l 399 317 l 571 703 b 631 728 583 731 606 738 b 658 668 656 719 672 699 l 457 250 l 624 -135 b 665 -185 642 -178 650 -185 b 694 -181 675 -185 685 -183 b 738 -204 715 -174 731 -185 b 721 -254 743 -224 742 -243 b 647 -271 700 -264 675 -271 b 536 -187 593 -271 563 -253 l 383 181 l 193 -233 b 133 -260 181 -261 158 -268 b 107 -200 107 -253 92 -231 l 325 247 l 169 606 b 128 657 150 649 143 657 b 99 651 118 657 108 654 b 56 676 78 644 63 656 b 72 725 50 694 51 714 b 151 742 93 736 117 742 "},"ψ":{"ha":963,"x_min":null,"x_max":null,"o":"m 136 732 b 185 690 164 732 185 719 l 185 442 b 432 89 185 203 260 101 l 432 690 b 481 732 432 719 454 732 b 531 690 508 732 531 719 l 531 89 b 778 442 703 101 778 203 l 778 690 b 826 732 778 719 799 732 b 876 690 854 732 876 719 l 876 432 b 531 -3 876 142 764 10 l 531 -228 b 481 -269 531 -257 508 -269 b 432 -228 454 -269 432 -257 l 432 -3 b 86 432 197 11 86 142 l 86 690 b 136 732 86 719 108 732 "},"ω":{"ha":1036,"x_min":null,"x_max":null,"o":"m 251 744 b 274 688 272 733 286 711 b 185 369 226 599 185 510 l 185 350 b 343 85 185 146 264 85 b 469 244 421 85 469 153 l 469 519 b 518 558 469 547 493 558 b 567 519 543 558 567 547 l 567 243 b 693 85 567 151 615 85 b 853 350 771 85 853 146 l 853 369 b 764 688 853 510 815 585 b 785 744 751 711 764 733 b 844 733 804 756 832 756 b 950 375 907 629 950 504 l 950 344 b 704 -6 950 78 831 -6 b 519 115 621 -6 551 40 l 518 115 b 332 -6 486 40 415 -6 b 86 344 206 -6 86 78 l 86 375 b 192 733 86 504 129 628 b 251 744 204 756 232 756 "},"Ё":{"ha":840,"x_min":null,"x_max":null,"o":"m 332 1218 b 396 1157 368 1218 396 1190 b 332 1094 396 1122 368 1094 b 268 1157 296 1094 268 1122 b 332 1218 268 1190 296 1218 m 549 1218 b 613 1157 585 1218 613 1190 b 549 1094 613 1122 585 1094 b 485 1157 513 1094 485 1122 b 549 1218 485 1190 513 1218 m 703 993 b 739 949 728 993 739 974 b 703 906 739 925 728 906 l 229 906 l 229 556 l 675 556 b 710 513 699 556 710 536 b 675 469 710 489 699 469 l 229 469 l 229 93 l 713 93 b 749 50 738 93 749 74 b 713 6 749 25 738 6 l 221 6 b 128 97 151 6 128 28 l 128 901 b 221 993 128 971 151 993 l 703 993 "},"А":{"ha":917,"x_min":null,"x_max":null,"o":"m 460 999 b 521 954 488 999 508 988 l 865 65 b 836 4 876 36 863 13 b 769 31 808 -6 781 0 l 665 307 l 249 307 l 143 29 b 78 4 132 0 106 -6 b 51 64 53 13 40 35 l 397 954 b 460 999 410 988 432 999 m 458 878 b 386 671 439 811 417 749 l 281 393 l 635 393 l 532 671 b 458 878 503 746 478 815 "},"Б":{"ha":857,"x_min":null,"x_max":null,"o":"m 692 993 b 728 949 717 993 728 974 b 692 904 728 924 717 904 l 228 904 l 228 588 l 458 588 b 790 303 676 588 790 482 l 790 288 b 461 3 790 110 682 3 l 221 3 b 128 94 151 3 128 25 l 128 901 b 221 993 128 971 151 993 l 692 993 m 458 92 b 689 289 618 92 689 163 l 689 303 b 446 499 689 433 618 499 l 228 499 l 228 92 "},"В":{"ha":889,"x_min":null,"x_max":null,"o":"m 467 993 b 776 749 678 993 776 914 l 776 726 b 614 525 776 638 733 554 b 822 297 743 507 822 438 l 822 269 b 513 6 822 104 728 6 l 221 6 b 128 97 151 6 128 28 l 128 901 b 221 993 128 971 151 993 l 467 993 m 453 565 b 674 728 599 565 674 611 l 674 746 b 446 906 674 853 611 906 l 228 906 l 228 565 m 485 93 b 718 276 642 93 718 143 l 718 300 b 456 479 718 417 651 479 l 228 479 l 228 93 "},"Г":{"ha":763,"x_min":null,"x_max":null,"o":"m 697 993 b 735 949 724 993 735 974 b 697 904 735 924 724 904 l 229 904 l 229 42 b 178 0 229 13 206 0 b 128 42 151 0 128 13 l 128 901 b 221 993 128 971 151 993 l 697 993 "},"Д":{"ha":938,"x_min":null,"x_max":null,"o":"m 683 993 b 778 901 754 993 778 971 l 778 81 b 861 4 835 81 861 61 l 861 -193 b 817 -232 861 -221 840 -232 b 769 -193 790 -232 769 -221 l 769 -4 l 118 -4 l 118 -193 b 72 -232 118 -221 97 -232 b 28 -193 49 -232 28 -221 l 28 4 b 104 81 28 61 56 81 b 249 817 250 328 249 588 l 249 901 b 343 993 249 971 272 993 l 683 993 m 343 800 b 211 81 343 539 335 322 l 688 81 l 688 907 l 343 907 l 343 800 "},"Е":{"ha":840,"x_min":null,"x_max":null,"o":"m 703 993 b 739 949 728 993 739 974 b 703 906 739 925 728 906 l 229 906 l 229 556 l 675 556 b 710 513 699 556 710 536 b 675 469 710 489 699 469 l 229 469 l 229 93 l 713 93 b 749 50 738 93 749 74 b 713 6 749 25 738 6 l 221 6 b 128 97 151 6 128 28 l 128 901 b 221 993 128 971 151 993 l 703 993 "},"Ж":{"ha":1251,"x_min":null,"x_max":null,"o":"m 124 1001 b 319 854 219 1001 267 969 l 378 731 b 540 568 426 625 453 568 l 576 568 l 576 958 b 625 999 576 986 600 999 b 675 958 651 999 675 986 l 675 568 l 711 568 b 874 731 799 568 825 625 l 932 854 b 1128 1001 985 969 1032 1001 b 1175 996 1146 1001 1163 1000 b 1203 940 1201 989 1213 967 b 1153 910 1194 914 1176 906 b 1124 913 1144 911 1136 913 b 1006 789 1063 913 1044 878 l 958 685 b 828 524 925 607 881 549 b 953 404 872 507 907 474 l 1174 74 b 1163 8 1190 49 1185 24 b 1096 22 1138 -8 1110 0 l 878 353 b 711 479 818 443 783 479 l 675 479 l 675 40 b 625 -1 675 11 651 -1 b 576 40 600 -1 576 11 l 576 479 l 540 479 b 374 353 468 479 433 443 l 156 22 b 89 8 142 0 114 -8 b 78 74 67 24 61 49 l 299 404 b 424 524 344 474 379 507 b 293 685 371 549 326 607 l 246 789 b 128 913 207 878 189 913 b 99 910 115 913 107 911 b 49 940 75 906 57 914 b 76 996 39 967 50 989 b 124 1001 89 1000 106 1001 "},"З":{"ha":797,"x_min":null,"x_max":null,"o":"m 381 1008 b 689 757 576 1008 689 901 l 689 750 b 507 521 689 664 640 564 b 728 292 639 501 728 418 l 728 278 b 389 -10 728 129 621 -10 b 92 79 275 -10 168 25 b 78 147 67 96 63 122 b 143 161 94 172 118 178 b 385 82 214 111 294 82 b 626 281 553 82 626 181 l 626 292 b 385 474 626 439 493 474 l 294 474 b 257 518 268 474 257 493 b 294 564 257 543 268 564 l 378 564 b 589 749 478 564 589 617 l 589 753 b 381 918 589 850 515 918 b 175 819 290 918 225 882 b 113 819 157 800 131 800 b 108 882 93 838 93 863 b 381 1008 160 953 256 1008 "},"И":{"ha":972,"x_min":null,"x_max":null,"o":"m 175 999 b 225 958 201 999 225 986 l 225 131 b 271 233 236 167 254 204 l 679 924 b 769 994 714 985 732 994 b 844 907 821 994 844 972 l 844 40 b 796 0 844 13 821 0 b 747 40 771 0 747 13 l 747 869 b 700 765 735 829 715 792 l 293 75 b 203 4 257 14 240 4 b 128 92 151 4 128 26 l 128 958 b 175 999 128 986 151 999 "},"Й":{"ha":972,"x_min":null,"x_max":null,"o":"m 175 999 b 225 958 201 999 225 986 l 225 131 b 271 233 236 167 254 204 l 679 924 b 769 994 714 985 732 994 b 844 907 821 994 844 972 l 844 40 b 796 0 844 13 821 0 b 747 40 771 0 747 13 l 747 869 b 700 765 735 829 715 792 l 293 75 b 203 4 257 14 240 4 b 128 92 151 4 128 26 l 128 958 b 175 999 128 986 151 999 m 636 1214 b 663 1174 657 1208 667 1194 b 488 1036 650 1103 588 1036 b 313 1174 388 1036 325 1103 b 339 1214 308 1194 318 1208 b 381 1192 360 1218 375 1210 b 488 1110 392 1143 431 1110 b 594 1192 544 1110 583 1143 b 636 1214 600 1210 615 1218 "},"К":{"ha":865,"x_min":null,"x_max":null,"o":"m 714 1001 b 761 996 732 1001 749 1000 b 789 940 788 989 797 965 b 738 910 781 915 763 906 b 708 913 731 911 721 913 b 588 788 646 913 628 878 l 546 689 b 413 524 510 606 465 549 b 539 404 457 507 490 474 l 764 74 b 753 8 781 49 775 24 b 686 22 728 -8 700 0 l 468 346 b 286 479 404 440 363 479 l 226 479 l 226 40 b 176 -1 226 11 203 -1 b 128 40 151 -1 128 11 l 128 958 b 176 999 128 986 151 999 b 226 958 203 999 226 986 l 226 568 l 288 568 b 463 738 382 568 411 626 l 514 847 b 714 1001 569 968 615 1001 "},"Л":{"ha":958,"x_min":null,"x_max":null,"o":"m 738 993 b 831 901 807 993 831 971 l 831 42 b 781 0 831 13 807 0 b 729 42 753 0 729 13 l 729 904 l 375 904 l 375 571 b 92 6 375 228 332 97 b 32 38 63 -6 40 11 b 57 96 25 60 28 85 b 274 585 251 169 274 260 l 274 901 b 367 993 274 971 297 993 l 738 993 "},"М":{"ha":1179,"x_min":null,"x_max":null,"o":"m 207 994 b 290 925 247 994 264 983 l 593 286 l 889 924 b 972 994 913 982 932 994 l 983 994 b 1051 913 1033 994 1051 972 l 1051 40 b 1003 0 1051 13 1029 0 b 956 40 978 0 956 13 l 956 878 b 890 721 933 815 914 772 l 649 206 b 592 165 635 175 618 165 b 532 207 561 165 546 175 l 290 721 b 224 878 267 771 247 815 l 224 40 b 175 0 224 13 201 0 b 128 40 151 0 128 13 l 128 913 b 196 994 128 972 146 994 l 207 994 "},"Н":{"ha":972,"x_min":null,"x_max":null,"o":"m 178 999 b 229 957 206 999 229 986 l 229 567 l 743 567 l 743 957 b 793 999 743 986 767 999 b 844 957 821 999 844 986 l 844 42 b 793 0 844 13 821 0 b 743 42 767 0 743 13 l 743 479 l 229 479 l 229 42 b 178 0 229 13 206 0 b 128 42 151 0 128 13 l 128 957 b 178 999 128 986 151 999 "},"О":{"ha":978,"x_min":null,"x_max":null,"o":"m 489 1008 b 889 538 754 1008 889 847 l 889 461 b 489 -10 889 151 754 -10 b 89 461 224 -10 89 151 l 89 538 b 489 1008 89 847 224 1008 m 489 915 b 192 526 285 915 192 789 l 192 472 b 489 83 192 210 285 83 b 786 472 693 83 786 210 l 786 526 b 489 915 786 789 693 915 "},"П":{"ha":944,"x_min":null,"x_max":null,"o":"m 722 993 b 817 901 793 993 817 971 l 817 42 b 767 0 817 13 793 0 b 715 42 739 0 715 13 l 715 904 l 229 904 l 229 42 b 178 0 229 13 206 0 b 128 42 151 0 128 13 l 128 901 b 221 993 128 971 151 993 l 722 993 "},"Р":{"ha":847,"x_min":null,"x_max":null,"o":"m 461 993 b 790 708 682 993 790 886 l 790 686 b 458 396 790 507 676 396 l 229 396 l 229 42 b 178 0 229 13 206 0 b 128 42 151 0 128 13 l 128 901 b 221 993 128 971 151 993 l 461 993 m 446 485 b 689 689 618 485 689 557 l 689 707 b 458 904 689 833 618 904 l 229 904 l 229 485 "},"С":{"ha":896,"x_min":null,"x_max":null,"o":"m 488 1008 b 772 935 611 1008 703 979 b 783 868 796 918 799 892 b 722 854 769 847 746 839 b 485 914 657 894 592 914 b 192 526 288 914 192 783 l 192 472 b 488 86 192 218 285 86 b 749 167 599 86 681 115 b 813 156 769 182 796 178 b 803 85 831 132 828 103 b 486 -10 728 26 625 -10 b 89 461 222 -10 89 153 l 89 538 b 488 1008 89 847 224 1008 "},"Т":{"ha":813,"x_min":null,"x_max":null,"o":"m 749 993 b 785 949 774 993 785 974 b 749 904 785 924 774 904 l 457 904 l 457 42 b 406 0 457 13 433 0 b 356 42 379 0 356 13 l 356 904 l 64 904 b 28 949 39 904 28 924 b 64 993 28 974 39 993 l 749 993 "},"У":{"ha":793,"x_min":null,"x_max":null,"o":"m 706 994 b 736 938 731 988 746 965 l 367 13 b 304 -8 357 -12 329 -18 b 276 47 281 1 267 22 l 364 268 l 58 935 b 89 994 47 964 65 985 b 153 971 113 1003 142 1000 l 414 383 l 415 383 l 644 969 b 706 994 654 999 682 1003 "},"Ф":{"ha":1038,"x_min":null,"x_max":null,"o":"m 518 1018 b 568 976 546 1018 568 1007 l 568 894 b 951 542 807 882 951 763 l 951 479 b 568 126 951 258 807 142 l 568 42 b 518 0 568 13 546 0 b 471 42 492 0 471 13 l 471 126 b 88 479 231 142 88 258 l 88 542 b 471 894 88 763 231 882 l 471 976 b 518 1018 471 1007 492 1018 m 471 804 b 189 536 290 793 189 708 l 189 486 b 471 217 189 314 290 229 l 471 804 m 568 217 b 850 486 747 229 850 314 l 850 536 b 568 804 850 708 747 793 l 568 217 "},"Х":{"ha":885,"x_min":null,"x_max":null,"o":"m 775 990 b 790 925 799 976 808 951 l 511 514 l 806 76 b 793 8 824 49 817 24 b 721 24 768 -6 739 -3 l 444 446 l 160 25 b 92 8 143 -1 115 -7 b 78 74 69 22 60 47 l 383 515 l 97 922 b 114 990 79 950 89 976 b 188 974 140 1006 169 1000 l 451 582 l 708 974 b 775 990 725 1000 751 1006 "},"Ц":{"ha":940,"x_min":null,"x_max":null,"o":"m 178 999 b 229 957 206 999 229 986 l 229 94 l 699 94 l 699 957 b 751 999 699 986 724 999 b 801 957 778 999 801 986 l 801 94 b 888 17 863 94 888 74 l 888 -193 b 839 -235 888 -222 865 -235 b 788 -193 811 -235 788 -222 l 788 6 l 221 6 b 128 97 151 6 128 28 l 128 957 b 178 999 128 986 151 999 "},"Ч":{"ha":864,"x_min":null,"x_max":null,"o":"m 147 999 b 197 957 172 999 197 986 l 197 639 b 404 443 197 506 271 443 b 636 613 535 443 636 535 l 636 956 b 688 999 636 986 660 999 b 738 956 713 999 738 986 l 738 42 b 688 0 738 13 713 0 b 636 42 660 0 636 13 l 636 464 l 635 464 b 379 356 607 413 503 356 b 96 615 204 356 96 457 l 96 957 b 147 999 96 986 121 999 "},"Ш":{"ha":1332,"x_min":null,"x_max":null,"o":"m 178 999 b 229 957 206 999 229 986 l 229 94 l 615 94 l 615 957 b 665 999 615 986 639 999 b 717 957 693 999 717 986 l 717 94 l 1103 94 l 1103 957 b 1156 999 1103 986 1128 999 b 1206 957 1181 999 1206 986 l 1206 97 b 1111 6 1206 28 1182 6 l 221 6 b 128 97 151 6 128 28 l 128 957 b 178 999 128 986 151 999 "},"Щ":{"ha":1344,"x_min":null,"x_max":null,"o":"m 178 999 b 229 957 206 999 229 986 l 229 94 l 615 94 l 615 957 b 665 999 615 986 639 999 b 717 957 693 999 717 986 l 717 94 l 1103 94 l 1103 957 b 1156 999 1103 986 1128 999 b 1206 957 1181 999 1206 986 l 1206 94 b 1292 17 1267 94 1292 74 l 1292 -193 b 1243 -235 1292 -222 1269 -235 b 1192 -193 1215 -235 1192 -222 l 1192 6 l 221 6 b 128 97 151 6 128 28 l 128 957 b 178 999 128 986 151 999 "},"Ъ":{"ha":950,"x_min":null,"x_max":null,"o":"m 204 993 b 299 901 275 993 299 971 l 299 597 l 554 597 b 886 311 771 597 886 490 l 886 288 b 557 3 886 110 776 3 l 293 3 b 199 94 222 3 199 25 l 199 906 l 47 906 b 11 949 22 906 11 925 b 47 993 11 974 22 993 l 204 993 m 554 92 b 783 289 713 92 783 163 l 783 310 b 542 508 783 440 713 508 l 299 508 l 299 92 "},"Ы":{"ha":1161,"x_min":null,"x_max":null,"o":"m 176 999 b 228 957 204 999 228 986 l 228 597 l 482 597 b 814 311 700 597 814 490 l 814 288 b 485 3 814 110 706 3 l 221 3 b 128 94 151 3 128 25 l 128 957 b 176 999 128 986 150 999 m 983 999 b 1035 957 1011 999 1035 986 l 1035 42 b 983 0 1035 13 1011 0 b 935 42 957 0 935 13 l 935 957 b 983 999 935 986 957 999 m 482 92 b 713 289 642 92 713 163 l 713 310 b 469 508 713 440 642 508 l 228 508 l 228 92 "},"Ь":{"ha":878,"x_min":null,"x_max":null,"o":"m 176 999 b 228 957 204 999 228 986 l 228 597 l 482 597 b 814 311 700 597 814 490 l 814 288 b 485 3 814 110 706 3 l 221 3 b 128 94 151 3 128 25 l 128 957 b 176 999 128 986 150 999 m 482 92 b 713 289 642 92 713 163 l 713 310 b 469 508 713 440 642 508 l 228 508 l 228 92 "},"Э":{"ha":896,"x_min":null,"x_max":null,"o":"m 408 1008 b 807 538 672 1008 807 847 l 807 461 b 410 -10 807 153 674 -10 b 93 85 271 -10 168 26 b 83 156 68 103 65 132 b 147 167 100 178 126 182 b 408 86 215 115 297 86 b 704 456 606 86 700 211 l 265 456 b 229 499 240 456 229 474 b 265 542 229 524 240 542 l 704 542 b 411 914 699 789 603 914 b 174 854 304 914 239 894 b 113 868 150 839 126 847 b 124 935 97 892 100 918 b 408 1008 193 979 285 1008 "},"Ю":{"ha":1269,"x_min":null,"x_max":null,"o":"m 797 1008 b 1181 538 1054 1008 1181 847 l 1181 461 b 797 -10 1181 151 1054 -10 b 414 451 544 -10 419 147 l 226 451 l 226 42 b 176 0 226 13 204 0 b 128 42 150 0 128 13 l 128 957 b 176 999 128 986 150 999 b 226 957 204 999 226 986 l 226 538 l 414 538 b 797 1008 417 850 543 1008 m 797 915 b 517 526 601 915 517 789 l 517 472 b 797 83 517 210 601 83 b 1078 472 993 83 1078 210 l 1078 526 b 797 915 1078 789 993 915 "},"Я":{"ha":886,"x_min":null,"x_max":null,"o":"m 665 993 b 758 901 735 993 758 971 l 758 42 b 708 0 758 13 735 0 b 657 42 681 0 657 13 l 657 426 l 446 426 b 386 431 425 426 406 428 l 183 25 b 117 7 169 -1 143 -7 b 94 69 90 19 81 42 l 288 447 b 101 701 169 483 101 569 l 101 726 b 429 993 101 907 226 993 l 665 993 m 436 904 b 203 722 278 904 203 844 l 203 704 b 449 515 203 581 278 515 l 657 515 l 657 904 l 436 904 "},"а":{"ha":767,"x_min":null,"x_max":null,"o":"m 382 742 b 656 503 551 742 656 650 l 656 39 b 608 0 656 11 632 0 b 561 39 585 0 561 11 l 561 107 l 560 107 b 481 29 546 78 517 49 b 329 -6 442 8 392 -6 b 81 208 176 -6 81 74 l 81 222 b 346 431 81 340 157 431 l 556 431 l 556 482 b 379 654 556 599 501 654 b 185 594 308 654 243 632 b 126 610 163 581 139 589 b 138 669 114 629 115 654 b 382 742 196 710 286 742 m 349 350 b 179 219 225 350 179 294 l 179 211 b 336 81 179 131 235 81 b 471 108 390 81 433 89 b 557 246 522 136 557 182 l 557 350 l 349 350 "},"б":{"ha":804,"x_min":null,"x_max":null,"o":"m 615 1049 b 661 1010 640 1051 657 1035 b 631 961 664 986 656 965 b 197 615 390 919 249 868 b 403 706 243 671 319 706 b 721 367 601 706 721 590 l 721 333 b 403 -6 721 110 601 -6 b 83 333 203 -6 83 110 l 83 385 b 615 1049 85 851 225 985 m 403 617 b 183 361 261 617 183 538 l 183 339 b 403 83 183 158 261 83 b 621 339 543 83 621 158 l 621 361 b 403 617 621 538 543 617 "},"в":{"ha":765,"x_min":null,"x_max":null,"o":"m 433 726 b 663 543 590 726 663 667 l 663 526 b 575 386 663 469 635 415 b 696 222 650 365 696 315 l 696 203 b 467 6 696 79 626 6 l 197 6 b 121 81 142 6 121 24 l 121 651 b 197 726 121 708 142 726 l 433 726 m 417 421 b 563 524 514 421 563 450 l 563 539 b 411 640 563 606 521 640 l 219 640 l 219 421 m 439 86 b 594 204 543 86 594 119 l 594 221 b 417 336 594 296 550 336 l 219 336 l 219 86 "},"г":{"ha":588,"x_min":null,"x_max":null,"o":"m 533 726 b 571 682 560 726 571 707 b 533 638 571 657 560 638 l 219 638 l 219 42 b 169 0 219 13 197 0 b 121 42 143 0 121 13 l 121 635 b 215 726 121 704 144 726 l 533 726 "},"д":{"ha":808,"x_min":null,"x_max":null,"o":"m 578 726 b 672 635 649 726 672 704 l 672 79 b 739 7 714 78 739 61 l 739 -143 b 690 -186 739 -174 717 -186 b 642 -143 663 -186 642 -174 l 642 -4 l 118 -4 l 118 -143 b 69 -186 118 -174 97 -186 b 21 -143 43 -186 21 -174 l 21 7 b 81 79 21 61 43 75 b 199 560 193 254 199 378 l 199 635 b 292 726 199 704 222 726 l 578 726 m 296 540 b 190 79 296 354 285 251 l 575 79 l 575 638 l 296 638 l 296 540 "},"е":{"ha":788,"x_min":null,"x_max":null,"o":"m 397 742 b 706 414 588 742 706 622 l 706 411 b 625 335 706 357 683 335 l 182 335 l 182 328 b 408 81 182 163 265 81 b 617 133 494 81 558 99 b 674 117 640 146 663 139 b 658 57 685 94 681 71 b 403 -6 596 19 511 -6 b 83 339 206 -6 83 110 l 83 397 b 397 742 83 625 207 742 m 397 657 b 182 421 264 657 182 571 l 182 414 l 608 414 l 608 425 b 397 657 608 572 532 657 "},"ж":{"ha":1040,"x_min":null,"x_max":null,"o":"m 519 732 b 567 692 546 732 567 721 l 567 431 l 603 431 b 724 542 663 431 690 468 l 763 629 b 919 739 806 725 846 739 b 964 735 936 739 953 738 b 992 685 989 729 996 707 b 949 650 986 658 968 647 b 924 653 942 651 932 653 b 835 572 886 653 864 640 l 799 490 b 699 392 774 435 739 406 b 808 301 744 378 772 354 l 963 74 b 951 11 979 49 971 25 b 886 21 926 -7 901 -1 l 725 264 b 600 349 682 331 650 349 l 567 349 l 567 40 b 519 0 567 11 546 0 b 472 40 494 0 472 11 l 472 349 l 440 349 b 314 264 390 349 357 331 l 154 21 b 89 11 139 -1 114 -7 b 78 74 69 25 61 49 l 231 301 b 342 392 267 354 296 378 b 242 490 301 406 265 435 l 206 572 b 117 653 176 640 153 653 b 92 650 107 653 99 651 b 49 685 72 647 54 658 b 76 735 44 707 51 729 b 121 739 88 738 104 739 b 278 629 194 739 235 725 l 317 542 b 438 431 350 468 378 431 l 472 431 l 472 692 b 519 732 472 721 494 732 "},"з":{"ha":679,"x_min":null,"x_max":null,"o":"m 333 754 b 585 556 483 754 585 669 l 585 551 b 465 386 585 489 536 418 b 614 217 551 365 614 307 l 614 208 b 339 -14 614 93 517 -14 b 100 53 253 -14 157 13 b 88 113 79 67 75 90 b 151 128 101 138 126 144 b 338 74 201 94 271 74 b 524 210 456 74 524 140 l 524 217 b 338 340 524 318 417 340 l 256 340 b 217 385 229 340 217 361 b 256 429 217 410 229 429 l 331 429 b 496 554 406 429 496 465 b 333 668 496 618 428 668 b 174 601 269 668 207 644 b 114 601 157 582 133 583 b 110 657 97 617 96 640 b 333 754 150 710 238 754 "},"и":{"ha":838,"x_min":null,"x_max":null,"o":"m 169 732 b 218 690 196 732 218 719 l 218 132 b 260 213 229 165 243 190 l 575 671 b 651 731 608 719 619 731 b 717 653 696 731 717 711 l 717 42 b 668 0 717 13 694 0 b 619 42 643 0 619 13 l 619 597 b 578 515 610 564 594 540 l 263 54 b 186 1 229 6 218 1 b 121 79 142 1 121 21 l 121 690 b 169 732 121 719 144 732 "},"й":{"ha":838,"x_min":null,"x_max":null,"o":"m 282 999 b 321 972 303 1000 317 992 b 428 892 331 926 367 892 b 533 972 489 892 525 926 b 572 999 538 992 551 1000 b 604 963 593 996 607 983 b 428 821 593 886 529 821 b 250 963 325 821 263 886 b 282 999 247 983 263 996 m 169 732 b 218 690 196 732 218 719 l 218 132 b 260 213 229 165 243 190 l 575 671 b 651 731 608 719 619 731 b 717 653 696 731 717 711 l 717 42 b 668 0 717 13 694 0 b 619 42 643 0 619 13 l 619 597 b 578 515 610 564 594 540 l 263 54 b 186 1 229 6 218 1 b 121 79 142 1 121 21 l 121 690 b 169 732 121 719 144 732 "},"к":{"ha":711,"x_min":null,"x_max":null,"o":"m 168 732 b 215 692 193 732 215 721 l 215 432 l 274 432 b 396 539 336 432 367 472 l 436 633 b 585 738 474 719 517 738 b 639 732 608 738 625 736 b 664 682 661 726 668 706 b 621 650 658 660 642 646 b 596 653 614 651 604 653 b 511 576 560 653 539 642 l 474 490 b 378 392 453 439 418 407 b 485 301 424 378 450 353 l 639 74 b 628 11 656 49 647 25 b 563 21 603 -7 578 -1 l 397 269 b 272 349 357 331 325 349 l 215 349 l 215 40 b 168 0 215 11 193 0 b 121 40 143 0 121 11 l 121 692 b 168 732 121 721 143 732 "},"л":{"ha":835,"x_min":null,"x_max":null,"o":"m 621 726 b 714 635 690 726 714 704 l 714 42 b 665 0 714 13 692 0 b 615 42 638 0 615 13 l 615 638 l 307 638 l 307 415 b 96 3 307 211 286 63 b 38 33 67 -6 46 7 b 60 93 29 57 32 82 b 208 429 192 140 208 218 l 208 635 b 303 726 208 704 232 726 l 621 726 "},"м":{"ha":968,"x_min":null,"x_max":null,"o":"m 192 733 b 265 678 226 733 243 725 l 486 242 l 703 678 b 776 733 724 725 742 733 l 785 733 b 847 657 829 733 847 713 l 847 40 b 799 0 847 13 824 0 b 750 40 772 0 750 13 l 750 592 b 693 458 733 543 717 501 l 539 160 b 485 122 526 133 513 122 b 431 160 457 122 443 133 l 276 458 b 217 592 253 501 235 543 l 217 40 b 169 0 217 13 194 0 b 121 40 144 0 121 13 l 121 657 b 183 733 121 713 138 733 l 192 733 "},"н":{"ha":843,"x_min":null,"x_max":null,"o":"m 169 732 b 219 690 197 732 219 719 l 219 428 l 624 428 l 624 690 b 672 732 624 719 646 732 b 722 690 700 732 722 719 l 722 42 b 672 0 722 13 700 0 b 624 42 646 0 624 13 l 624 343 l 219 343 l 219 42 b 169 0 219 13 197 0 b 121 42 143 0 121 13 l 121 690 b 169 732 121 719 143 732 "},"о":{"ha":818,"x_min":null,"x_max":null,"o":"m 410 742 b 735 397 610 742 735 624 l 735 339 b 410 -6 735 113 610 -6 b 83 339 208 -6 83 113 l 83 397 b 410 742 83 624 208 742 m 410 653 b 183 392 267 653 183 572 l 183 344 b 410 83 183 164 267 83 b 635 344 551 83 635 164 l 635 392 b 410 653 635 572 551 653 "},"п":{"ha":817,"x_min":null,"x_max":null,"o":"m 601 726 b 696 635 672 726 696 704 l 696 42 b 647 0 696 13 672 0 b 596 42 619 0 596 13 l 596 638 l 219 638 l 219 42 b 169 0 219 13 197 0 b 121 42 143 0 121 13 l 121 635 b 215 726 121 704 144 726 l 601 726 "},"р":{"ha":822,"x_min":null,"x_max":null,"o":"m 449 742 b 739 397 640 742 739 624 l 739 339 b 440 -6 739 108 622 -6 b 221 96 347 -6 261 32 l 221 -228 b 171 -269 221 -257 197 -269 b 121 -228 146 -269 121 -257 l 121 692 b 169 732 121 719 144 732 b 218 692 194 732 218 719 l 218 617 b 449 742 260 694 349 742 m 433 654 b 219 444 324 654 219 574 l 219 253 b 435 82 219 164 307 82 b 640 346 561 82 640 163 l 640 392 b 433 654 640 569 575 654 "},"с":{"ha":719,"x_min":null,"x_max":null,"o":"m 399 742 b 624 683 496 742 571 717 b 635 621 646 669 649 642 b 576 607 622 600 600 593 b 399 653 529 636 469 653 b 183 393 267 653 183 574 l 183 344 b 401 83 183 165 268 83 b 597 138 482 83 544 103 b 656 124 621 151 643 144 b 644 60 671 101 668 76 b 400 -6 586 21 506 -6 b 83 339 206 -6 83 108 l 83 397 b 399 742 83 628 206 742 "},"т":{"ha":639,"x_min":null,"x_max":null,"o":"m 567 726 b 604 682 593 726 604 707 b 567 638 604 657 593 638 l 368 638 l 368 42 b 317 0 368 13 344 0 b 268 42 292 0 268 13 l 268 638 l 71 638 b 35 682 46 638 35 657 b 71 726 35 707 46 726 l 567 726 "},"у":{"ha":718,"x_min":null,"x_max":null,"o":"m 640 728 b 671 671 665 721 681 699 l 310 -249 b 247 -269 300 -274 272 -279 b 219 -214 224 -260 210 -240 l 311 10 l 47 668 b 78 728 36 697 54 718 b 142 704 103 736 132 733 l 361 125 l 363 125 l 579 703 b 640 728 589 732 617 736 "},"ф":{"ha":942,"x_min":null,"x_max":null,"o":"m 469 999 b 517 960 497 999 517 986 l 517 732 b 858 394 721 719 858 601 l 858 336 b 517 -3 858 128 721 13 l 517 -233 b 469 -272 517 -260 497 -272 b 425 -233 446 -272 425 -260 l 425 -3 b 83 336 219 13 83 128 l 83 394 b 425 732 83 601 221 719 l 425 960 b 469 999 425 986 446 999 m 425 642 b 183 389 279 631 183 549 l 183 342 b 425 86 183 181 279 100 l 425 642 m 517 86 b 758 342 661 100 758 181 l 758 389 b 517 642 758 549 661 631 l 517 86 "},"х":{"ha":708,"x_min":null,"x_max":null,"o":"m 93 722 b 164 710 114 738 144 736 l 358 440 l 550 710 b 619 721 569 736 597 738 b 629 657 640 706 647 682 l 419 375 l 644 78 b 635 10 664 53 658 28 b 564 22 614 -6 583 -4 l 354 308 l 142 22 b 74 11 122 -4 96 -6 b 64 75 53 26 44 50 l 293 372 l 83 654 b 93 722 64 679 71 704 "},"ц":{"ha":782,"x_min":null,"x_max":null,"o":"m 169 732 b 219 690 197 732 219 719 l 219 94 l 572 94 l 572 690 b 624 732 572 719 596 732 b 672 690 649 732 672 719 l 672 94 b 742 17 719 90 742 69 l 742 -147 b 693 -189 742 -176 718 -189 b 642 -147 665 -189 642 -176 l 642 6 l 215 6 b 121 97 144 6 121 28 l 121 690 b 169 732 121 719 143 732 "},"ч":{"ha":753,"x_min":null,"x_max":null,"o":"m 125 732 b 172 693 149 732 172 721 l 172 540 b 342 346 172 407 231 346 b 538 515 458 346 538 438 l 538 692 b 585 732 538 721 560 732 b 632 692 610 732 632 721 l 632 40 b 585 0 632 11 610 0 b 538 40 560 0 538 11 l 538 367 l 536 367 b 318 258 508 315 428 258 b 78 517 163 258 78 358 l 78 693 b 125 732 78 721 101 732 "},"ш":{"ha":1117,"x_min":null,"x_max":null,"o":"m 169 732 b 219 690 197 732 219 719 l 219 94 l 508 94 l 508 690 b 557 732 508 719 531 732 b 607 690 585 732 607 719 l 607 94 l 897 94 l 897 690 b 947 732 897 719 919 732 b 996 690 974 732 996 719 l 996 97 b 901 6 996 28 972 6 l 215 6 b 121 97 144 6 121 28 l 121 690 b 169 732 121 719 143 732 "},"щ":{"ha":1115,"x_min":null,"x_max":null,"o":"m 169 732 b 219 690 197 732 219 719 l 219 94 l 508 94 l 508 690 b 557 732 508 719 531 732 b 607 690 585 732 607 719 l 607 94 l 897 94 l 897 690 b 947 732 897 719 919 732 b 996 690 974 732 996 719 l 996 94 b 1074 17 1050 93 1074 72 l 1074 -147 b 1025 -189 1074 -176 1051 -189 b 975 -147 997 -189 975 -176 l 975 6 l 215 6 b 121 97 144 6 121 28 l 121 690 b 169 732 121 719 143 732 "},"ъ":{"ha":792,"x_min":null,"x_max":null,"o":"m 176 740 b 267 653 243 740 267 719 l 267 468 l 418 468 b 722 247 636 468 722 394 l 722 222 b 421 3 722 76 642 3 l 260 3 b 167 94 190 3 167 25 l 167 656 l 54 656 b 19 699 31 656 19 674 b 54 740 19 722 31 740 l 176 740 m 418 92 b 621 225 578 92 621 135 l 621 246 b 406 379 621 340 578 379 l 267 379 l 267 92 "},"ы":{"ha":986,"x_min":null,"x_max":null,"o":"m 169 732 b 221 690 197 732 221 719 l 221 468 l 374 468 b 678 247 590 468 678 394 l 678 222 b 376 3 678 76 596 3 l 215 3 b 121 94 144 3 121 25 l 121 690 b 169 732 121 719 144 732 m 815 732 b 865 689 843 732 865 719 l 865 42 b 815 0 865 13 843 0 b 767 42 789 0 767 13 l 767 690 b 815 732 767 719 789 732 m 374 92 b 575 225 532 92 575 135 l 575 246 b 361 379 575 340 532 379 l 221 379 l 221 92 "},"ь":{"ha":747,"x_min":null,"x_max":null,"o":"m 169 732 b 221 690 197 732 221 719 l 221 468 l 374 468 b 678 247 590 468 678 394 l 678 222 b 376 3 678 76 596 3 l 215 3 b 121 94 144 3 121 25 l 121 690 b 169 732 121 719 144 732 m 374 92 b 575 225 532 92 575 135 l 575 246 b 361 379 575 340 532 379 l 221 379 l 221 92 "},"э":{"ha":744,"x_min":null,"x_max":null,"o":"m 347 742 b 661 397 539 742 661 628 l 661 339 b 344 -6 661 108 540 -6 b 100 60 239 -6 158 21 b 89 124 78 76 75 101 b 149 138 101 144 125 151 b 343 83 200 103 263 83 b 560 329 471 83 554 156 l 261 329 b 226 371 238 329 226 347 b 261 413 226 394 238 413 l 560 413 b 347 653 554 579 472 653 b 168 607 276 653 217 636 b 110 621 146 593 124 600 b 121 683 96 642 99 669 b 347 742 174 717 249 742 "},"ю":{"ha":1049,"x_min":null,"x_max":null,"o":"m 660 742 b 965 397 850 742 965 624 l 965 339 b 660 -6 965 113 850 -6 b 354 332 475 -6 361 104 l 219 332 l 219 42 b 169 0 219 13 197 0 b 121 42 143 0 121 13 l 121 690 b 169 732 121 719 143 732 b 219 690 197 732 219 719 l 219 418 l 354 418 b 660 742 361 631 474 742 m 660 653 b 454 392 526 653 454 572 l 454 344 b 660 83 454 164 526 83 b 864 344 792 83 864 164 l 864 392 b 660 653 864 572 792 653 "},"я":{"ha":761,"x_min":null,"x_max":null,"o":"m 557 726 b 640 646 619 726 640 706 l 640 43 b 592 0 640 14 617 0 b 540 43 563 0 540 14 l 540 297 l 356 297 b 315 300 342 297 331 297 l 175 26 b 111 7 163 0 138 -7 b 89 68 86 19 75 42 l 218 318 b 85 506 132 346 85 410 l 85 524 b 349 726 85 669 181 726 l 557 726 m 356 640 b 185 521 236 640 185 607 l 185 506 b 367 388 185 419 236 388 l 540 388 l 540 640 l 356 640 "},"ё":{"ha":788,"x_min":null,"x_max":null,"o":"m 276 975 b 340 914 313 975 340 947 b 276 851 340 879 313 851 b 213 914 240 851 213 879 b 276 975 213 947 240 975 m 493 975 b 557 914 529 975 557 947 b 493 851 557 879 529 851 b 429 914 457 851 429 879 b 493 975 429 947 457 975 m 397 742 b 706 414 588 742 706 622 l 706 411 b 625 335 706 357 683 335 l 182 335 l 182 328 b 408 81 182 163 265 81 b 617 133 494 81 558 99 b 674 117 640 146 663 139 b 658 57 685 94 681 71 b 403 -6 596 19 511 -6 b 83 339 206 -6 83 110 l 83 397 b 397 742 83 625 207 742 m 397 657 b 182 421 264 657 182 571 l 182 414 l 608 414 l 608 425 b 397 657 608 572 532 657 "},"‐":{"ha":581,"x_min":null,"x_max":null,"o":"m 499 549 b 539 499 526 549 539 526 b 499 450 539 472 526 450 l 82 450 b 42 499 54 450 42 472 b 82 549 42 526 54 549 l 499 549 "},"–":{"ha":572,"x_min":null,"x_max":null,"o":"m 538 540 l 35 540 b 0 497 11 540 0 524 b 35 457 0 475 11 457 l 538 457 b 572 497 561 457 572 475 b 538 540 572 524 561 540 "},"—":{"ha":1144,"x_min":null,"x_max":null,"o":"m 1110 540 b 1144 497 1133 540 1144 524 b 1110 457 1144 475 1133 457 l 35 457 b 0 497 11 457 0 475 b 35 540 0 524 11 540 l 1110 540 "},"―":{"ha":1144,"x_min":null,"x_max":null,"o":"m 1110 540 l 35 540 b 0 497 11 540 0 524 b 35 457 0 475 11 457 l 1110 457 b 1144 497 1133 457 1144 475 b 1110 540 1144 524 1133 540 "},"‖":{"ha":1264,"x_min":null,"x_max":null,"o":"m 549 -200 l 471 -200 l 471 1133 l 549 1133 m 793 -200 l 714 -200 l 714 1133 l 793 1133 "},"‘":{"ha":278,"x_min":null,"x_max":null,"o":"m 201 1075 b 231 1035 224 1071 235 1057 l 185 792 b 119 756 179 760 149 751 b 81 814 89 761 71 782 l 154 1049 b 201 1075 161 1072 179 1079 "},"’":{"ha":278,"x_min":null,"x_max":null,"o":"m 158 1057 b 197 997 189 1051 207 1029 l 124 764 b 76 738 117 740 99 733 b 47 776 54 740 43 756 l 93 1019 b 158 1057 99 1051 129 1061 "},"“":{"ha":486,"x_min":null,"x_max":null,"o":"m 208 1076 b 236 1036 229 1074 240 1057 l 190 790 b 126 756 185 760 157 751 b 89 807 99 760 79 778 l 164 1050 b 208 1076 171 1072 188 1079 m 404 1076 b 432 1036 425 1074 436 1057 l 386 790 b 322 756 381 760 353 751 b 285 807 294 760 275 778 l 360 1050 b 404 1076 367 1072 383 1079 "},"”":{"ha":486,"x_min":null,"x_max":null,"o":"m 360 1057 b 397 1004 388 1053 407 1033 l 322 763 b 278 736 315 740 299 733 b 250 775 257 739 246 754 l 296 1021 b 360 1057 301 1051 329 1063 m 164 1057 b 201 1004 192 1053 211 1033 l 126 763 b 82 736 119 740 103 733 b 54 775 61 739 50 754 l 100 1021 b 164 1057 106 1051 133 1063 "},"†":{"ha":632,"x_min":null,"x_max":null,"o":"m 314 994 b 365 953 340 994 365 982 l 365 708 l 557 708 b 590 667 579 708 590 689 b 557 625 590 644 579 625 l 365 625 l 365 -58 b 314 -100 365 -87 340 -100 b 265 -58 289 -100 265 -87 l 265 625 l 75 625 b 40 667 51 625 40 644 b 75 708 40 689 51 708 l 265 708 l 265 953 b 314 994 265 982 289 994 "},"‡":{"ha":632,"x_min":null,"x_max":null,"o":"m 314 994 b 365 953 340 994 365 982 l 365 708 l 557 708 b 590 667 579 708 590 689 b 557 625 590 644 579 625 l 365 625 l 365 265 l 557 265 b 590 225 579 265 590 247 b 557 183 590 201 579 183 l 365 183 l 365 -58 b 314 -100 365 -87 340 -100 b 265 -58 289 -100 265 -87 l 265 183 l 75 183 b 40 225 51 183 40 201 b 75 265 40 247 51 265 l 265 265 l 265 625 l 75 625 b 40 667 51 625 40 644 b 75 708 40 689 51 708 l 265 708 l 265 953 b 314 994 265 982 289 994 "},"‥":{"ha":1264,"x_min":null,"x_max":null,"o":"m 431 576 b 510 499 476 576 510 543 b 431 421 510 454 476 421 b 351 499 386 421 351 454 b 431 576 351 543 386 576 m 832 576 b 911 499 876 576 911 543 b 832 421 911 454 876 421 b 753 499 788 421 753 454 b 832 576 753 543 788 576 "},"…":{"ha":1264,"x_min":null,"x_max":null,"o":"m 240 576 b 319 499 285 576 319 543 b 240 421 319 454 285 421 b 161 499 196 421 161 454 b 240 576 161 543 196 576 m 632 576 b 711 499 676 576 711 543 b 632 421 711 454 676 421 b 553 499 588 421 553 454 b 632 576 553 543 588 576 m 1024 576 b 1103 499 1068 576 1103 543 b 1024 421 1103 454 1068 421 b 944 499 979 421 944 454 b 1024 576 944 543 979 576 "},"‰":{"ha":1736,"x_min":null,"x_max":null,"o":"m 314 1008 b 532 767 460 1008 532 917 l 532 735 b 314 493 532 585 460 493 b 96 735 168 493 96 585 l 96 767 b 314 1008 96 917 168 1008 m 917 993 b 932 940 936 982 944 963 l 367 19 b 313 7 354 -1 332 -3 b 297 60 293 17 283 38 l 861 981 b 917 993 874 1000 897 1003 m 314 932 b 179 761 224 932 179 879 l 179 739 b 314 569 179 621 224 569 b 447 739 403 569 447 621 l 447 761 b 314 932 447 879 403 932 m 913 507 b 1131 264 1058 507 1131 415 l 1131 233 b 913 -8 1131 83 1058 -8 b 694 233 767 -8 694 83 l 694 264 b 913 507 694 415 767 507 m 1424 507 b 1642 264 1569 507 1642 415 l 1642 233 b 1424 -8 1642 83 1569 -8 b 1206 233 1278 -8 1206 83 l 1206 264 b 1424 507 1206 415 1278 507 m 913 431 b 779 260 824 431 779 378 l 779 238 b 913 67 779 119 824 67 b 1047 238 1003 67 1047 119 l 1047 260 b 913 431 1047 378 1003 431 m 1424 431 b 1289 260 1333 431 1289 378 l 1289 238 b 1424 67 1289 119 1333 67 b 1557 238 1513 67 1557 119 l 1557 260 b 1424 431 1557 378 1513 431 "},"′":{"ha":635,"x_min":null,"x_max":null,"o":"m 379 1028 b 410 965 407 1018 425 994 l 261 692 b 224 676 254 676 239 672 b 206 711 207 682 199 694 l 314 1001 b 379 1028 324 1032 351 1036 "},"″":{"ha":861,"x_min":null,"x_max":null,"o":"m 379 1028 b 410 965 407 1018 425 994 l 261 692 b 224 676 254 676 239 672 b 206 711 207 682 199 694 l 314 1001 b 379 1028 324 1032 351 1036 m 604 1028 b 635 965 632 1018 650 994 l 488 692 b 449 676 481 676 465 672 b 431 711 433 682 425 694 l 539 1001 b 604 1028 550 1032 578 1036 "},"※":{"ha":1264,"x_min":null,"x_max":null,"o":"m 979 904 b 1032 901 994 921 1017 917 b 1038 849 1050 885 1053 864 l 689 497 l 1038 147 b 1033 94 1053 132 1050 111 b 978 92 1017 79 994 75 l 635 442 l 292 92 b 238 94 276 75 253 79 b 233 147 221 111 218 132 l 581 497 l 233 849 b 238 901 218 864 221 885 b 292 904 253 917 275 921 l 635 553 m 632 989 b 711 911 676 989 711 954 b 632 832 711 867 676 832 b 553 911 588 832 553 867 b 632 989 553 954 588 989 m 632 163 b 711 85 676 163 711 129 b 632 7 711 40 676 7 b 553 85 588 7 553 40 b 632 163 553 129 588 163 m 1124 497 b 1044 418 1124 453 1089 418 b 967 497 1001 418 967 453 b 1044 576 967 543 1001 576 b 1124 497 1089 576 1124 543 m 297 497 b 219 418 297 453 263 418 b 140 497 175 418 140 453 b 219 576 140 543 175 576 b 297 497 263 576 297 543 "},"‾":{"ha":1264,"x_min":null,"x_max":null,"o":"m 1242 1086 b 1264 1060 1257 1086 1264 1074 b 1242 1032 1264 1044 1257 1032 l 22 1032 b 0 1060 7 1032 0 1044 b 22 1086 0 1074 7 1086 l 1242 1086 "},"⁴":{"ha":556,"x_min":null,"x_max":null,"o":"m 388 1135 b 399 1083 406 1122 413 1103 l 157 738 l 358 738 l 358 893 b 396 928 358 917 376 928 b 438 893 418 928 438 917 l 438 738 l 496 738 b 526 703 518 738 526 721 b 496 669 526 683 518 669 l 438 669 l 438 569 b 396 536 438 546 418 536 b 358 569 376 536 358 546 l 358 669 l 111 669 b 58 707 72 669 58 682 b 79 754 58 719 63 729 l 336 1126 b 388 1135 349 1144 368 1147 "},"ⁿ":{"ha":632,"x_min":null,"x_max":null,"o":"m 346 1024 b 519 851 457 1024 519 957 l 519 569 b 481 536 519 546 501 536 b 442 569 460 536 442 546 l 442 836 b 331 950 442 913 408 950 b 204 838 246 950 204 888 l 204 569 b 164 536 204 546 185 536 b 125 569 144 536 125 546 l 125 983 b 163 1017 125 1007 143 1017 b 200 983 182 1017 200 1007 l 200 942 b 346 1024 222 988 278 1024 "},"₁":{"ha":556,"x_min":null,"x_max":null,"o":"m 315 461 b 357 426 339 461 357 451 l 357 -111 b 318 -144 357 -135 338 -144 b 278 -111 297 -144 278 -135 l 278 363 l 154 283 b 104 297 135 272 114 281 b 115 349 93 314 97 339 l 269 446 b 315 461 289 457 303 461 "},"₂":{"ha":556,"x_min":null,"x_max":null,"o":"m 279 467 b 463 311 400 467 463 400 l 463 304 b 378 132 463 242 439 197 l 193 -71 l 457 -71 b 488 -107 478 -71 488 -87 b 457 -143 488 -126 478 -143 l 139 -143 b 85 -101 99 -143 85 -129 b 110 -56 85 -89 92 -76 l 317 174 b 383 304 369 232 383 261 l 383 307 b 281 393 383 360 349 393 b 158 322 225 393 189 367 b 108 315 147 306 126 303 b 97 364 92 326 86 344 b 279 467 133 424 196 467 "},"₃":{"ha":556,"x_min":null,"x_max":null,"o":"m 272 467 b 461 311 389 467 461 406 l 461 306 b 360 174 461 244 419 190 b 485 36 422 164 485 118 l 485 29 b 276 -149 485 -75 407 -149 b 100 -96 210 -149 146 -129 b 92 -44 81 -82 79 -62 b 142 -33 106 -24 122 -19 b 276 -78 179 -60 224 -78 b 406 29 356 -78 406 -35 l 406 36 b 275 135 406 106 350 135 l 225 135 b 193 171 203 135 193 151 b 225 206 193 189 203 206 l 271 206 b 383 307 326 206 383 233 l 383 310 b 272 396 382 361 344 396 b 163 343 222 396 188 372 b 113 342 147 326 128 328 b 108 389 97 354 97 374 b 272 467 140 435 197 467 "},"₄":{"ha":556,"x_min":null,"x_max":null,"o":"m 388 454 b 399 403 406 442 413 424 l 157 57 l 358 57 l 358 214 b 396 247 358 238 376 247 b 438 214 418 247 438 238 l 438 57 l 496 57 b 526 24 518 57 526 42 b 496 -11 526 4 518 -11 l 438 -11 l 438 -111 b 396 -144 438 -135 418 -144 b 358 -111 376 -144 358 -135 l 358 -11 l 111 -11 b 58 28 72 -11 58 1 b 79 74 58 39 63 50 l 336 446 b 388 454 349 464 368 467 "},"₩":{"ha":1318,"x_min":null,"x_max":null,"o":"m 668 999 b 726 947 696 999 718 983 l 819 576 l 1029 576 l 1124 963 b 1179 997 1131 993 1154 1003 b 1213 940 1206 990 1221 972 l 1119 576 l 1251 576 b 1279 542 1271 576 1279 561 b 1251 508 1279 524 1271 508 l 1104 508 l 988 51 b 928 0 979 15 953 0 b 869 51 903 0 878 15 l 756 508 l 578 508 l 463 51 b 403 0 454 15 429 0 b 343 51 378 0 351 15 l 228 508 l 82 508 b 54 542 63 508 54 524 b 82 576 54 561 63 576 l 210 576 l 118 940 b 153 997 111 972 126 990 b 208 963 178 1003 201 994 l 301 576 l 514 576 l 610 947 b 668 999 618 983 640 999 m 739 576 l 668 863 l 594 576 m 497 508 l 318 508 l 406 149 m 1014 508 l 836 508 l 926 150 "},"℃":{"ha":1151,"x_min":null,"x_max":null,"o":"m 203 1019 b 332 894 282 1019 332 964 b 203 769 332 825 282 769 b 74 894 124 769 74 825 b 203 1019 74 964 124 1019 m 742 1008 b 1026 935 867 1008 958 979 b 1038 868 1050 918 1053 892 b 976 854 1024 847 1000 839 b 740 914 911 894 846 914 b 446 526 543 914 446 783 l 446 472 b 742 86 446 218 540 86 b 1003 167 853 86 936 114 b 1068 156 1024 182 1051 178 b 1058 85 1085 132 1083 103 b 740 -10 982 26 879 -10 b 343 461 476 -10 343 153 l 343 538 b 742 1008 343 847 479 1008 m 203 961 b 136 894 163 961 136 931 b 203 828 136 858 163 828 b 269 894 243 828 269 858 b 203 961 269 931 243 961 "},"℉":{"ha":1101,"x_min":null,"x_max":null,"o":"m 203 1019 b 332 894 282 1019 332 964 b 203 769 332 825 282 769 b 74 894 124 769 74 825 b 203 1019 74 964 124 1019 m 996 993 b 1032 949 1021 993 1032 974 b 996 904 1032 924 1021 904 l 532 904 l 532 539 l 967 539 b 1003 496 992 539 1003 519 b 967 451 1003 471 992 451 l 532 451 l 532 42 b 481 0 532 13 508 0 b 431 42 454 0 431 13 l 431 901 b 524 993 431 971 454 993 l 996 993 m 203 961 b 136 894 163 961 136 931 b 203 828 136 858 163 828 b 269 894 243 828 269 858 b 203 961 269 931 243 961 "},"ℓ":{"ha":1264,"x_min":null,"x_max":null,"o":"m 665 1008 b 836 744 804 1008 836 885 l 836 633 b 592 201 836 399 743 268 l 592 175 b 676 82 592 111 624 82 b 761 110 706 82 736 93 b 817 97 782 122 803 117 b 806 38 829 78 826 53 b 671 -6 774 11 721 -6 b 497 157 583 -6 497 36 l 497 744 b 665 1008 497 886 533 1008 m 665 917 b 592 726 601 917 592 831 l 592 300 b 740 633 672 335 740 446 l 740 726 b 665 917 740 831 729 917 "},"№":{"ha":1519,"x_min":null,"x_max":null,"o":"m 1204 1008 b 1422 767 1350 1008 1422 917 l 1422 735 b 1204 493 1422 585 1350 493 b 986 735 1058 493 986 585 l 986 767 b 1204 1008 986 917 1058 1008 m 796 999 b 844 958 821 999 844 986 l 844 92 b 769 4 844 26 821 4 b 679 75 732 4 714 14 l 272 767 b 224 872 254 797 236 833 l 224 40 b 175 0 224 13 200 0 b 128 40 151 0 128 13 l 128 907 b 203 994 128 972 151 994 b 293 924 240 994 257 985 l 700 232 b 749 126 718 201 735 165 l 749 958 b 796 999 749 986 772 999 m 1204 932 b 1069 761 1114 932 1069 881 l 1069 739 b 1204 569 1069 621 1114 569 b 1339 739 1294 569 1339 621 l 1339 761 b 1204 932 1339 881 1294 932 m 1389 383 b 1422 343 1411 383 1422 365 b 1389 303 1422 321 1411 303 l 1019 303 b 986 343 996 303 986 321 b 1019 383 986 365 996 383 l 1389 383 "},"℡":{"ha":1464,"x_min":null,"x_max":null,"o":"m 607 993 b 644 949 633 993 644 974 b 607 906 644 924 633 906 l 376 906 l 376 42 b 324 0 376 13 351 0 b 275 42 299 0 275 13 l 275 906 l 49 906 b 11 949 22 906 11 924 b 49 993 11 974 22 993 l 607 993 m 1111 726 b 1163 686 1139 726 1163 715 l 1163 92 l 1421 92 b 1453 49 1443 92 1453 69 b 1421 6 1453 28 1443 6 l 1147 6 b 1063 88 1083 6 1063 25 l 1063 686 b 1111 726 1063 715 1086 726 m 925 724 b 961 681 950 724 961 704 b 925 638 961 656 950 638 l 657 638 l 657 415 l 899 415 b 933 374 922 415 933 396 b 899 331 933 350 922 331 l 657 331 l 657 92 l 936 92 b 972 49 961 92 972 72 b 936 6 972 25 961 6 l 640 6 b 557 88 578 6 557 25 l 557 642 b 640 724 557 703 578 724 l 925 724 "},"™":{"ha":1003,"x_min":null,"x_max":null,"o":"m 515 994 b 585 938 550 994 564 983 l 694 704 l 804 938 b 872 994 824 982 838 994 l 876 994 b 931 929 915 993 931 975 l 931 564 b 893 535 931 543 913 535 b 858 564 875 535 858 543 l 858 906 b 811 804 843 871 826 836 l 747 671 b 694 624 731 638 719 624 b 640 671 669 624 657 638 l 576 804 b 531 906 561 836 544 871 l 531 564 b 494 535 531 543 513 535 b 458 564 475 535 458 543 l 458 929 b 510 994 458 975 472 993 l 515 994 m 379 993 b 407 958 399 993 407 976 b 379 925 407 943 399 925 l 257 925 l 257 567 b 219 535 257 544 239 535 b 181 567 199 535 181 544 l 181 925 l 60 925 b 31 958 39 925 31 943 b 60 993 31 976 39 993 l 379 993 "},"Ω":{"ha":1264,"x_min":null,"x_max":null,"o":"m 631 1008 b 1044 538 903 1008 1044 847 l 1044 472 b 869 94 1044 269 969 156 l 1107 94 b 1143 51 1131 94 1143 74 b 1107 6 1143 26 1131 6 l 792 6 b 739 54 753 6 739 28 b 775 115 739 89 753 101 b 942 486 890 189 942 279 l 942 526 b 631 915 942 789 842 915 b 321 526 421 915 321 789 l 321 486 b 488 115 321 279 371 189 b 522 54 510 101 522 89 b 471 6 522 28 508 6 l 157 6 b 121 51 133 6 121 26 b 157 94 121 74 133 94 l 396 94 b 218 472 292 154 218 269 l 218 538 b 631 1008 218 843 353 1008 "},"Å":{"ha":917,"x_min":null,"x_max":null,"o":"m 458 1158 b 590 1032 539 1158 590 1103 b 532 929 590 986 568 949 l 865 65 b 836 4 876 36 863 13 b 769 31 808 -6 781 0 l 665 307 l 249 307 l 143 29 b 78 4 132 0 106 -6 b 51 64 53 13 40 35 l 388 926 b 326 1032 349 946 326 985 b 458 1158 326 1103 378 1158 m 458 1100 b 390 1032 418 1100 390 1068 b 458 964 390 994 418 964 b 526 1032 499 964 526 994 b 458 1100 526 1068 499 1100 m 458 878 b 386 671 439 811 417 749 l 281 393 l 635 393 l 532 671 b 458 878 503 746 478 815 "},"⅓":{"ha":1264,"x_min":null,"x_max":null,"o":"m 849 1003 b 868 953 869 993 879 975 l 392 13 b 336 -4 381 -11 356 -15 b 318 46 315 6 307 24 l 794 986 b 849 1003 806 1010 829 1014 m 301 1003 b 343 967 325 1003 343 993 l 343 431 b 304 396 343 406 324 396 b 264 431 283 396 264 406 l 264 904 l 140 825 b 90 839 121 813 100 822 b 101 890 79 856 83 879 l 256 988 b 301 1003 275 999 289 1003 m 975 606 b 1164 450 1092 606 1164 544 l 1164 444 b 1063 313 1164 383 1122 329 b 1188 175 1125 303 1188 257 l 1188 168 b 979 -10 1188 64 1110 -10 b 803 43 913 -10 849 10 b 794 94 783 57 782 76 b 844 106 808 115 825 119 b 979 61 882 79 926 61 b 1108 168 1058 61 1108 104 l 1108 175 b 978 274 1108 244 1053 274 l 928 274 b 896 310 906 274 896 290 b 928 344 896 328 906 344 l 974 344 b 1086 446 1029 344 1086 372 l 1086 449 b 975 535 1085 500 1047 535 b 865 482 925 535 890 511 b 815 481 850 465 831 467 b 811 528 800 493 800 513 b 975 606 843 574 900 606 "},"⅔":{"ha":1264,"x_min":null,"x_max":null,"o":"m 903 1003 b 922 953 924 993 933 975 l 446 13 b 390 -4 435 -11 410 -15 b 372 46 369 6 361 24 l 849 986 b 903 1003 860 1010 883 1014 m 278 1008 b 460 853 399 1008 460 942 l 460 844 b 376 672 460 782 436 738 l 192 469 l 440 469 b 471 433 461 469 471 454 b 440 397 471 415 461 397 l 136 397 b 82 440 97 397 82 413 b 107 485 82 453 89 465 l 315 715 b 382 846 367 774 382 801 l 382 849 b 279 935 381 901 346 935 b 157 864 222 935 188 908 b 106 856 144 847 124 844 b 96 906 89 867 83 886 b 278 1008 131 965 194 1008 m 975 606 b 1164 450 1092 606 1164 544 l 1164 444 b 1063 313 1164 383 1122 329 b 1188 175 1125 303 1188 257 l 1188 168 b 979 -10 1188 64 1110 -10 b 803 43 913 -10 849 10 b 794 94 783 57 782 76 b 844 106 808 115 825 119 b 979 61 882 79 926 61 b 1108 168 1058 61 1108 104 l 1108 175 b 978 274 1108 244 1053 274 l 928 274 b 896 310 906 274 896 290 b 928 344 896 328 906 344 l 974 344 b 1086 446 1029 344 1086 372 l 1086 449 b 975 535 1085 500 1047 535 b 865 482 925 535 890 511 b 815 481 850 465 831 467 b 811 528 800 493 800 513 b 975 606 843 574 900 606 "},"⅛":{"ha":1264,"x_min":null,"x_max":null,"o":"m 847 1003 b 865 953 867 993 876 975 l 389 13 b 333 -4 378 -11 354 -15 b 317 46 314 6 306 24 l 793 986 b 847 1003 804 1010 828 1014 m 301 1003 b 343 967 325 1003 343 993 l 343 431 b 304 396 343 406 324 396 b 264 431 283 396 264 406 l 264 904 l 140 825 b 90 839 121 813 100 822 b 101 890 79 856 83 879 l 256 988 b 301 1003 275 999 289 1003 m 983 606 b 1169 450 1096 606 1169 539 l 1169 440 b 1075 307 1169 378 1131 329 b 1186 165 1143 288 1186 233 l 1186 157 b 985 -10 1186 58 1107 -10 b 782 157 860 -10 782 58 l 782 165 b 892 308 782 233 825 290 b 797 440 839 331 797 379 l 797 450 b 983 606 797 539 869 606 m 983 536 b 876 443 915 536 876 499 l 876 438 b 985 340 876 381 921 340 b 1092 439 1047 340 1092 381 l 1092 444 b 983 536 1092 499 1049 536 m 983 269 b 860 165 914 269 860 231 l 860 158 b 983 61 860 103 906 61 b 1107 158 1063 61 1107 103 l 1107 165 b 983 269 1107 229 1054 269 "},"⅜":{"ha":1264,"x_min":null,"x_max":null,"o":"m 894 1003 b 914 953 915 993 925 975 l 438 13 b 382 -4 426 -11 401 -15 b 364 46 361 6 353 24 l 840 986 b 894 1003 851 1010 875 1014 m 265 1008 b 453 851 382 1008 453 947 l 453 847 b 351 714 453 785 413 732 b 478 578 415 706 478 660 l 478 569 b 269 393 478 465 399 393 b 93 446 201 393 139 413 b 83 497 74 458 72 479 b 133 508 97 517 115 521 b 268 464 171 482 215 464 b 397 571 349 464 397 507 l 397 576 b 268 676 397 647 343 676 l 217 676 b 186 713 196 676 186 693 b 217 746 186 731 196 746 l 263 746 b 376 847 319 746 376 775 l 376 850 b 265 938 375 901 338 938 b 156 883 214 938 181 914 b 106 882 140 867 121 869 b 101 931 90 896 90 915 b 265 1008 133 976 190 1008 m 983 606 b 1169 450 1096 606 1169 539 l 1169 440 b 1075 307 1169 378 1131 329 b 1186 165 1143 288 1186 233 l 1186 157 b 985 -10 1186 58 1107 -10 b 782 157 860 -10 782 58 l 782 165 b 892 308 782 233 825 290 b 797 440 839 331 797 379 l 797 450 b 983 606 797 539 869 606 m 983 536 b 876 443 915 536 876 499 l 876 438 b 985 340 876 381 921 340 b 1092 439 1047 340 1092 381 l 1092 444 b 983 536 1092 499 1049 536 m 983 269 b 860 165 914 269 860 231 l 860 158 b 983 61 860 103 906 61 b 1107 158 1063 61 1107 103 l 1107 165 b 983 269 1107 229 1054 269 "},"⅝":{"ha":1264,"x_min":null,"x_max":null,"o":"m 894 1003 b 914 953 915 993 925 975 l 438 13 b 382 -4 426 -11 401 -15 b 364 46 361 6 353 24 l 840 986 b 894 1003 851 1010 875 1014 m 415 1001 b 447 965 438 1001 447 985 b 415 929 447 944 438 929 l 190 929 l 178 735 b 296 779 206 761 250 779 b 482 593 413 779 482 708 l 482 585 b 272 393 482 472 403 393 b 90 447 199 393 135 415 b 81 499 71 460 68 479 b 131 510 93 517 113 521 b 272 465 171 483 218 465 b 404 586 354 465 404 513 l 404 590 b 281 713 404 672 358 713 b 176 671 238 713 204 696 b 135 654 164 660 153 654 b 100 688 114 654 99 667 l 115 938 b 179 1001 118 985 133 1001 l 415 1001 m 983 606 b 1169 450 1096 606 1169 539 l 1169 440 b 1075 307 1169 378 1131 329 b 1186 165 1143 288 1186 233 l 1186 157 b 985 -10 1186 58 1107 -10 b 782 157 860 -10 782 58 l 782 165 b 892 308 782 233 825 290 b 797 440 839 331 797 379 l 797 450 b 983 606 797 539 869 606 m 983 536 b 876 443 915 536 876 499 l 876 438 b 985 340 876 381 921 340 b 1092 439 1047 340 1092 381 l 1092 444 b 983 536 1092 499 1049 536 m 983 269 b 860 165 914 269 860 231 l 860 158 b 983 61 860 103 906 61 b 1107 158 1063 61 1107 103 l 1107 165 b 983 269 1107 229 1054 269 "},"⅞":{"ha":1264,"x_min":null,"x_max":null,"o":"m 847 1003 b 865 953 867 993 876 975 l 389 13 b 333 -4 378 -11 354 -15 b 317 46 314 6 306 24 l 793 986 b 847 1003 804 1010 828 1014 m 447 1001 b 500 958 486 1001 500 988 b 482 901 500 944 497 935 l 263 418 b 210 401 251 396 229 392 b 192 450 190 410 182 426 l 413 929 l 111 929 b 81 965 90 929 81 946 b 111 1001 81 983 90 1001 l 447 1001 m 983 606 b 1169 450 1096 606 1169 539 l 1169 440 b 1075 307 1169 378 1131 329 b 1186 165 1143 288 1186 233 l 1186 157 b 985 -10 1186 58 1107 -10 b 782 157 860 -10 782 58 l 782 165 b 892 308 782 233 825 290 b 797 440 839 331 797 379 l 797 450 b 983 606 797 539 869 606 m 983 536 b 876 443 915 536 876 499 l 876 438 b 985 340 876 381 921 340 b 1092 439 1047 340 1092 381 l 1092 444 b 983 536 1092 499 1049 536 m 983 269 b 860 165 914 269 860 231 l 860 158 b 983 61 860 103 906 61 b 1107 158 1063 61 1107 103 l 1107 165 b 983 269 1107 229 1054 269 "},"Ⅰ":{"ha":1264,"x_min":null,"x_max":null,"o":"m 631 999 b 683 957 658 999 683 986 l 683 42 b 631 0 683 13 658 0 b 581 42 606 0 581 13 l 581 957 b 631 999 581 986 606 999 "},"Ⅱ":{"ha":1264,"x_min":null,"x_max":null,"o":"m 464 999 b 515 957 492 999 515 986 l 515 42 b 464 0 515 13 492 0 b 414 42 438 0 414 13 l 414 957 b 464 999 414 986 438 999 m 799 999 b 850 957 826 999 850 986 l 850 42 b 799 0 850 13 826 0 b 749 42 772 0 749 13 l 749 957 b 799 999 749 986 772 999 "},"Ⅲ":{"ha":1264,"x_min":null,"x_max":null,"o":"m 306 999 b 357 957 333 999 357 986 l 357 42 b 306 0 357 13 333 0 b 256 42 279 0 256 13 l 256 957 b 306 999 256 986 279 999 m 632 999 b 683 957 660 999 683 986 l 683 42 b 632 0 683 13 660 0 b 582 42 606 0 582 13 l 582 957 b 632 999 582 986 606 999 m 956 999 b 1008 957 983 999 1008 986 l 1008 42 b 956 0 1008 13 983 0 b 906 42 931 0 906 13 l 906 957 b 956 999 906 986 931 999 "},"Ⅳ":{"ha":1264,"x_min":null,"x_max":null,"o":"m 513 996 b 575 965 543 1003 567 996 l 806 140 l 1032 965 b 1092 996 1040 996 1061 1003 b 1125 939 1118 990 1133 969 l 867 44 b 804 0 857 11 832 0 b 740 44 776 0 750 11 l 478 938 b 513 996 468 969 486 990 m 308 999 b 361 957 336 999 361 986 l 361 42 b 308 0 361 13 336 0 b 258 42 283 0 258 13 l 258 957 b 308 999 258 986 283 999 "},"Ⅴ":{"ha":1264,"x_min":null,"x_max":null,"o":"m 1004 994 b 1032 935 1031 986 1044 965 l 694 44 b 632 0 681 11 658 0 b 568 44 603 0 581 11 l 232 933 b 261 994 219 965 235 985 b 328 969 289 1004 317 999 l 633 131 l 940 968 b 1004 994 951 997 975 1004 "},"Ⅵ":{"ha":1264,"x_min":null,"x_max":null,"o":"m 175 996 b 236 965 204 1003 228 996 l 468 140 l 694 965 b 753 996 703 996 724 1003 b 786 939 781 990 796 969 l 529 44 b 467 0 518 11 493 0 b 403 44 438 0 413 11 l 139 938 b 175 996 131 969 147 990 m 953 999 b 1004 957 981 999 1004 986 l 1004 42 b 953 0 1004 13 981 0 b 903 42 926 0 903 13 l 903 957 b 953 999 903 986 926 999 "},"Ⅶ":{"ha":1264,"x_min":null,"x_max":null,"o":"m 104 996 b 165 965 135 1003 158 996 l 375 144 l 579 965 b 636 996 586 994 607 1003 b 669 939 664 990 678 969 l 436 44 b 374 0 425 11 400 0 b 310 44 344 0 319 11 l 71 939 b 104 996 63 969 78 990 m 817 999 b 865 957 846 999 865 986 l 865 42 b 817 0 865 13 846 0 b 769 42 789 0 769 13 l 769 957 b 817 999 769 986 789 999 m 1063 999 b 1111 957 1092 999 1111 986 l 1111 42 b 1063 0 1111 13 1092 0 b 1015 42 1035 0 1015 13 l 1015 957 b 1063 999 1015 986 1035 999 "},"Ⅷ":{"ha":1264,"x_min":null,"x_max":null,"o":"m 114 997 b 168 963 142 1001 163 993 l 318 144 l 463 963 b 515 997 468 993 488 1001 b 551 947 542 993 558 978 l 379 44 b 317 0 372 11 343 0 b 253 44 288 0 258 10 l 75 947 b 114 997 69 978 88 993 m 672 999 b 718 957 700 999 718 986 l 718 42 b 672 0 718 13 700 0 b 626 42 646 0 626 13 l 626 957 b 672 999 626 986 646 999 m 888 999 b 935 957 917 999 935 986 l 935 42 b 888 0 935 13 917 0 b 843 42 861 0 843 13 l 843 957 b 888 999 843 986 861 999 m 1107 999 b 1153 957 1135 999 1153 986 l 1153 42 b 1107 0 1153 13 1135 0 b 1061 42 1081 0 1061 13 l 1061 957 b 1107 999 1061 986 1081 999 "},"Ⅸ":{"ha":1264,"x_min":null,"x_max":null,"o":"m 1090 992 b 1106 928 1117 976 1121 954 l 876 515 l 1125 68 b 1108 7 1139 44 1132 21 b 1042 24 1082 -7 1056 0 l 811 446 l 576 24 b 511 7 563 0 538 -7 b 496 68 488 21 482 44 l 750 515 l 515 928 b 535 992 501 954 508 976 b 603 974 560 1006 589 999 l 818 582 l 1024 974 b 1090 992 1038 999 1065 1006 m 328 999 b 379 957 356 999 379 986 l 379 42 b 328 0 379 13 356 0 b 279 42 303 0 279 13 l 279 957 b 328 999 279 986 303 999 "},"Ⅹ":{"ha":1264,"x_min":null,"x_max":null,"o":"m 964 990 b 979 925 988 976 997 951 l 700 514 l 994 76 b 982 8 1013 49 1006 24 b 910 24 957 -6 928 -3 l 633 446 l 349 25 b 281 8 332 -1 304 -7 b 267 74 258 22 249 47 l 572 515 l 286 922 b 303 990 268 950 278 976 b 376 974 329 1006 358 1000 l 640 582 l 897 974 b 964 990 914 1000 940 1006 "},"ⅰ":{"ha":1264,"x_min":null,"x_max":null,"o":"m 632 996 b 706 924 674 996 706 964 b 632 853 706 885 674 853 b 558 924 590 853 558 885 b 632 996 558 964 590 996 m 632 732 b 682 690 658 732 682 719 l 682 42 b 632 0 682 13 658 0 b 582 42 607 0 582 13 l 582 690 b 632 732 582 719 607 732 "},"ⅱ":{"ha":1264,"x_min":null,"x_max":null,"o":"m 456 996 b 529 924 497 996 529 964 b 456 853 529 885 497 853 b 382 924 414 853 382 885 b 456 996 382 964 414 996 m 808 996 b 882 924 850 996 882 964 b 808 853 882 885 850 853 b 735 924 767 853 735 885 b 808 996 735 964 767 996 m 456 732 b 506 690 482 732 506 719 l 506 42 b 456 0 506 13 482 0 b 406 42 431 0 406 13 l 406 690 b 456 732 406 719 431 732 m 808 732 b 858 690 835 732 858 719 l 858 42 b 808 0 858 13 835 0 b 758 42 783 0 758 13 l 758 690 b 808 732 758 719 783 732 "},"ⅲ":{"ha":1264,"x_min":null,"x_max":null,"o":"m 315 996 b 389 924 357 996 389 964 b 315 853 389 885 357 853 b 242 924 274 853 242 885 b 315 996 242 964 274 996 m 632 996 b 706 924 674 996 706 964 b 632 853 706 885 674 853 b 558 924 590 853 558 885 b 632 996 558 964 590 996 m 949 996 b 1022 924 990 996 1022 964 b 949 853 1022 885 990 853 b 875 924 907 853 875 885 b 949 996 875 964 907 996 m 315 732 b 365 690 342 732 365 719 l 365 42 b 315 0 365 13 342 0 b 265 42 290 0 265 13 l 265 690 b 315 732 265 719 290 732 m 632 732 b 683 690 658 732 683 719 l 683 42 b 632 0 683 13 658 0 b 583 42 607 0 583 13 l 583 690 b 632 732 583 719 607 732 m 949 732 b 999 690 975 732 999 719 l 999 42 b 949 0 999 13 975 0 b 899 42 924 0 899 13 l 899 690 b 949 732 899 719 924 732 "},"ⅳ":{"ha":1264,"x_min":null,"x_max":null,"o":"m 361 996 b 435 924 403 996 435 964 b 361 853 435 885 403 853 b 288 924 319 853 288 885 b 361 996 288 964 319 996 m 543 729 b 604 700 569 738 596 731 l 778 119 l 946 700 b 1007 729 954 731 981 738 b 1038 672 1032 722 1046 701 l 843 49 b 776 0 832 13 806 0 b 710 47 747 0 721 13 l 513 672 b 543 729 503 701 518 722 m 361 732 b 411 690 388 732 411 719 l 411 42 b 361 0 411 13 388 0 b 311 42 336 0 311 13 l 311 690 b 361 732 311 719 336 732 "},"ⅴ":{"ha":1264,"x_min":null,"x_max":null,"o":"m 347 728 b 411 704 372 736 401 733 l 635 115 l 854 704 b 917 728 865 733 893 736 b 944 668 940 718 957 699 l 701 49 b 633 0 688 14 663 0 b 565 47 604 0 579 13 l 318 668 b 347 728 306 699 325 718 "},"ⅵ":{"ha":1264,"x_min":null,"x_max":null,"o":"m 904 996 b 978 924 946 996 978 964 b 904 853 978 885 946 853 b 831 924 863 853 831 885 b 904 996 831 964 863 996 m 258 729 b 319 700 285 738 311 731 l 493 119 l 661 700 b 722 729 669 731 696 738 b 753 672 747 722 761 701 l 558 49 b 492 0 547 13 521 0 b 425 47 463 0 436 13 l 228 672 b 258 729 218 701 233 722 m 904 732 b 956 690 931 732 956 719 l 956 42 b 904 0 956 13 931 0 b 856 42 879 0 856 13 l 856 690 b 904 732 856 719 879 732 "},"ⅶ":{"ha":1264,"x_min":null,"x_max":null,"o":"m 797 996 b 869 924 839 996 869 964 b 797 853 869 885 839 853 b 724 924 754 853 724 885 b 797 996 724 964 754 996 m 1050 996 b 1124 924 1093 996 1124 964 b 1050 853 1124 885 1093 853 b 978 924 1008 853 978 885 b 1050 996 978 964 1008 996 m 161 729 b 219 700 188 736 211 731 l 390 119 l 556 700 b 614 729 564 731 588 736 b 644 674 639 724 653 703 l 457 49 b 389 0 446 13 418 0 b 322 47 360 0 333 13 l 129 674 b 161 729 121 703 136 724 m 797 732 b 846 690 824 732 846 719 l 846 42 b 797 0 846 13 824 0 b 749 42 771 0 749 13 l 749 690 b 797 732 749 719 771 732 m 1050 732 b 1100 690 1078 732 1100 719 l 1100 42 b 1050 0 1100 13 1078 0 b 1001 42 1025 0 1001 13 l 1001 690 b 1050 732 1001 719 1025 732 "},"ⅷ":{"ha":1264,"x_min":null,"x_max":null,"o":"m 699 996 b 768 924 742 996 768 964 b 699 853 768 885 742 853 b 629 924 656 853 629 885 b 699 996 629 964 656 996 m 907 996 b 976 924 950 996 976 964 b 907 853 976 885 950 853 b 838 924 864 853 838 885 b 907 996 838 964 864 996 m 1115 996 b 1185 924 1158 996 1185 964 b 1115 853 1185 885 1158 853 b 1046 924 1072 853 1046 885 b 1115 996 1046 964 1072 996 m 124 731 b 182 700 150 736 174 729 l 332 129 l 475 700 b 533 731 482 729 507 736 b 565 674 558 724 574 703 l 396 49 b 329 0 386 13 358 0 b 265 47 300 0 275 13 l 90 674 b 124 731 82 703 99 724 m 699 732 b 746 690 726 732 746 719 l 746 42 b 699 0 746 13 726 0 b 653 42 672 0 653 13 l 653 690 b 699 732 653 719 672 732 m 907 732 b 954 690 935 732 954 719 l 954 42 b 907 0 954 13 935 0 b 861 42 881 0 861 13 l 861 690 b 907 732 861 719 881 732 m 1115 732 b 1163 690 1143 732 1163 719 l 1163 42 b 1115 0 1163 13 1143 0 b 1069 42 1089 0 1069 13 l 1069 690 b 1115 732 1069 719 1089 732 "},"ⅸ":{"ha":1264,"x_min":null,"x_max":null,"o":"m 365 996 b 439 924 407 996 439 964 b 365 853 439 885 407 853 b 292 924 324 853 292 885 b 365 996 292 964 324 996 m 1022 724 b 1036 661 1044 708 1051 685 l 860 375 l 1050 71 b 1036 8 1065 47 1057 22 b 971 22 1015 -4 988 -3 l 794 310 l 618 22 b 554 8 601 -3 575 -4 b 542 71 532 22 525 47 l 733 372 l 558 661 b 574 724 543 685 551 708 b 640 710 596 738 625 735 l 799 440 l 956 710 b 1022 724 971 735 999 738 m 365 732 b 415 690 392 732 415 719 l 415 42 b 365 0 415 13 392 0 b 315 42 340 0 315 13 l 315 690 b 365 732 315 719 340 732 "},"ⅹ":{"ha":1264,"x_min":null,"x_max":null,"o":"m 371 722 b 440 710 392 738 422 736 l 635 440 l 828 710 b 896 721 847 736 875 738 b 906 657 917 706 925 682 l 696 375 l 922 78 b 913 10 940 53 936 28 b 842 22 892 -6 860 -4 l 632 308 l 419 22 b 351 11 400 -4 372 -6 b 342 75 331 26 322 50 l 571 372 l 360 654 b 371 722 342 679 347 704 "},"←":{"ha":1181,"x_min":null,"x_max":null,"o":"m 1063 496 b 1017 442 1063 467 1047 442 l 281 442 b 331 403 297 431 315 417 l 478 261 b 472 194 497 242 492 215 b 404 188 454 175 425 167 l 143 449 b 114 496 119 472 114 483 b 143 543 114 508 119 519 l 404 804 b 472 797 425 825 454 817 b 478 731 492 776 497 750 l 331 589 b 281 550 315 575 297 561 l 1017 550 b 1063 496 1047 550 1063 525 "},"↑":{"ha":931,"x_min":null,"x_max":null,"o":"m 465 15 b 411 61 436 15 411 31 l 411 797 b 372 747 400 781 386 763 l 231 600 b 164 606 211 581 185 586 b 157 674 144 624 136 653 l 418 935 b 465 964 442 958 453 964 b 513 935 478 964 489 958 l 774 674 b 767 606 794 653 786 624 b 700 600 746 586 719 581 l 558 747 b 519 797 544 763 531 781 l 519 61 b 465 15 519 31 494 15 "},"→":{"ha":1181,"x_min":null,"x_max":null,"o":"m 118 496 b 164 550 118 525 133 550 l 900 550 b 850 589 883 561 865 575 l 703 731 b 708 797 683 750 689 776 b 776 804 726 817 756 825 l 1038 543 b 1067 496 1061 519 1067 508 b 1038 449 1067 483 1061 472 l 776 188 b 708 194 756 167 726 175 b 703 261 689 215 683 242 l 850 403 b 900 442 865 417 883 431 l 164 442 b 118 496 133 442 118 467 "},"↓":{"ha":931,"x_min":null,"x_max":null,"o":"m 465 990 b 519 944 494 990 519 975 l 519 208 b 558 258 531 225 544 243 l 700 406 b 767 400 719 425 746 419 b 774 332 786 382 794 353 l 513 71 b 465 42 489 47 478 42 b 418 71 453 42 442 47 l 157 332 b 164 400 136 353 144 382 b 231 406 185 419 211 425 l 372 258 b 411 208 386 243 400 225 l 411 944 b 465 990 411 975 436 990 "},"↔":{"ha":1264,"x_min":null,"x_max":null,"o":"m 975 550 b 925 589 958 561 940 575 l 778 731 b 783 797 758 750 764 776 b 851 804 801 817 831 825 l 1113 543 b 1142 496 1136 519 1142 508 b 1113 449 1142 483 1136 472 l 851 188 b 783 194 831 167 801 175 b 778 261 764 215 758 242 l 925 403 b 975 442 940 417 958 431 l 289 442 b 339 403 306 431 324 417 l 486 261 b 481 194 506 242 500 215 b 413 188 463 175 433 167 l 151 449 b 122 496 128 472 122 483 b 151 543 122 508 128 519 l 413 804 b 481 797 433 825 463 817 b 486 731 500 776 506 750 l 339 589 b 289 550 324 575 306 561 l 975 550 "},"↕":{"ha":931,"x_min":null,"x_max":null,"o":"m 411 797 b 372 747 400 781 386 763 l 231 600 b 164 606 211 581 185 586 b 157 674 144 624 136 653 l 418 935 b 465 964 442 958 453 964 b 513 935 478 964 489 958 l 774 674 b 767 606 794 653 786 624 b 700 600 746 586 719 581 l 558 747 b 519 797 544 763 531 781 l 519 208 b 558 258 531 225 544 243 l 700 406 b 767 400 719 425 746 419 b 774 332 786 382 794 353 l 513 71 b 465 42 489 47 478 42 b 418 71 453 42 442 47 l 157 332 b 164 400 136 353 144 382 b 231 406 185 419 211 425 l 372 258 b 411 208 386 243 400 225 l 411 797 "},"↖":{"ha":960,"x_min":null,"x_max":null,"o":"m 242 399 b 190 356 242 369 218 356 b 139 399 163 356 139 369 l 139 768 b 151 822 139 801 143 813 b 206 835 161 831 172 835 l 575 835 b 618 783 604 835 618 811 b 575 732 618 756 604 732 l 413 732 b 308 742 376 732 335 735 l 828 222 b 822 151 850 200 843 172 b 751 146 801 131 774 124 l 232 665 b 242 561 239 639 242 597 "},"↗":{"ha":960,"x_min":null,"x_max":null,"o":"m 718 561 b 728 665 718 597 721 639 l 208 146 b 138 151 186 124 158 131 b 132 222 117 172 110 200 l 651 742 b 547 732 625 735 583 732 l 385 732 b 342 783 356 732 342 756 b 385 835 342 811 356 835 l 754 835 b 808 822 788 835 799 831 b 821 768 817 813 821 801 l 821 399 b 769 356 821 369 797 356 b 718 399 742 356 718 369 "},"↘":{"ha":960,"x_min":null,"x_max":null,"o":"m 718 593 b 769 636 718 622 742 636 b 821 593 797 636 821 622 l 821 224 b 808 169 821 190 817 179 b 754 157 799 161 788 157 l 385 157 b 342 208 356 157 342 181 b 385 260 342 236 356 260 l 547 260 b 651 250 583 260 625 257 l 132 769 b 138 840 110 792 117 819 b 208 846 158 861 186 868 l 728 326 b 718 431 721 353 718 394 "},"↙":{"ha":960,"x_min":null,"x_max":null,"o":"m 242 431 b 232 326 242 394 239 353 l 751 846 b 822 840 774 868 801 861 b 828 769 843 819 850 792 l 308 250 b 413 260 335 257 376 260 l 575 260 b 618 208 604 260 618 236 b 575 157 618 181 604 157 l 206 157 b 151 169 172 157 161 161 b 139 224 143 179 139 190 l 139 593 b 190 636 139 622 163 636 b 242 593 218 636 242 622 "},"⇒":{"ha":1264,"x_min":null,"x_max":null,"o":"m 872 140 l 828 185 l 988 343 l 94 343 l 94 404 l 1047 404 l 1143 499 l 1047 594 l 94 594 l 94 656 l 986 656 l 828 811 l 872 856 l 1229 499 "},"⇔":{"ha":1264,"x_min":null,"x_max":null,"o":"m 278 656 l 986 656 l 828 811 l 874 856 l 1229 499 l 874 140 l 828 185 l 988 343 l 276 343 l 436 185 l 390 140 l 35 499 l 390 856 l 436 811 m 217 404 l 1047 404 l 1143 499 l 1047 594 l 217 594 l 121 499 "},"∀":{"ha":917,"x_min":null,"x_max":null,"o":"m 79 994 b 146 968 107 1004 135 999 l 250 692 l 668 692 l 772 969 b 838 994 783 999 810 1004 b 865 935 864 986 876 964 l 522 44 b 460 0 510 11 488 0 b 399 44 432 0 411 11 l 51 933 b 79 994 40 963 53 986 m 389 328 b 461 121 419 249 442 186 b 533 328 481 186 506 253 l 636 606 l 283 606 l 389 328 "},"∂":{"ha":717,"x_min":null,"x_max":null,"o":"m 315 1008 b 671 522 506 1008 671 856 b 303 -11 671 167 499 -11 b 38 276 122 -11 38 126 b 339 615 38 474 174 615 b 575 486 458 615 540 546 l 576 486 b 578 544 578 504 578 526 b 310 926 578 794 460 926 b 115 869 226 926 164 899 l 83 936 b 315 1008 136 971 215 1008 m 350 535 b 135 279 232 535 135 433 b 313 71 135 147 206 71 b 564 392 447 71 543 219 b 350 535 535 468 454 535 "},"∃":{"ha":840,"x_min":null,"x_max":null,"o":"m 619 993 b 714 901 690 993 714 971 l 714 97 b 619 6 714 28 690 6 l 135 6 b 99 50 110 6 99 25 b 135 93 99 74 110 93 l 613 93 l 613 451 l 167 451 b 132 493 143 451 132 471 b 167 538 132 518 143 538 l 613 538 l 613 906 l 132 906 b 96 949 107 906 96 925 b 132 993 96 974 107 993 l 619 993 "},"∇":{"ha":1264,"x_min":null,"x_max":null,"o":"m 632 -3 l 90 856 l 1174 856 m 1036 785 l 228 785 l 632 136 "},"∈":{"ha":1264,"x_min":null,"x_max":null,"o":"m 1107 749 l 546 749 b 250 549 350 749 265 658 l 1104 549 l 1104 465 l 249 465 b 546 249 264 340 350 249 l 1107 249 l 1107 165 l 553 165 b 156 508 279 165 156 318 b 546 832 156 686 271 832 l 1107 832 "},"∋":{"ha":1264,"x_min":null,"x_max":null,"o":"m 715 832 b 1107 508 990 832 1107 688 b 710 165 1107 318 983 165 l 156 165 l 156 249 l 715 249 b 1013 465 914 249 999 340 l 158 465 l 158 549 l 1011 549 b 715 750 997 658 914 750 l 156 750 l 156 832 l 715 832 "},"∏":{"ha":885,"x_min":null,"x_max":null,"o":"m 813 993 b 849 949 838 993 849 974 b 813 904 849 924 838 904 l 683 904 l 683 -6 b 632 -47 683 -35 658 -47 b 582 -6 606 -47 582 -35 l 582 904 l 303 904 l 303 -6 b 251 -47 303 -35 279 -47 b 201 -6 226 -47 201 -35 l 201 904 l 72 904 b 36 949 47 904 36 924 b 72 993 36 974 47 993 l 813 993 "},"∑":{"ha":785,"x_min":null,"x_max":null,"o":"m 663 993 b 700 949 689 993 700 974 b 663 904 700 924 689 904 l 182 904 l 436 597 b 497 500 482 542 497 521 b 436 401 497 478 482 457 l 182 94 l 667 94 b 703 50 692 94 703 74 b 667 6 703 25 692 6 l 131 6 b 56 60 75 6 56 22 b 94 135 56 79 61 94 l 393 500 l 94 864 b 56 939 61 904 56 919 b 131 993 56 976 75 993 l 663 993 "},"√":{"ha":764,"x_min":null,"x_max":null,"o":"m 468 -140 l 397 -140 l 174 461 l 74 417 l 49 474 l 224 546 l 428 -22 l 429 -22 l 713 1139 l 789 1139 "},"∝":{"ha":1264,"x_min":null,"x_max":null,"o":"m 417 760 b 681 579 557 760 631 664 b 946 760 736 678 819 760 b 1104 700 1000 760 1053 738 l 1057 631 b 946 675 1019 656 982 675 b 725 499 843 675 785 613 b 946 322 786 383 843 322 b 1058 353 978 322 1025 335 l 1082 275 b 946 239 1035 249 989 239 b 681 417 826 239 735 326 b 418 240 633 333 565 240 b 158 500 293 240 158 328 b 417 760 158 667 289 760 m 418 672 b 250 500 315 672 250 600 b 418 326 250 394 310 326 b 639 499 533 326 600 418 b 418 672 600 576 528 672 "},"∞":{"ha":833,"x_min":null,"x_max":null,"o":"m 199 694 b 415 546 303 694 369 603 b 643 694 482 628 533 694 b 824 499 754 694 824 621 b 632 301 824 382 744 301 b 417 450 517 301 468 385 b 188 301 351 367 293 301 b 11 499 79 301 11 375 b 199 694 11 613 86 694 m 197 626 b 85 499 128 626 85 575 b 193 371 85 414 121 371 b 371 497 265 371 315 424 b 197 626 329 553 271 626 m 638 626 b 461 497 558 626 511 558 b 632 371 500 444 549 371 b 751 499 704 371 751 422 b 638 626 751 579 707 626 "},"∠":{"ha":1264,"x_min":null,"x_max":null,"o":"m 346 93 l 1056 93 l 1056 6 l 208 6 l 208 68 l 864 832 l 935 774 "},"∧":{"ha":1264,"x_min":null,"x_max":null,"o":"m 1078 86 l 1003 50 l 632 771 l 261 50 l 186 86 l 594 876 l 669 876 "},"∨":{"ha":1264,"x_min":null,"x_max":null,"o":"m 1003 886 l 1078 850 l 669 60 l 594 60 l 186 850 l 261 886 l 632 164 "},"∩":{"ha":1264,"x_min":null,"x_max":null,"o":"m 632 938 b 969 540 824 938 969 814 l 969 -14 l 881 -14 l 881 547 b 632 857 881 763 778 857 b 383 547 486 857 383 763 l 383 -14 l 294 -14 l 294 540 b 632 938 294 814 440 938 "},"∪":{"ha":1264,"x_min":null,"x_max":null,"o":"m 382 376 b 626 71 382 156 494 71 b 882 376 772 71 882 161 l 882 938 l 971 938 l 971 383 b 622 -14 971 110 813 -14 b 293 376 444 -14 293 101 l 293 938 l 382 938 "},"∫":{"ha":444,"x_min":null,"x_max":null,"o":"m 364 1121 b 422 1111 388 1121 410 1117 l 408 1042 b 369 1047 397 1044 383 1047 b 260 800 292 1047 260 974 b 275 132 260 600 275 335 b 88 -186 275 -71 222 -186 b 22 -174 61 -186 35 -181 l 36 -103 b 79 -108 47 -106 64 -108 b 188 132 157 -108 188 -35 b 172 807 188 336 172 607 b 364 1121 172 1006 228 1121 "},"∬":{"ha":761,"x_min":null,"x_max":null,"o":"m 364 1121 b 422 1111 388 1121 410 1117 l 408 1042 b 369 1047 397 1044 383 1047 b 260 800 292 1047 260 974 b 275 132 260 600 275 335 b 88 -186 275 -71 222 -186 b 22 -174 61 -186 35 -181 l 36 -103 b 79 -108 47 -106 64 -108 b 188 132 157 -108 188 -35 b 172 807 188 336 172 607 b 364 1121 172 1006 228 1121 m 681 1121 b 739 1111 704 1121 726 1117 l 725 1042 b 686 1047 714 1044 700 1047 b 576 800 608 1047 576 974 b 592 132 576 600 592 335 b 404 -186 592 -71 539 -186 b 339 -174 378 -186 351 -181 l 353 -103 b 396 -108 364 -106 381 -108 b 504 132 474 -108 504 -35 b 489 807 504 336 489 607 b 681 1121 489 1006 544 1121 "},"∮":{"ha":1264,"x_min":null,"x_max":null,"o":"m 792 1071 b 922 983 850 1071 893 1042 l 857 954 b 788 1010 842 989 819 1010 b 685 699 747 1010 707 896 b 854 517 778 688 854 625 b 658 297 854 389 760 311 b 469 -74 633 92 576 -74 b 342 8 414 -74 371 -47 l 403 44 b 474 -12 419 10 442 -12 b 576 299 514 -12 557 100 b 419 476 490 313 419 374 b 601 694 419 600 506 674 b 792 1071 626 903 685 1071 m 681 657 b 663 339 672 563 674 435 b 786 497 731 356 779 415 l 786 514 b 681 657 786 585 747 643 m 597 651 b 488 478 533 628 488 564 b 581 340 488 407 524 357 b 597 651 589 432 589 554 "},"∴":{"ha":833,"x_min":null,"x_max":null,"o":"m 417 847 b 494 769 461 847 494 811 b 417 689 494 725 461 689 b 336 769 372 689 336 725 b 417 847 336 811 372 847 m 153 307 b 232 229 196 307 232 272 b 153 150 232 185 196 150 b 74 229 108 150 74 185 b 153 307 74 272 108 307 m 681 307 b 760 229 724 307 760 272 b 681 150 760 185 724 150 b 601 229 636 150 601 185 b 681 307 601 272 636 307 "},"∵":{"ha":814,"x_min":null,"x_max":null,"o":"m 147 819 b 226 740 190 819 226 785 b 147 663 226 696 190 663 b 68 740 103 663 68 696 b 147 819 68 785 103 819 m 675 819 b 754 740 718 819 754 785 b 675 663 754 696 718 663 b 596 740 631 663 596 696 b 675 819 596 785 631 819 m 411 272 b 490 192 454 272 490 235 b 411 114 490 149 454 114 b 332 192 367 114 332 149 b 411 272 332 235 367 272 "},"∶":{"ha":1264,"x_min":null,"x_max":null,"o":"m 767 833 l 497 833 l 632 701 m 767 165 l 632 297 l 497 165 "},"∼":{"ha":1264,"x_min":null,"x_max":null,"o":"m 443 592 b 632 543 522 592 574 575 b 821 486 690 511 747 486 b 974 574 889 486 939 522 l 1031 536 b 821 406 989 468 901 406 b 632 454 742 406 692 422 b 443 511 585 479 517 511 b 290 424 375 511 325 475 l 233 461 b 443 592 275 529 363 592 "},"∽":{"ha":1264,"x_min":null,"x_max":null,"o":"m 361 760 b 532 701 422 760 481 735 l 489 633 b 371 672 450 656 410 672 b 201 500 268 672 201 601 b 369 328 201 397 263 328 b 614 546 508 328 574 467 b 897 760 669 657 757 760 b 1151 500 1046 760 1151 636 b 899 239 1151 361 1046 239 b 729 299 839 239 783 261 l 776 365 b 899 324 815 335 853 324 b 1064 500 996 324 1064 400 b 900 675 1064 589 999 675 b 675 489 799 675 736 607 b 363 240 629 401 547 240 b 113 500 239 240 113 329 b 361 760 113 667 235 760 "},"≒":{"ha":840,"x_min":null,"x_max":null,"o":"m 274 908 b 349 835 315 908 349 876 b 274 761 349 794 315 761 b 199 835 232 761 199 794 b 274 908 199 876 232 908 m 706 651 b 740 610 729 651 740 633 b 706 567 740 586 729 567 l 135 567 b 101 610 111 567 101 586 b 135 651 101 633 111 651 l 706 651 m 706 431 b 740 388 729 431 740 411 b 706 346 740 364 729 346 l 135 346 b 101 388 111 346 101 364 b 135 431 101 411 111 431 l 706 431 m 567 236 b 642 163 610 236 642 203 b 567 89 642 121 610 89 b 493 163 525 89 493 121 b 567 236 493 203 525 236 "},"≠":{"ha":833,"x_min":null,"x_max":null,"o":"m 663 878 b 674 832 678 868 685 850 l 581 689 l 704 689 b 740 644 729 689 740 669 b 704 601 740 621 729 601 l 522 601 l 389 396 l 704 396 b 740 353 729 396 740 376 b 704 308 740 328 729 308 l 332 308 l 219 135 b 167 126 206 114 185 115 b 157 172 151 136 144 154 l 244 308 l 136 308 b 101 353 113 308 101 328 b 136 396 101 376 113 396 l 303 396 l 436 601 l 136 601 b 101 644 113 601 101 621 b 136 689 101 669 113 689 l 494 689 l 611 869 b 663 878 625 890 644 889 "},"≡":{"ha":833,"x_min":null,"x_max":null,"o":"m 738 738 b 765 701 757 738 765 722 b 738 667 765 682 757 667 l 96 667 b 67 701 76 667 67 682 b 96 738 67 722 76 738 l 738 738 m 738 535 b 765 499 757 535 765 519 b 738 464 765 481 757 464 l 96 464 b 67 499 76 464 67 481 b 96 535 67 519 76 535 l 738 535 m 738 332 b 765 296 757 332 765 317 b 738 261 765 276 757 261 l 96 261 b 67 296 76 261 67 276 b 96 332 67 317 76 332 l 738 332 "},"≤":{"ha":854,"x_min":null,"x_max":null,"o":"m 693 932 b 751 913 721 944 742 936 b 729 851 761 889 756 863 l 204 633 l 204 631 l 729 413 b 751 351 756 401 761 375 b 693 331 742 328 721 319 l 142 564 b 92 632 103 581 92 604 b 142 699 92 660 103 682 l 693 932 m 721 208 b 757 164 746 208 757 189 b 721 121 757 140 746 121 l 128 121 b 93 164 104 121 93 140 b 128 208 93 189 104 208 l 721 208 "},"≥":{"ha":854,"x_min":null,"x_max":null,"o":"m 713 699 b 763 632 751 682 763 660 b 713 564 763 604 751 581 l 163 331 b 103 351 133 319 114 328 b 125 413 93 375 100 401 l 650 631 l 650 633 l 125 851 b 103 913 100 863 93 889 b 163 932 114 936 133 944 l 713 699 m 726 208 b 763 164 751 208 763 189 b 726 121 763 140 751 121 l 133 121 b 97 164 108 121 97 140 b 133 208 97 189 108 208 l 726 208 "},"≪":{"ha":1264,"x_min":null,"x_max":null,"o":"m 836 911 l 788 979 l 131 524 l 131 461 l 797 19 l 842 89 l 229 492 m 1129 907 l 1081 972 l 422 524 l 422 461 l 1092 25 l 1133 93 l 521 493 "},"≫":{"ha":1264,"x_min":null,"x_max":null,"o":"m 1133 524 l 475 979 l 428 911 l 1035 492 l 421 89 l 467 19 l 1133 461 m 842 524 l 183 972 l 135 907 l 744 494 l 132 93 l 172 25 l 842 461 "},"⊂":{"ha":1264,"x_min":null,"x_max":null,"o":"m 1107 749 l 546 749 b 246 504 325 749 246 636 b 546 249 246 358 331 249 l 1107 249 l 1107 165 l 553 165 b 156 508 279 165 156 318 b 546 832 156 686 271 832 l 1107 832 "},"⊃":{"ha":1264,"x_min":null,"x_max":null,"o":"m 717 832 b 1107 508 992 832 1107 686 b 710 165 1107 318 983 165 l 156 165 l 156 249 l 717 249 b 1017 504 932 249 1017 358 b 717 749 1017 636 938 749 l 156 749 l 156 832 l 717 832 "},"⊆":{"ha":1264,"x_min":null,"x_max":null,"o":"m 1107 814 l 546 814 b 244 585 325 814 244 713 b 546 342 244 443 331 342 l 1107 342 l 1107 258 l 553 258 b 156 586 279 258 156 400 b 546 897 156 760 271 897 l 1107 897 m 1104 36 l 207 36 l 207 119 l 1104 119 "},"⊇":{"ha":1264,"x_min":null,"x_max":null,"o":"m 718 897 b 1107 586 993 897 1107 760 b 710 258 1107 400 983 258 l 156 258 l 156 342 l 718 342 b 1018 585 932 342 1018 443 b 718 814 1018 713 939 814 l 156 814 l 156 897 l 718 897 m 1056 36 l 158 36 l 158 119 l 1056 119 "},"⊙":{"ha":1264,"x_min":null,"x_max":null,"o":"m 632 1040 b 1174 499 932 1040 1174 799 b 632 -43 1174 199 932 -43 b 90 499 336 -43 90 199 b 632 1040 90 799 336 1040 m 632 986 b 146 499 365 986 146 765 b 632 13 146 232 365 13 b 1119 499 899 13 1119 232 b 632 986 1119 765 899 986 m 632 714 b 847 499 751 714 847 618 b 632 283 847 379 751 283 b 417 499 515 283 417 379 b 632 714 417 618 515 714 "},"⊥":{"ha":1264,"x_min":null,"x_max":null,"o":"m 678 96 l 1075 96 l 1075 6 l 189 6 l 189 96 l 586 96 l 586 803 l 678 803 "},"⋯":{"ha":1264,"x_min":null,"x_max":null,"o":"m 240 576 b 161 499 196 576 161 543 b 240 421 161 454 196 421 b 319 499 285 421 319 454 b 240 576 319 543 285 576 m 632 576 b 553 499 588 576 553 543 b 632 421 553 454 588 421 b 711 499 676 421 711 454 b 632 576 711 543 676 576 m 1024 576 b 944 499 979 576 944 543 b 1024 421 944 454 979 421 b 1103 499 1068 421 1103 454 b 1024 576 1103 543 1068 576 "},"⌒":{"ha":1264,"x_min":null,"x_max":null,"o":"m 631 1050 b 993 826 810 1050 921 960 l 901 826 b 633 983 854 911 765 983 b 363 826 500 983 410 911 l 269 826 b 631 1050 342 960 454 1050 "},"①":{"ha":1264,"x_min":null,"x_max":null,"o":"m 632 1072 b 1204 499 963 1072 1204 829 b 632 -75 1204 168 963 -75 b 60 499 301 -75 60 168 b 632 1072 60 829 301 1072 m 632 1001 b 132 499 342 1001 132 789 b 632 -4 132 208 342 -4 b 1132 499 922 -4 1132 208 b 632 1001 1132 789 922 1001 m 676 796 b 715 763 700 796 715 786 l 715 224 b 679 192 715 200 697 192 b 640 224 660 192 640 200 l 640 703 l 514 622 b 465 635 494 610 476 618 b 476 683 456 651 458 672 l 631 781 b 676 796 649 790 663 796 "},"②":{"ha":1264,"x_min":null,"x_max":null,"o":"m 632 1072 b 1204 499 963 1072 1204 829 b 632 -75 1204 168 963 -75 b 60 499 301 -75 60 168 b 632 1072 60 829 301 1072 m 632 1001 b 132 499 342 1001 132 789 b 632 -4 132 208 342 -4 b 1132 499 922 -4 1132 208 b 632 1001 1132 789 922 1001 m 636 817 b 818 664 757 817 818 749 l 818 656 b 739 488 818 593 794 549 l 546 275 l 815 275 b 844 242 835 275 844 260 b 815 207 844 224 835 207 l 494 207 b 443 247 457 207 443 221 b 467 292 443 260 450 272 l 675 522 b 744 657 728 582 744 614 l 744 660 b 639 747 743 713 708 747 b 514 675 581 747 544 719 b 467 667 501 658 483 657 b 456 714 450 678 446 696 b 636 817 490 775 556 817 "},"③":{"ha":1264,"x_min":null,"x_max":null,"o":"m 632 1072 b 1204 499 963 1072 1204 829 b 632 -75 1204 168 963 -75 b 60 499 301 -75 60 168 b 632 1072 60 829 301 1072 m 632 1001 b 132 499 342 1001 132 789 b 632 -4 132 208 342 -4 b 1132 499 922 -4 1132 208 b 632 1001 1132 789 922 1001 m 629 817 b 815 663 746 817 815 754 l 815 657 b 713 522 815 601 781 544 b 840 386 783 513 840 464 l 840 378 b 632 201 840 279 768 201 b 457 254 567 201 503 221 b 449 304 439 267 436 286 b 494 315 461 322 478 326 b 632 269 533 288 578 269 b 764 379 717 269 764 315 l 764 386 b 632 486 764 457 708 486 l 581 486 b 551 521 560 486 551 503 b 581 553 551 539 560 553 l 626 553 b 742 658 683 553 742 582 l 742 661 b 628 749 742 711 701 749 b 518 694 576 749 543 725 b 469 693 503 679 483 681 b 465 739 454 706 453 724 b 629 817 497 785 554 817 "},"④":{"ha":1264,"x_min":null,"x_max":null,"o":"m 632 1072 b 1204 499 963 1072 1204 829 b 632 -75 1204 168 963 -75 b 60 499 301 -75 60 168 b 632 1072 60 829 301 1072 m 632 1001 b 132 499 342 1001 132 789 b 632 -4 132 208 342 -4 b 1132 499 922 -4 1132 208 b 632 1001 1132 789 922 1001 m 719 808 b 731 760 736 797 743 779 l 485 410 l 693 410 l 693 568 b 729 600 693 590 711 600 b 768 568 749 600 768 590 l 768 410 l 829 410 b 858 376 850 410 858 394 b 829 344 858 358 850 344 l 768 344 l 768 242 b 729 211 768 219 749 211 b 693 242 711 211 693 219 l 693 344 l 442 344 b 392 381 404 344 392 356 b 413 426 392 392 394 401 l 671 800 b 719 808 682 817 701 819 "},"⑤":{"ha":1264,"x_min":null,"x_max":null,"o":"m 632 1072 b 1204 499 963 1072 1204 829 b 632 -75 1204 168 963 -75 b 60 499 301 -75 60 168 b 632 1072 60 829 301 1072 m 632 1001 b 132 499 342 1001 132 789 b 632 -4 132 208 342 -4 b 1132 499 922 -4 1132 208 b 632 1001 1132 789 922 1001 m 779 810 b 808 775 800 810 808 793 b 779 740 808 757 800 740 l 550 740 l 538 542 b 657 588 567 568 611 588 b 843 401 775 588 843 513 l 843 393 b 635 201 843 285 768 201 b 454 254 563 201 499 224 b 444 304 435 267 432 286 b 492 315 457 322 474 325 b 633 269 533 288 579 269 b 768 394 719 269 768 319 l 768 400 b 643 524 768 483 722 524 b 538 481 599 524 565 506 b 499 465 525 469 515 465 b 464 496 478 465 463 476 l 479 746 b 542 810 482 792 497 810 l 779 810 "},"⑥":{"ha":1264,"x_min":null,"x_max":null,"o":"m 632 1072 b 1204 499 963 1072 1204 829 b 632 -75 1204 168 963 -75 b 60 499 301 -75 60 168 b 632 1072 60 829 301 1072 m 632 1001 b 132 499 342 1001 132 789 b 632 -4 132 208 342 -4 b 1132 499 922 -4 1132 208 b 632 1001 1132 789 922 1001 m 660 817 b 796 783 714 817 763 803 b 810 736 815 772 819 753 b 764 721 799 718 783 711 b 660 747 735 738 699 747 b 504 524 558 747 517 669 b 649 600 532 569 589 600 b 840 410 767 600 840 526 l 840 396 b 638 201 840 275 754 201 b 431 454 517 201 431 283 l 431 471 b 660 817 431 726 522 817 m 639 532 b 508 411 558 532 508 478 l 508 408 b 638 269 508 325 563 269 b 765 397 713 269 765 315 l 765 403 b 639 532 765 486 724 532 "},"⑦":{"ha":1264,"x_min":null,"x_max":null,"o":"m 632 1072 b 1204 499 963 1072 1204 829 b 632 -75 1204 168 963 -75 b 60 499 301 -75 60 168 b 632 1072 60 829 301 1072 m 632 1001 b 132 499 342 1001 132 789 b 632 -4 132 208 342 -4 b 1132 499 922 -4 1132 208 b 632 1001 1132 789 922 1001 m 800 776 b 851 736 838 776 851 764 b 833 679 851 724 847 710 l 613 194 b 563 178 601 172 582 169 b 546 225 544 186 535 203 l 768 708 l 463 708 b 433 743 443 708 433 725 b 463 776 433 761 443 776 l 800 776 "},"⑧":{"ha":1264,"x_min":null,"x_max":null,"o":"m 632 1072 b 1204 499 963 1072 1204 829 b 632 -75 1204 168 963 -75 b 60 499 301 -75 60 168 b 632 1072 60 829 301 1072 m 632 1001 b 132 499 342 1001 132 789 b 632 -4 132 208 342 -4 b 1132 499 922 -4 1132 208 b 632 1001 1132 789 922 1001 m 633 817 b 818 660 744 817 818 749 l 818 650 b 726 518 818 593 786 543 b 835 376 797 496 835 440 l 835 368 b 635 201 835 269 757 201 b 433 368 511 201 433 269 l 433 376 b 542 518 433 440 472 497 b 450 650 483 544 450 594 l 450 660 b 633 817 450 749 521 817 m 633 749 b 525 654 564 749 525 708 l 525 649 b 635 549 525 590 571 549 b 743 649 699 549 743 589 l 743 654 b 633 749 743 710 701 749 m 633 481 b 507 375 563 481 507 443 l 507 369 b 633 269 507 313 554 269 b 760 369 715 269 760 313 l 760 375 b 633 481 760 440 706 481 "},"⑨":{"ha":1264,"x_min":null,"x_max":null,"o":"m 632 1072 b 1204 499 963 1072 1204 829 b 632 -75 1204 168 963 -75 b 60 499 301 -75 60 168 b 632 1072 60 829 301 1072 m 632 1001 b 132 499 342 1001 132 789 b 632 -4 132 208 342 -4 b 1132 499 922 -4 1132 208 b 632 1001 1132 789 922 1001 m 638 817 b 846 565 763 817 846 736 l 846 547 b 617 201 846 276 758 201 b 482 235 565 201 515 215 b 468 281 464 246 458 263 b 514 296 478 301 496 307 b 619 271 543 281 578 271 b 774 492 721 271 764 333 b 628 417 751 450 694 417 b 436 607 511 417 436 490 l 436 622 b 638 817 436 743 522 817 m 639 747 b 511 621 564 747 511 703 l 511 613 b 636 485 511 531 553 485 b 768 606 718 485 768 538 l 768 610 b 639 747 768 694 715 747 "},"⑩":{"ha":1264,"x_min":null,"x_max":null,"o":"m 632 1072 b 1204 499 963 1072 1204 829 b 632 -75 1204 168 963 -75 b 60 499 301 -75 60 168 b 632 1072 60 829 301 1072 m 632 1001 b 132 499 342 1001 132 789 b 632 -4 132 208 342 -4 b 1132 499 922 -4 1132 208 b 632 1001 1132 789 922 1001 m 800 804 b 997 529 940 804 997 710 l 997 488 b 800 214 997 307 940 214 b 604 488 661 214 604 307 l 604 529 b 800 804 604 710 661 804 m 457 797 b 494 764 479 797 494 788 l 494 247 b 458 217 494 225 476 217 b 422 247 440 217 422 225 l 422 706 l 306 629 b 260 642 289 618 269 625 b 271 690 250 657 250 678 l 414 783 b 457 797 431 793 442 797 m 800 733 b 676 525 706 733 676 668 l 676 493 b 800 285 676 350 706 285 b 925 493 896 285 925 350 l 925 525 b 800 733 925 668 896 733 "},"⑪":{"ha":1264,"x_min":null,"x_max":null,"o":"m 632 1072 b 1204 499 963 1072 1204 829 b 632 -75 1204 168 963 -75 b 60 499 301 -75 60 168 b 632 1072 60 829 301 1072 m 632 1001 b 132 499 342 1001 132 789 b 632 -4 132 208 342 -4 b 1132 499 922 -4 1132 208 b 632 1001 1132 789 922 1001 m 496 797 b 533 764 518 797 533 788 l 533 247 b 497 217 533 225 515 217 b 463 247 481 217 463 225 l 463 706 l 344 629 b 299 642 328 618 310 625 b 310 690 289 657 290 678 l 453 783 b 496 797 469 793 482 797 m 847 797 b 886 764 869 797 886 788 l 886 247 b 850 217 886 225 867 217 b 814 247 832 217 814 225 l 814 706 l 697 629 b 651 642 679 618 661 625 b 661 690 640 657 642 678 l 806 783 b 847 797 822 793 833 797 "},"⑫":{"ha":1264,"x_min":null,"x_max":null,"o":"m 632 1072 b 1204 499 963 1072 1204 829 b 632 -75 1204 168 963 -75 b 60 499 301 -75 60 168 b 632 1072 60 829 301 1072 m 632 1001 b 132 499 342 1001 132 789 b 632 -4 132 208 342 -4 b 1132 499 922 -4 1132 208 b 632 1001 1132 789 922 1001 m 790 804 b 961 658 903 804 961 739 l 961 650 b 888 488 961 590 940 544 l 708 288 l 957 288 b 985 253 976 288 985 272 b 957 219 985 235 976 219 l 658 219 b 610 258 624 219 610 232 b 633 301 610 271 617 282 l 828 524 b 892 651 875 576 892 610 l 892 654 b 793 735 890 703 857 735 b 678 668 740 735 707 710 b 632 660 667 651 649 649 b 622 706 615 669 613 689 b 790 804 654 764 715 804 m 457 797 b 494 764 479 797 494 788 l 494 247 b 458 217 494 225 476 217 b 422 247 440 217 422 225 l 422 706 l 306 629 b 260 642 289 618 269 625 b 271 690 250 657 250 678 l 414 783 b 457 797 431 793 442 797 "},"⑬":{"ha":1264,"x_min":null,"x_max":null,"o":"m 632 1072 b 1204 499 963 1072 1204 829 b 632 -75 1204 168 963 -75 b 60 499 301 -75 60 168 b 632 1072 60 829 301 1072 m 632 1001 b 132 499 342 1001 132 789 b 632 -4 132 208 342 -4 b 1132 499 922 -4 1132 208 b 632 1001 1132 789 922 1001 m 779 804 b 956 657 896 804 956 740 l 956 651 b 860 522 956 590 915 542 b 978 392 918 514 978 471 l 978 383 b 783 214 978 285 906 214 b 619 265 722 214 663 232 b 613 313 603 276 600 294 b 658 322 625 331 642 335 b 783 282 693 297 735 282 b 907 385 864 282 907 322 l 907 390 b 783 486 907 450 864 486 l 736 486 b 708 519 717 486 708 503 b 736 553 708 538 717 553 l 779 553 b 886 651 833 553 886 579 l 886 654 b 779 738 885 703 847 738 b 678 685 733 738 701 714 b 632 683 664 671 646 672 b 628 731 617 696 617 715 b 779 804 660 775 713 804 m 457 797 b 494 764 479 797 494 788 l 494 247 b 458 217 494 225 476 217 b 422 247 440 217 422 225 l 422 706 l 306 629 b 260 642 289 618 269 625 b 271 690 250 657 250 678 l 414 783 b 457 797 431 793 442 797 "},"⑭":{"ha":1264,"x_min":null,"x_max":null,"o":"m 632 1072 b 1204 499 963 1072 1204 829 b 632 -75 1204 168 963 -75 b 60 499 301 -75 60 168 b 632 1072 60 829 301 1072 m 632 1001 b 132 499 342 1001 132 789 b 632 -4 132 208 342 -4 b 1132 499 922 -4 1132 208 b 632 1001 1132 789 922 1001 m 879 796 b 889 749 894 785 901 767 l 661 415 l 851 415 l 851 565 b 888 597 851 588 868 597 b 922 565 907 597 922 588 l 922 415 l 979 415 b 1007 383 1000 415 1007 401 b 979 351 1007 365 1000 351 l 922 351 l 922 256 b 888 222 922 232 907 222 b 851 256 868 222 851 232 l 851 351 l 618 351 b 569 386 583 351 569 363 b 589 431 569 397 574 408 l 831 789 b 879 796 842 806 863 807 m 457 797 b 494 764 479 797 494 788 l 494 247 b 458 217 494 225 476 217 b 422 247 440 217 422 225 l 422 706 l 306 629 b 260 642 289 618 269 625 b 271 690 250 657 250 678 l 414 783 b 457 797 431 793 442 797 "},"⑮":{"ha":1264,"x_min":null,"x_max":null,"o":"m 632 1072 b 1204 499 963 1072 1204 829 b 632 -75 1204 168 963 -75 b 60 499 301 -75 60 168 b 632 1072 60 829 301 1072 m 632 1001 b 132 499 342 1001 132 789 b 632 -4 132 208 342 -4 b 1132 499 922 -4 1132 208 b 632 1001 1132 789 922 1001 m 457 797 b 494 764 479 797 494 788 l 494 247 b 458 217 494 225 476 217 b 422 247 440 217 422 225 l 422 706 l 306 629 b 260 642 289 618 269 625 b 271 690 250 657 250 678 l 414 783 b 457 797 431 793 442 797 m 921 797 b 949 764 940 797 949 782 b 921 729 949 744 940 729 l 710 729 l 697 539 b 807 586 721 565 764 586 b 981 406 919 586 981 514 l 981 397 b 785 214 981 294 910 214 b 617 264 719 214 658 235 b 607 313 600 276 596 294 b 653 325 619 332 636 335 b 785 282 692 299 735 282 b 911 399 865 282 911 328 l 911 404 b 794 521 911 483 868 521 b 696 481 753 521 721 504 b 658 465 683 469 674 465 b 626 496 639 465 625 476 l 640 736 b 700 797 643 781 658 797 l 921 797 "},"⑴":{"ha":1264,"x_min":null,"x_max":null,"o":"m 256 1022 b 267 982 271 1014 276 1000 b 146 499 182 836 146 669 b 267 15 146 328 182 161 b 256 -25 276 -3 271 -17 b 211 -15 240 -35 222 -32 b 64 499 110 128 64 317 b 211 1013 64 681 110 869 b 256 1022 222 1029 240 1032 m 1008 1022 b 1053 1013 1024 1032 1042 1029 b 1200 499 1154 869 1200 681 b 1053 -15 1200 317 1154 128 b 1008 -25 1042 -32 1024 -35 b 997 15 993 -17 988 -3 b 1118 499 1082 161 1118 328 b 997 982 1118 669 1082 836 b 1008 1022 988 1000 993 1014 m 676 796 b 715 763 700 796 715 786 l 715 224 b 679 192 715 200 697 192 b 640 224 660 192 640 200 l 640 703 l 514 622 b 465 635 494 610 476 618 b 476 683 456 651 458 672 l 631 781 b 676 796 649 790 663 796 "},"⑵":{"ha":1264,"x_min":null,"x_max":null,"o":"m 256 1022 b 267 982 271 1014 276 1000 b 146 499 182 836 146 669 b 267 15 146 328 182 161 b 256 -25 276 -3 271 -17 b 211 -15 240 -35 222 -32 b 64 499 110 128 64 317 b 211 1013 64 681 110 869 b 256 1022 222 1029 240 1032 m 1008 1022 b 1053 1013 1024 1032 1042 1029 b 1200 499 1154 869 1200 681 b 1053 -15 1200 317 1154 128 b 1008 -25 1042 -32 1024 -35 b 997 15 993 -17 988 -3 b 1118 499 1082 161 1118 328 b 997 982 1118 669 1082 836 b 1008 1022 988 1000 993 1014 m 636 817 b 818 664 757 817 818 749 l 818 656 b 739 488 818 593 794 549 l 546 275 l 815 275 b 844 242 835 275 844 260 b 815 207 844 224 835 207 l 494 207 b 443 247 457 207 443 221 b 467 292 443 260 450 272 l 675 522 b 744 657 728 582 744 614 l 744 660 b 639 747 743 713 708 747 b 514 675 581 747 544 719 b 467 667 501 658 483 657 b 456 714 450 678 446 696 b 636 817 490 775 556 817 "},"⑶":{"ha":1264,"x_min":null,"x_max":null,"o":"m 256 1022 b 267 982 271 1014 276 1000 b 146 499 182 836 146 669 b 267 15 146 328 182 161 b 256 -25 276 -3 271 -17 b 211 -15 240 -35 222 -32 b 64 499 110 128 64 317 b 211 1013 64 681 110 869 b 256 1022 222 1029 240 1032 m 1008 1022 b 1053 1013 1024 1032 1042 1029 b 1200 499 1154 869 1200 681 b 1053 -15 1200 317 1154 128 b 1008 -25 1042 -32 1024 -35 b 997 15 993 -17 988 -3 b 1118 499 1082 161 1118 328 b 997 982 1118 669 1082 836 b 1008 1022 988 1000 993 1014 m 629 817 b 815 663 746 817 815 754 l 815 657 b 713 522 815 601 781 544 b 840 386 783 513 840 464 l 840 378 b 632 201 840 279 768 201 b 457 254 567 201 503 221 b 449 304 439 267 436 286 b 494 315 461 322 478 326 b 632 269 533 288 578 269 b 764 379 717 269 764 315 l 764 386 b 632 486 764 457 708 486 l 581 486 b 551 521 560 486 551 503 b 581 553 551 539 560 553 l 626 553 b 742 658 683 553 742 582 l 742 661 b 628 749 742 711 701 749 b 518 694 576 749 543 725 b 469 693 503 679 483 681 b 465 739 454 706 453 724 b 629 817 497 785 554 817 "},"⑷":{"ha":1264,"x_min":null,"x_max":null,"o":"m 256 1022 b 267 982 271 1014 276 1000 b 146 499 182 836 146 669 b 267 15 146 328 182 161 b 256 -25 276 -3 271 -17 b 211 -15 240 -35 222 -32 b 64 499 110 128 64 317 b 211 1013 64 681 110 869 b 256 1022 222 1029 240 1032 m 1008 1022 b 1053 1013 1024 1032 1042 1029 b 1200 499 1154 869 1200 681 b 1053 -15 1200 317 1154 128 b 1008 -25 1042 -32 1024 -35 b 997 15 993 -17 988 -3 b 1118 499 1082 161 1118 328 b 997 982 1118 669 1082 836 b 1008 1022 988 1000 993 1014 m 719 808 b 731 760 736 797 743 779 l 485 410 l 693 410 l 693 568 b 729 600 693 590 711 600 b 768 568 749 600 768 590 l 768 410 l 829 410 b 858 376 850 410 858 394 b 829 344 858 358 850 344 l 768 344 l 768 242 b 729 211 768 219 749 211 b 693 242 711 211 693 219 l 693 344 l 442 344 b 392 381 404 344 392 356 b 413 426 392 392 394 401 l 671 800 b 719 808 682 817 701 819 "},"⑸":{"ha":1264,"x_min":null,"x_max":null,"o":"m 256 1022 b 267 982 271 1014 276 1000 b 146 499 182 836 146 669 b 267 15 146 328 182 161 b 256 -25 276 -3 271 -17 b 211 -15 240 -35 222 -32 b 64 499 110 128 64 317 b 211 1013 64 681 110 869 b 256 1022 222 1029 240 1032 m 1008 1022 b 1053 1013 1024 1032 1042 1029 b 1200 499 1154 869 1200 681 b 1053 -15 1200 317 1154 128 b 1008 -25 1042 -32 1024 -35 b 997 15 993 -17 988 -3 b 1118 499 1082 161 1118 328 b 997 982 1118 669 1082 836 b 1008 1022 988 1000 993 1014 m 779 810 b 808 775 800 810 808 793 b 779 740 808 757 800 740 l 550 740 l 538 542 b 657 588 567 568 611 588 b 843 401 775 588 843 513 l 843 393 b 635 201 843 285 768 201 b 454 254 563 201 499 224 b 444 304 435 267 432 286 b 492 315 457 322 474 325 b 633 269 533 288 579 269 b 768 394 719 269 768 319 l 768 400 b 643 524 768 483 722 524 b 538 481 599 524 565 506 b 499 465 525 469 515 465 b 464 496 478 465 463 476 l 479 746 b 542 810 482 792 497 810 l 779 810 "},"⑹":{"ha":1264,"x_min":null,"x_max":null,"o":"m 256 1022 b 267 982 271 1014 276 1000 b 146 499 182 836 146 669 b 267 15 146 328 182 161 b 256 -25 276 -3 271 -17 b 211 -15 240 -35 222 -32 b 64 499 110 128 64 317 b 211 1013 64 681 110 869 b 256 1022 222 1029 240 1032 m 1008 1022 b 1053 1013 1024 1032 1042 1029 b 1200 499 1154 869 1200 681 b 1053 -15 1200 317 1154 128 b 1008 -25 1042 -32 1024 -35 b 997 15 993 -17 988 -3 b 1118 499 1082 161 1118 328 b 997 982 1118 669 1082 836 b 1008 1022 988 1000 993 1014 m 660 817 b 796 783 714 817 763 803 b 810 736 815 772 819 753 b 764 721 799 718 783 711 b 660 747 735 738 699 747 b 504 524 558 747 517 669 b 649 600 532 569 589 600 b 840 410 767 600 840 526 l 840 396 b 638 201 840 275 754 201 b 431 454 517 201 431 283 l 431 471 b 660 817 431 726 522 817 m 639 532 b 508 411 558 532 508 478 l 508 408 b 638 269 508 325 563 269 b 765 397 713 269 765 315 l 765 403 b 639 532 765 486 724 532 "},"⑺":{"ha":1264,"x_min":null,"x_max":null,"o":"m 256 1022 b 267 982 271 1014 276 1000 b 146 499 182 836 146 669 b 267 15 146 328 182 161 b 256 -25 276 -3 271 -17 b 211 -15 240 -35 222 -32 b 64 499 110 128 64 317 b 211 1013 64 681 110 869 b 256 1022 222 1029 240 1032 m 1008 1022 b 1053 1013 1024 1032 1042 1029 b 1200 499 1154 869 1200 681 b 1053 -15 1200 317 1154 128 b 1008 -25 1042 -32 1024 -35 b 997 15 993 -17 988 -3 b 1118 499 1082 161 1118 328 b 997 982 1118 669 1082 836 b 1008 1022 988 1000 993 1014 m 800 776 b 851 736 838 776 851 764 b 833 679 851 724 847 710 l 613 194 b 563 178 601 172 582 169 b 546 225 544 186 535 203 l 768 708 l 463 708 b 433 743 443 708 433 725 b 463 776 433 761 443 776 l 800 776 "},"⑻":{"ha":1264,"x_min":null,"x_max":null,"o":"m 256 1022 b 267 982 271 1014 276 1000 b 146 499 182 836 146 669 b 267 15 146 328 182 161 b 256 -25 276 -3 271 -17 b 211 -15 240 -35 222 -32 b 64 499 110 128 64 317 b 211 1013 64 681 110 869 b 256 1022 222 1029 240 1032 m 1008 1022 b 1053 1013 1024 1032 1042 1029 b 1200 499 1154 869 1200 681 b 1053 -15 1200 317 1154 128 b 1008 -25 1042 -32 1024 -35 b 997 15 993 -17 988 -3 b 1118 499 1082 161 1118 328 b 997 982 1118 669 1082 836 b 1008 1022 988 1000 993 1014 m 633 817 b 818 660 744 817 818 749 l 818 650 b 726 518 818 593 786 543 b 835 376 797 496 835 440 l 835 368 b 635 201 835 269 757 201 b 433 368 511 201 433 269 l 433 376 b 542 518 433 440 472 497 b 450 650 483 544 450 594 l 450 660 b 633 817 450 749 521 817 m 633 749 b 525 654 564 749 525 708 l 525 649 b 635 549 525 590 571 549 b 743 649 699 549 743 589 l 743 654 b 633 749 743 710 701 749 m 633 481 b 507 375 563 481 507 443 l 507 369 b 633 269 507 313 554 269 b 760 369 715 269 760 313 l 760 375 b 633 481 760 440 706 481 "},"⑼":{"ha":1264,"x_min":null,"x_max":null,"o":"m 256 1022 b 267 982 271 1014 276 1000 b 146 499 182 836 146 669 b 267 15 146 328 182 161 b 256 -25 276 -3 271 -17 b 211 -15 240 -35 222 -32 b 64 499 110 128 64 317 b 211 1013 64 681 110 869 b 256 1022 222 1029 240 1032 m 1008 1022 b 1053 1013 1024 1032 1042 1029 b 1200 499 1154 869 1200 681 b 1053 -15 1200 317 1154 128 b 1008 -25 1042 -32 1024 -35 b 997 15 993 -17 988 -3 b 1118 499 1082 161 1118 328 b 997 982 1118 669 1082 836 b 1008 1022 988 1000 993 1014 m 638 817 b 846 565 763 817 846 736 l 846 547 b 617 201 846 276 758 201 b 482 235 565 201 515 215 b 468 281 464 246 458 263 b 514 296 478 301 496 307 b 619 271 543 281 578 271 b 774 492 721 271 764 332 b 628 417 751 449 694 417 b 436 607 511 417 436 490 l 436 622 b 638 817 436 743 522 817 m 639 747 b 511 621 564 747 511 703 l 511 613 b 636 485 511 531 553 485 b 768 606 718 485 768 538 l 768 610 b 639 747 768 694 715 747 "},"⑽":{"ha":1264,"x_min":null,"x_max":null,"o":"m 256 1022 b 267 982 271 1014 276 1000 b 146 499 182 836 146 669 b 267 15 146 328 182 161 b 256 -25 276 -3 271 -17 b 211 -15 240 -35 222 -32 b 64 499 110 128 64 317 b 211 1013 64 681 110 869 b 256 1022 222 1029 240 1032 m 1008 1022 b 1053 1013 1024 1032 1042 1029 b 1200 499 1154 869 1200 681 b 1053 -15 1200 317 1154 128 b 1008 -25 1042 -32 1024 -35 b 997 15 993 -17 988 -3 b 1118 499 1082 161 1118 328 b 997 982 1118 669 1082 836 b 1008 1022 988 1000 993 1014 m 800 804 b 997 529 940 804 997 710 l 997 488 b 800 214 997 307 940 214 b 604 488 661 214 604 307 l 604 529 b 800 804 604 710 661 804 m 457 797 b 494 764 479 797 494 788 l 494 247 b 458 217 494 225 476 217 b 422 247 440 217 422 225 l 422 706 l 306 629 b 260 642 289 618 269 625 b 271 690 250 657 250 678 l 414 783 b 457 797 431 793 442 797 m 800 733 b 676 525 706 733 676 668 l 676 493 b 800 285 676 350 706 285 b 925 493 896 285 925 350 l 925 525 b 800 733 925 668 896 733 "},"⑾":{"ha":1264,"x_min":null,"x_max":null,"o":"m 256 1022 b 267 982 271 1014 276 1000 b 146 499 182 836 146 669 b 267 15 146 328 182 161 b 256 -25 276 -3 271 -17 b 211 -15 240 -35 222 -32 b 64 499 110 128 64 317 b 211 1013 64 681 110 869 b 256 1022 222 1029 240 1032 m 1008 1022 b 1053 1013 1024 1032 1042 1029 b 1200 499 1154 869 1200 681 b 1053 -15 1200 317 1154 128 b 1008 -25 1042 -32 1024 -35 b 997 15 993 -17 988 -3 b 1118 499 1082 161 1118 328 b 997 982 1118 669 1082 836 b 1008 1022 988 1000 993 1014 m 496 797 b 533 764 518 797 533 788 l 533 247 b 497 217 533 225 515 217 b 463 247 481 217 463 225 l 463 706 l 344 629 b 299 642 328 618 310 625 b 310 690 289 657 290 678 l 453 783 b 496 797 469 793 482 797 m 847 797 b 886 764 869 797 886 788 l 886 247 b 850 217 886 225 867 217 b 814 247 832 217 814 225 l 814 706 l 697 629 b 651 642 679 618 661 625 b 661 690 640 657 642 678 l 806 783 b 847 797 822 793 833 797 "},"⑿":{"ha":1264,"x_min":null,"x_max":null,"o":"m 256 1022 b 267 982 271 1014 276 1000 b 146 499 182 836 146 669 b 267 15 146 328 182 161 b 256 -25 276 -3 271 -17 b 211 -15 240 -35 222 -32 b 64 499 110 128 64 317 b 211 1013 64 681 110 869 b 256 1022 222 1029 240 1032 m 1008 1022 b 1053 1013 1024 1032 1042 1029 b 1200 499 1154 869 1200 681 b 1053 -15 1200 317 1154 128 b 1008 -25 1042 -32 1024 -35 b 997 15 993 -17 988 -3 b 1118 499 1082 161 1118 328 b 997 982 1118 669 1082 836 b 1008 1022 988 1000 993 1014 m 790 804 b 961 658 903 804 961 739 l 961 650 b 888 488 961 590 940 544 l 708 288 l 957 288 b 985 253 976 288 985 272 b 957 219 985 235 976 219 l 658 219 b 610 258 624 219 610 232 b 633 301 610 271 617 282 l 828 524 b 892 651 875 576 892 610 l 892 654 b 793 735 890 703 857 735 b 678 668 740 735 707 710 b 632 660 667 651 649 649 b 622 706 615 669 613 689 b 790 804 654 764 715 804 m 457 797 b 494 764 479 797 494 788 l 494 247 b 458 217 494 225 476 217 b 422 247 440 217 422 225 l 422 706 l 306 629 b 260 642 289 618 269 625 b 271 690 250 657 250 678 l 414 783 b 457 797 431 793 442 797 "},"⒀":{"ha":1264,"x_min":null,"x_max":null,"o":"m 256 1022 b 267 982 271 1014 276 1000 b 146 499 182 836 146 669 b 267 15 146 328 182 161 b 256 -25 276 -3 271 -17 b 211 -15 240 -35 222 -32 b 64 499 110 128 64 317 b 211 1013 64 681 110 869 b 256 1022 222 1029 240 1032 m 1008 1022 b 1053 1013 1024 1032 1042 1029 b 1200 499 1154 869 1200 681 b 1053 -15 1200 317 1154 128 b 1008 -25 1042 -32 1024 -35 b 997 15 993 -17 988 -3 b 1118 499 1082 161 1118 328 b 997 982 1118 669 1082 836 b 1008 1022 988 1000 993 1014 m 779 804 b 956 657 896 804 956 740 l 956 651 b 860 522 956 590 915 542 b 978 392 918 514 978 471 l 978 383 b 783 214 978 285 906 214 b 619 265 722 214 663 232 b 613 313 603 276 600 294 b 658 322 625 331 642 335 b 783 282 693 297 735 282 b 907 385 864 282 907 322 l 907 390 b 783 486 907 450 864 486 l 736 486 b 708 519 717 486 708 503 b 736 553 708 538 717 553 l 779 553 b 886 651 833 553 886 579 l 886 654 b 779 738 885 703 847 738 b 678 685 733 738 701 714 b 632 683 664 671 646 672 b 628 731 617 696 617 715 b 779 804 660 775 713 804 m 457 797 b 494 764 479 797 494 788 l 494 247 b 458 217 494 225 476 217 b 422 247 440 217 422 225 l 422 706 l 306 629 b 260 642 289 618 269 625 b 271 690 250 657 250 678 l 414 783 b 457 797 431 793 442 797 "},"⒁":{"ha":1264,"x_min":null,"x_max":null,"o":"m 256 1022 b 267 982 271 1014 276 1000 b 146 499 182 836 146 669 b 267 15 146 328 182 161 b 256 -25 276 -3 271 -17 b 211 -15 240 -35 222 -32 b 64 499 110 128 64 317 b 211 1013 64 681 110 869 b 256 1022 222 1029 240 1032 m 1008 1022 b 1053 1013 1024 1032 1042 1029 b 1200 499 1154 869 1200 681 b 1053 -15 1200 317 1154 128 b 1008 -25 1042 -32 1024 -35 b 997 15 993 -17 988 -3 b 1118 499 1082 161 1118 328 b 997 982 1118 669 1082 836 b 1008 1022 988 1000 993 1014 m 879 796 b 889 749 894 785 901 767 l 661 415 l 851 415 l 851 565 b 888 597 851 588 868 597 b 922 565 907 597 922 588 l 922 415 l 979 415 b 1007 383 1000 415 1007 401 b 979 351 1007 365 1000 351 l 922 351 l 922 256 b 888 222 922 232 907 222 b 851 256 868 222 851 232 l 851 351 l 618 351 b 569 386 583 351 569 363 b 589 431 569 397 574 408 l 831 789 b 879 796 842 806 863 807 m 457 797 b 494 764 479 797 494 788 l 494 247 b 458 217 494 225 476 217 b 422 247 440 217 422 225 l 422 706 l 306 629 b 260 642 289 618 269 625 b 271 690 250 657 250 678 l 414 783 b 457 797 431 793 442 797 "},"⒂":{"ha":1264,"x_min":null,"x_max":null,"o":"m 256 1022 b 267 982 271 1014 276 1000 b 146 499 182 836 146 669 b 267 15 146 328 182 161 b 256 -25 276 -3 271 -17 b 211 -15 240 -35 222 -32 b 64 499 110 128 64 317 b 211 1013 64 681 110 869 b 256 1022 222 1029 240 1032 m 1008 1022 b 1053 1013 1024 1032 1042 1029 b 1200 499 1154 869 1200 681 b 1053 -15 1200 317 1154 128 b 1008 -25 1042 -32 1024 -35 b 997 15 993 -17 988 -3 b 1118 499 1082 161 1118 328 b 997 982 1118 669 1082 836 b 1008 1022 988 1000 993 1014 m 457 797 b 494 764 479 797 494 788 l 494 247 b 458 217 494 225 476 217 b 422 247 440 217 422 225 l 422 706 l 306 629 b 260 642 289 618 269 625 b 271 690 250 657 250 678 l 414 783 b 457 797 431 793 442 797 m 921 797 b 949 764 940 797 949 782 b 921 729 949 744 940 729 l 710 729 l 697 539 b 807 586 721 565 764 586 b 981 406 919 586 981 514 l 981 397 b 785 214 981 294 910 214 b 617 264 719 214 658 235 b 607 313 600 276 596 294 b 653 325 619 332 636 335 b 785 282 692 299 735 282 b 911 399 865 282 911 328 l 911 404 b 794 521 911 483 868 521 b 696 481 753 521 721 504 b 658 465 683 469 674 465 b 626 496 639 465 625 476 l 640 736 b 700 797 643 781 658 797 l 921 797 "},"⒜":{"ha":1264,"x_min":null,"x_max":null,"o":"m 256 1022 b 267 982 271 1014 276 1000 b 146 499 182 836 146 669 b 267 15 146 328 182 161 b 256 -25 276 -3 271 -17 b 211 -15 240 -35 222 -32 b 64 499 110 128 64 317 b 211 1013 64 681 110 869 b 256 1022 222 1029 240 1032 m 1008 1022 b 1053 1013 1024 1032 1042 1029 b 1200 499 1154 869 1200 681 b 1053 -15 1200 317 1154 128 b 1008 -25 1042 -32 1024 -35 b 997 15 993 -17 988 -3 b 1118 499 1082 161 1118 328 b 997 982 1118 669 1082 836 b 1008 1022 988 1000 993 1014 m 644 744 b 826 582 757 744 826 682 l 826 286 b 790 256 826 265 810 256 b 756 286 771 256 756 265 l 756 322 b 710 276 746 304 731 288 b 610 251 682 260 650 251 b 444 396 510 251 444 304 l 444 404 b 621 543 444 482 497 543 l 751 543 l 751 571 b 643 675 751 642 718 675 b 522 639 599 675 561 663 b 476 650 504 626 488 633 b 485 696 467 664 468 683 b 644 744 522 722 582 744 m 622 481 b 519 403 549 481 521 447 l 519 397 b 615 318 519 349 553 318 b 699 335 650 318 676 324 b 753 419 731 353 753 379 l 753 481 l 622 481 "},"⒝":{"ha":1264,"x_min":null,"x_max":null,"o":"m 256 1022 b 267 982 271 1014 276 1000 b 146 499 182 836 146 669 b 267 15 146 328 182 161 b 256 -25 276 -3 271 -17 b 211 -15 240 -35 222 -32 b 64 499 110 128 64 317 b 211 1013 64 681 110 869 b 256 1022 222 1029 240 1032 m 1008 1022 b 1053 1013 1024 1032 1042 1029 b 1200 499 1154 869 1200 681 b 1053 -15 1200 317 1154 128 b 1008 -25 1042 -32 1024 -35 b 997 15 993 -17 988 -3 b 1118 499 1082 161 1118 328 b 997 982 1118 669 1082 836 b 1008 1022 988 1000 993 1014 m 493 876 b 531 846 514 876 531 867 l 531 617 b 674 690 557 658 611 690 b 864 463 799 690 864 613 l 864 425 b 668 199 864 275 790 199 b 528 268 606 199 554 225 l 528 233 b 492 203 528 211 510 203 b 456 233 474 203 456 211 l 456 846 b 493 876 456 867 474 876 m 663 622 b 529 493 594 622 529 572 l 529 371 b 663 267 529 314 585 267 b 790 429 743 267 790 315 l 790 458 b 663 622 790 569 750 622 "},"⒞":{"ha":1264,"x_min":null,"x_max":null,"o":"m 256 1022 b 267 982 271 1014 276 1000 b 146 499 182 836 146 669 b 267 15 146 328 182 161 b 256 -25 276 -3 271 -17 b 211 -15 240 -35 222 -32 b 64 499 110 128 64 317 b 211 1013 64 681 110 869 b 256 1022 222 1029 240 1032 m 1008 1022 b 1053 1013 1024 1032 1042 1029 b 1200 499 1154 869 1200 681 b 1053 -15 1200 317 1154 128 b 1008 -25 1042 -32 1024 -35 b 997 15 993 -17 988 -3 b 1118 499 1082 161 1118 328 b 997 982 1118 669 1082 836 b 1008 1022 988 1000 993 1014 m 636 744 b 785 706 700 744 751 728 b 793 657 800 694 804 674 b 747 646 782 642 765 636 b 636 675 715 665 679 675 b 506 515 556 675 506 626 l 506 483 b 639 322 506 372 556 322 b 760 354 688 322 729 333 b 807 344 778 365 796 361 b 799 296 817 328 815 308 b 638 253 758 268 703 253 b 429 481 510 253 429 328 l 429 518 b 636 744 429 669 510 744 "},"⒟":{"ha":1264,"x_min":null,"x_max":null,"o":"m 256 1022 b 267 982 271 1014 276 1000 b 146 499 182 836 146 669 b 267 15 146 328 182 161 b 256 -25 276 -3 271 -17 b 211 -15 240 -35 222 -32 b 64 499 110 128 64 317 b 211 1013 64 681 110 869 b 256 1022 222 1029 240 1032 m 1008 1022 b 1053 1013 1024 1032 1042 1029 b 1200 499 1154 869 1200 681 b 1053 -15 1200 317 1154 128 b 1008 -25 1042 -32 1024 -35 b 997 15 993 -17 988 -3 b 1118 499 1082 161 1118 328 b 997 982 1118 669 1082 836 b 1008 1022 988 1000 993 1014 m 771 878 b 808 846 790 878 808 868 l 808 233 b 772 203 808 211 790 203 b 736 233 754 203 736 211 l 736 279 b 590 199 715 233 658 199 b 400 426 467 199 400 276 l 400 464 b 596 690 400 615 474 690 b 733 626 658 690 710 665 l 733 846 b 771 878 733 868 750 878 m 603 622 b 474 460 521 622 474 574 l 474 431 b 600 267 474 318 514 267 b 735 396 675 267 735 324 l 735 518 b 603 622 735 575 682 622 "},"⒠":{"ha":1264,"x_min":null,"x_max":null,"o":"m 256 1022 b 267 982 271 1014 276 1000 b 146 499 182 836 146 669 b 267 15 146 328 182 161 b 256 -25 276 -3 271 -17 b 211 -15 240 -35 222 -32 b 64 499 110 128 64 317 b 211 1013 64 681 110 869 b 256 1022 222 1029 240 1032 m 1008 1022 b 1053 1013 1024 1032 1042 1029 b 1200 499 1154 869 1200 681 b 1053 -15 1200 317 1154 128 b 1008 -25 1042 -32 1024 -35 b 997 15 993 -17 988 -3 b 1118 499 1082 161 1118 328 b 997 982 1118 669 1082 836 b 1008 1022 988 1000 993 1014 m 633 744 b 836 528 756 744 836 665 l 836 525 b 779 472 836 488 821 472 l 500 472 l 500 469 b 640 319 500 371 551 319 b 771 353 694 319 735 331 b 814 340 788 363 806 357 b 804 294 824 322 821 304 b 636 253 763 269 707 253 b 426 481 507 253 426 329 l 426 518 b 633 744 426 667 510 744 m 633 678 b 501 536 549 678 501 619 l 501 532 l 763 532 l 763 538 b 633 678 761 626 715 678 "},"⒡":{"ha":1264,"x_min":null,"x_max":null,"o":"m 256 1022 b 267 982 271 1014 276 1000 b 146 499 182 836 146 669 b 267 15 146 328 182 161 b 256 -25 276 -3 271 -17 b 211 -15 240 -35 222 -32 b 64 499 110 128 64 317 b 211 1013 64 681 110 869 b 256 1022 222 1029 240 1032 m 1008 1022 b 1053 1013 1024 1032 1042 1029 b 1200 499 1154 869 1200 681 b 1053 -15 1200 317 1154 128 b 1008 -25 1042 -32 1024 -35 b 997 15 993 -17 988 -3 b 1118 499 1082 161 1118 328 b 997 982 1118 669 1082 836 b 1008 1022 988 1000 993 1014 m 707 825 b 769 815 731 825 753 822 b 788 776 786 808 792 796 b 753 754 782 758 771 750 b 713 760 739 758 728 760 b 642 678 664 760 642 732 l 642 626 l 750 626 b 776 594 767 626 776 613 b 750 563 776 576 767 563 l 642 563 l 642 181 b 604 147 642 158 625 147 b 568 181 585 147 568 158 l 568 563 l 510 563 b 483 594 490 563 483 576 b 510 626 483 613 490 626 l 568 626 l 568 681 b 707 825 568 776 615 825 "},"⒢":{"ha":1264,"x_min":null,"x_max":null,"o":"m 256 1022 b 267 982 271 1014 276 1000 b 146 499 182 836 146 669 b 267 15 146 328 182 161 b 256 -25 276 -3 271 -17 b 211 -15 240 -35 222 -32 b 64 499 110 128 64 317 b 211 1013 64 681 110 869 b 256 1022 222 1029 240 1032 m 1008 1022 b 1053 1013 1024 1032 1042 1029 b 1200 499 1154 869 1200 681 b 1053 -15 1200 317 1154 128 b 1008 -25 1042 -32 1024 -35 b 997 15 993 -17 988 -3 b 1118 499 1082 161 1118 328 b 997 982 1118 669 1082 836 b 1008 1022 988 1000 993 1014 m 621 799 b 760 732 683 799 736 772 l 760 763 b 796 793 760 785 778 793 b 832 763 815 793 832 785 l 832 333 b 631 132 832 193 756 132 b 483 171 571 132 521 147 b 474 219 465 182 463 201 b 519 232 485 238 501 242 b 629 199 549 213 588 199 b 757 335 710 199 757 239 l 757 397 b 614 319 738 353 681 319 b 424 546 490 319 424 397 l 424 574 b 621 799 424 722 499 799 m 626 731 b 499 568 544 731 499 681 l 499 550 b 624 386 499 439 538 386 b 758 517 699 386 758 444 l 758 626 b 626 731 758 683 706 731 "},"⒣":{"ha":1264,"x_min":null,"x_max":null,"o":"m 256 1022 b 267 982 271 1014 276 1000 b 146 499 182 836 146 669 b 267 15 146 328 182 161 b 256 -25 276 -3 271 -17 b 211 -15 240 -35 222 -32 b 64 499 110 128 64 317 b 211 1013 64 681 110 869 b 256 1022 222 1029 240 1032 m 1008 1022 b 1053 1013 1024 1032 1042 1029 b 1200 499 1154 869 1200 681 b 1053 -15 1200 317 1154 128 b 1008 -25 1042 -32 1024 -35 b 997 15 993 -17 988 -3 b 1118 499 1082 161 1118 328 b 997 982 1118 669 1082 836 b 1008 1022 988 1000 993 1014 m 496 876 b 533 846 517 876 533 867 l 533 614 b 681 690 558 658 613 690 b 854 518 792 690 854 624 l 854 233 b 815 203 854 211 836 203 b 779 233 796 203 779 211 l 779 503 b 665 621 779 585 742 621 b 535 504 583 621 535 561 l 535 233 b 497 203 535 211 518 203 b 460 233 478 203 460 211 l 460 846 b 496 876 460 867 478 876 "},"⒤":{"ha":1264,"x_min":null,"x_max":null,"o":"m 256 1022 b 267 982 271 1014 276 1000 b 146 499 182 836 146 669 b 267 15 146 328 182 161 b 256 -25 276 -3 271 -17 b 211 -15 240 -35 222 -32 b 64 499 110 128 64 317 b 211 1013 64 681 110 869 b 256 1022 222 1029 240 1032 m 1008 1022 b 1053 1013 1024 1032 1042 1029 b 1200 499 1154 869 1200 681 b 1053 -15 1200 317 1154 128 b 1008 -25 1042 -32 1024 -35 b 997 15 993 -17 988 -3 b 1118 499 1082 161 1118 328 b 997 982 1118 669 1082 836 b 1008 1022 988 1000 993 1014 m 632 814 b 685 763 663 814 685 792 b 632 711 685 735 663 711 b 581 763 601 711 581 735 b 632 814 581 792 601 814 m 632 644 b 669 613 653 644 669 635 l 669 196 b 632 163 669 174 653 163 b 594 196 613 163 594 174 l 594 613 b 632 644 594 635 613 644 "},"⒥":{"ha":1264,"x_min":null,"x_max":null,"o":"m 256 1022 b 267 982 271 1014 276 1000 b 146 499 182 836 146 669 b 267 15 146 328 182 161 b 256 -25 276 -3 271 -17 b 211 -15 240 -35 222 -32 b 64 499 110 128 64 317 b 211 1013 64 681 110 869 b 256 1022 222 1029 240 1032 m 1008 1022 b 1053 1013 1024 1032 1042 1029 b 1200 499 1154 869 1200 681 b 1053 -15 1200 317 1154 128 b 1008 -25 1042 -32 1024 -35 b 997 15 993 -17 988 -3 b 1118 499 1082 161 1118 328 b 997 982 1118 669 1082 836 b 1008 1022 988 1000 993 1014 m 664 885 b 717 833 694 885 717 863 b 664 782 717 806 694 782 b 613 833 633 782 613 806 b 664 885 613 863 633 885 m 664 715 b 701 683 685 715 701 706 l 701 267 b 568 118 701 158 658 118 b 496 132 539 118 514 122 b 481 175 479 140 474 158 b 519 193 488 193 503 199 b 564 185 533 188 547 185 b 626 264 610 185 626 204 l 626 683 b 664 715 626 706 646 715 "},"⒦":{"ha":1264,"x_min":null,"x_max":null,"o":"m 256 1022 b 267 982 271 1014 276 1000 b 146 499 182 836 146 669 b 267 15 146 328 182 161 b 256 -25 276 -3 271 -17 b 211 -15 240 -35 222 -32 b 64 499 110 128 64 317 b 211 1013 64 681 110 869 b 256 1022 222 1029 240 1032 m 1008 1022 b 1053 1013 1024 1032 1042 1029 b 1200 499 1154 869 1200 681 b 1053 -15 1200 317 1154 128 b 1008 -25 1042 -32 1024 -35 b 997 15 993 -17 988 -3 b 1118 499 1082 161 1118 328 b 997 982 1118 669 1082 836 b 1008 1022 988 1000 993 1014 m 510 876 b 547 844 531 876 547 867 l 547 461 l 771 671 b 821 672 786 686 807 686 b 819 621 833 658 838 638 l 672 488 l 850 261 b 843 210 865 243 858 222 b 792 214 828 199 806 197 l 618 439 l 547 374 l 547 233 b 510 203 547 211 531 203 b 472 233 490 203 472 211 l 472 844 b 510 876 472 867 490 876 "},"⒧":{"ha":1264,"x_min":null,"x_max":null,"o":"m 256 1022 b 267 982 271 1014 276 1000 b 146 499 182 836 146 669 b 267 15 146 328 182 161 b 256 -25 276 -3 271 -17 b 211 -15 240 -35 222 -32 b 64 499 110 128 64 317 b 211 1013 64 681 110 869 b 256 1022 222 1029 240 1032 m 1008 1022 b 1053 1013 1024 1032 1042 1029 b 1200 499 1154 869 1200 681 b 1053 -15 1200 317 1154 128 b 1008 -25 1042 -32 1024 -35 b 997 15 993 -17 988 -3 b 1118 499 1082 161 1118 328 b 997 982 1118 669 1082 836 b 1008 1022 988 1000 993 1014 m 632 836 b 669 803 653 836 669 826 l 669 194 b 632 161 669 169 653 161 b 594 194 613 161 594 169 l 594 803 b 632 836 594 826 613 836 "},"⒨":{"ha":1264,"x_min":null,"x_max":null,"o":"m 256 1022 b 267 982 271 1014 276 1000 b 146 499 182 836 146 669 b 267 15 146 328 182 161 b 256 -25 276 -3 271 -17 b 211 -15 240 -35 222 -32 b 64 499 110 128 64 317 b 211 1013 64 681 110 869 b 256 1022 222 1029 240 1032 m 1008 1022 b 1053 1013 1024 1032 1042 1029 b 1200 499 1154 869 1200 681 b 1053 -15 1200 317 1154 128 b 1008 -25 1042 -32 1024 -35 b 997 15 993 -17 988 -3 b 1118 499 1082 161 1118 328 b 997 982 1118 669 1082 836 b 1008 1022 988 1000 993 1014 m 519 742 b 660 661 592 742 639 711 b 813 742 689 713 736 742 b 975 569 924 742 975 667 l 975 288 b 939 254 975 264 958 254 b 901 288 919 254 901 264 l 901 556 b 797 674 901 635 869 674 b 681 561 721 674 681 615 l 681 288 b 643 254 681 264 663 254 b 607 288 624 254 607 264 l 607 554 b 501 674 607 633 575 674 b 385 561 424 674 385 613 l 385 288 b 347 254 385 264 368 254 b 311 288 328 254 311 264 l 311 704 b 347 736 311 726 328 736 b 383 704 365 736 383 726 l 383 663 b 519 742 403 710 453 742 "},"⒩":{"ha":1264,"x_min":null,"x_max":null,"o":"m 256 1022 b 267 982 271 1014 276 1000 b 146 499 182 836 146 669 b 267 15 146 328 182 161 b 256 -25 276 -3 271 -17 b 211 -15 240 -35 222 -32 b 64 499 110 128 64 317 b 211 1013 64 681 110 869 b 256 1022 222 1029 240 1032 m 1008 1022 b 1053 1013 1024 1032 1042 1029 b 1200 499 1154 869 1200 681 b 1053 -15 1200 317 1154 128 b 1008 -25 1042 -32 1024 -35 b 997 15 993 -17 988 -3 b 1118 499 1082 161 1118 328 b 997 982 1118 669 1082 836 b 1008 1022 988 1000 993 1014 m 664 742 b 836 571 775 742 836 676 l 836 286 b 799 254 836 264 819 254 b 761 286 779 254 761 264 l 761 556 b 649 674 761 636 725 674 b 518 557 567 674 518 614 l 518 286 b 481 254 518 264 501 254 b 443 286 461 254 443 264 l 443 704 b 479 736 443 726 460 736 b 515 704 499 736 515 726 l 515 664 b 664 742 539 708 593 742 "},"⒪":{"ha":1264,"x_min":null,"x_max":null,"o":"m 256 1022 b 267 982 271 1014 276 1000 b 146 499 182 836 146 669 b 267 15 146 328 182 161 b 256 -25 276 -3 271 -17 b 211 -15 240 -35 222 -32 b 64 499 110 128 64 317 b 211 1013 64 681 110 869 b 256 1022 222 1029 240 1032 m 1008 1022 b 1053 1013 1024 1032 1042 1029 b 1200 499 1154 869 1200 681 b 1053 -15 1200 317 1154 128 b 1008 -25 1042 -32 1024 -35 b 997 15 993 -17 988 -3 b 1118 499 1082 161 1118 328 b 997 982 1118 669 1082 836 b 1008 1022 988 1000 993 1014 m 632 744 b 847 518 764 744 847 667 l 847 481 b 632 253 847 331 764 253 b 418 481 500 253 418 331 l 418 518 b 632 744 418 667 500 744 m 632 676 b 493 514 544 676 493 626 l 493 483 b 632 321 493 371 544 321 b 772 483 721 321 772 371 l 772 514 b 632 676 772 626 721 676 "},"⒫":{"ha":1264,"x_min":null,"x_max":null,"o":"m 256 1022 b 267 982 271 1014 276 1000 b 146 499 182 836 146 669 b 267 15 146 328 182 161 b 256 -25 276 -3 271 -17 b 211 -15 240 -35 222 -32 b 64 499 110 128 64 317 b 211 1013 64 681 110 869 b 256 1022 222 1029 240 1032 m 1008 1022 b 1053 1013 1024 1032 1042 1029 b 1200 499 1154 869 1200 681 b 1053 -15 1200 317 1154 128 b 1008 -25 1042 -32 1024 -35 b 997 15 993 -17 988 -3 b 1118 499 1082 161 1118 328 b 997 982 1118 669 1082 836 b 1008 1022 988 1000 993 1014 m 674 774 b 864 546 799 774 864 694 l 864 508 b 668 282 864 357 790 282 b 531 347 610 282 557 304 l 531 142 b 493 111 531 121 514 111 b 456 142 474 111 456 121 l 456 736 b 492 767 456 758 474 767 b 529 736 511 767 529 758 l 529 696 b 674 774 554 742 610 774 m 663 706 b 529 575 594 706 529 656 l 529 454 b 663 349 529 397 585 349 b 790 513 743 349 790 399 l 790 542 b 663 706 790 653 750 706 "},"⒬":{"ha":1264,"x_min":null,"x_max":null,"o":"m 256 1022 b 267 982 271 1014 276 1000 b 146 499 182 836 146 669 b 267 15 146 328 182 161 b 256 -25 276 -3 271 -17 b 211 -15 240 -35 222 -32 b 64 499 110 128 64 317 b 211 1013 64 681 110 869 b 256 1022 222 1029 240 1032 m 1008 1022 b 1053 1013 1024 1032 1042 1029 b 1200 499 1154 869 1200 681 b 1053 -15 1200 317 1154 128 b 1008 -25 1042 -32 1024 -35 b 997 15 993 -17 988 -3 b 1118 499 1082 161 1118 328 b 997 982 1118 669 1082 836 b 1008 1022 988 1000 993 1014 m 596 774 b 735 706 658 774 713 747 l 735 736 b 772 767 736 758 753 767 b 808 736 790 767 808 758 l 808 142 b 771 111 808 121 790 111 b 733 142 751 111 733 121 l 733 361 b 590 282 715 317 658 282 b 400 510 467 282 400 360 l 400 547 b 596 774 400 697 474 774 m 603 706 b 474 542 521 706 474 656 l 474 513 b 600 349 474 401 514 349 b 735 478 675 349 735 407 l 735 601 b 603 706 735 658 682 706 "},"⒭":{"ha":1264,"x_min":null,"x_max":null,"o":"m 256 1022 b 267 982 271 1014 276 1000 b 146 499 182 836 146 669 b 267 15 146 328 182 161 b 256 -25 276 -3 271 -17 b 211 -15 240 -35 222 -32 b 64 499 110 128 64 317 b 211 1013 64 681 110 869 b 256 1022 222 1029 240 1032 m 1008 1022 b 1053 1013 1024 1032 1042 1029 b 1200 499 1154 869 1200 681 b 1053 -15 1200 317 1154 128 b 1008 -25 1042 -32 1024 -35 b 997 15 993 -17 988 -3 b 1118 499 1082 161 1118 328 b 997 982 1118 669 1082 836 b 1008 1022 988 1000 993 1014 m 732 717 b 786 708 754 717 772 714 b 806 665 806 700 810 685 b 764 638 800 644 785 632 b 721 643 753 640 736 643 b 604 496 647 643 604 581 l 604 261 b 567 228 604 238 588 228 b 529 261 547 228 529 238 l 529 679 b 565 710 529 701 546 710 b 601 679 585 710 601 701 l 601 629 b 732 717 622 681 671 717 "},"⒮":{"ha":1264,"x_min":null,"x_max":null,"o":"m 256 1022 b 267 982 271 1014 276 1000 b 146 499 182 836 146 669 b 267 15 146 328 182 161 b 256 -25 276 -3 271 -17 b 211 -15 240 -35 222 -32 b 64 499 110 128 64 317 b 211 1013 64 681 110 869 b 256 1022 222 1029 240 1032 m 1008 1022 b 1053 1013 1024 1032 1042 1029 b 1200 499 1154 869 1200 681 b 1053 -15 1200 317 1154 128 b 1008 -25 1042 -32 1024 -35 b 997 15 993 -17 988 -3 b 1118 499 1082 161 1118 328 b 997 982 1118 669 1082 836 b 1008 1022 988 1000 993 1014 m 638 744 b 783 710 697 744 749 731 b 796 663 801 699 806 681 b 754 650 786 646 771 642 b 639 678 724 665 685 678 b 532 611 565 678 532 651 b 646 539 532 575 553 556 b 822 390 782 515 822 482 b 636 253 822 311 750 253 b 464 299 568 253 501 274 b 454 346 447 311 444 329 b 500 358 464 364 482 369 b 636 319 536 336 583 319 b 747 392 710 319 747 350 b 621 472 747 436 733 451 b 458 613 501 494 458 531 b 638 744 458 688 518 744 "},"⒯":{"ha":1264,"x_min":null,"x_max":null,"o":"m 256 1022 b 267 982 271 1014 276 1000 b 146 499 182 836 146 669 b 267 15 146 328 182 161 b 256 -25 276 -3 271 -17 b 211 -15 240 -35 222 -32 b 64 499 110 128 64 317 b 211 1013 64 681 110 869 b 256 1022 222 1029 240 1032 m 1008 1022 b 1053 1013 1024 1032 1042 1029 b 1200 499 1154 869 1200 681 b 1053 -15 1200 317 1154 128 b 1008 -25 1042 -32 1024 -35 b 997 15 993 -17 988 -3 b 1118 499 1082 161 1118 328 b 997 982 1118 669 1082 836 b 1008 1022 988 1000 993 1014 m 604 806 b 642 774 625 806 642 796 l 642 678 l 750 678 b 778 646 768 678 778 663 b 750 614 778 629 768 614 l 642 614 l 642 346 b 701 263 642 282 657 263 b 750 272 719 263 736 267 b 785 256 765 278 778 271 b 768 210 793 236 788 219 b 699 197 750 201 725 197 b 567 342 608 197 567 233 l 567 614 l 510 614 b 482 646 492 614 482 629 b 510 678 482 663 492 678 l 567 678 l 567 774 b 604 806 567 796 585 806 "}}}
